<?xml version="1.0" encoding="UTF-8" standalone="no"?>
<svg
   version="1.1"
   viewBox="0.0 0.0 600.0 600.0"
   fill="none"
   stroke="none"
   stroke-linecap="square"
   stroke-miterlimit="10"
   id="svg69"
   sodipodi:docname="crossings_leg.svg"
   inkscape:export-filename="../99481b79/crossings_leg_content.png"
   inkscape:export-xdpi="100"
   inkscape:export-ydpi="100"
   inkscape:version="1.2 (56b05e47e7, 2022-06-09, custom)"
   xmlns:inkscape="http://www.inkscape.org/namespaces/inkscape"
   xmlns:sodipodi="http://sodipodi.sourceforge.net/DTD/sodipodi-0.dtd"
   xmlns="http://www.w3.org/2000/svg"
   xmlns:svg="http://www.w3.org/2000/svg">
  <defs
     id="defs73" />
  <sodipodi:namedview
     id="namedview71"
     pagecolor="#ffffff"
     bordercolor="#666666"
     borderopacity="1.0"
     inkscape:showpageshadow="2"
     inkscape:pageopacity="1"
     inkscape:pagecheckerboard="0"
     inkscape:deskcolor="#d1d1d1"
     showgrid="false"
     inkscape:zoom="0.70833333"
     inkscape:cx="324"
     inkscape:cy="312.70588"
     inkscape:window-width="2514"
     inkscape:window-height="1016"
     inkscape:window-x="46"
     inkscape:window-y="27"
     inkscape:window-maximized="1"
     inkscape:current-layer="layer2" />
  <g
     inkscape:groupmode="layer"
     id="layer2"
     inkscape:label="Layer 2"
     style="display:inline">
    <rect
       style="fill:#ffffff;fill-opacity:0.950656;stroke:#000000;stroke-width:1;paint-order:markers fill stroke;stroke-dasharray:none"
       id="rect306"
       width="578.00641"
       height="578.00641"
       x="10.996798"
       y="10.996795"
       rx="3.5337055"
       ry="5.6247926" />
  </g>
  <g
     inkscape:groupmode="layer"
     id="layer1"
     inkscape:label="Layer 1"
     style="display:inline">
    <path
       fill="#000000"
       fill-opacity="0"
       d="M 42.710325,214.3219 H 249.38747"
       fill-rule="evenodd"
       id="path23" />
    <path
       stroke="#595959"
       stroke-width="12"
       stroke-linejoin="round"
       stroke-linecap="butt"
       d="M 42.710325,214.3219 H 249.38747"
       fill-rule="evenodd"
       id="path25" />
    <path
       fill="#000000"
       fill-opacity="0"
       d="M 43.576467,125.06993 H 248.52136"
       fill-rule="evenodd"
       id="path27" />
    <path
       stroke="#595959"
       stroke-width="12"
       stroke-linejoin="round"
       stroke-linecap="butt"
       d="M 43.576467,125.06993 H 248.52136"
       fill-rule="evenodd"
       id="path29" />
    <path
       fill="#000000"
       fill-opacity="0"
       d="M 45.321874,125.06993 H 247.65259"
       fill-rule="evenodd"
       id="path31" />
    <path
       stroke="#ffffff"
       stroke-width="8"
       stroke-linejoin="round"
       stroke-linecap="butt"
       d="M 45.321874,125.06993 H 247.65259"
       fill-rule="evenodd"
       id="path33" />
    <path
       fill="#000000"
       fill-opacity="0"
       d="M 43.355991,303.57387 H 248.74182"
       fill-rule="evenodd"
       id="path35" />
    <path
       stroke="#595959"
       stroke-width="12"
       stroke-linejoin="round"
       stroke-linecap="butt"
       stroke-dasharray="48, 36"
       d="M 43.355991,303.57387 H 248.74182"
       fill-rule="evenodd"
       id="path37" />
    <path
       fill="#000000"
       fill-opacity="0"
       d="m 271.99083,83.227414 h 301.8268 v 83.685036 h -301.8268 z"
       fill-rule="evenodd"
       id="path39" />
    <path
       fill="#000000"
       d="m 292.19397,138.53057 q 0.39063,0 0.89063,-0.0312 0.5,-0.0469 0.95312,-0.10938 0.46875,-0.0781 0.85938,-0.15625 0.39062,-0.0937 0.59375,-0.15625 v 3.04688 q -0.29688,0.14062 -0.73438,0.26562 -0.4375,0.125 -0.96875,0.21875 -0.53125,0.10938 -1.10937,0.15625 -0.57813,0.0625 -1.125,0.0625 -1.375,0 -2.54688,-0.35937 -1.17187,-0.34375 -2.03125,-1.20313 -0.84375,-0.85937 -1.34375,-2.32812 -0.48437,-1.48438 -0.48437,-3.71875 v -14.09376 h -3.42188 v -1.79687 l 3.42188,-1.71875 1.73437,-5.09375 h 2.32813 v 5.57812 h 6.09375 v 3.03125 h -6.09375 v 14.09376 q 0,2.14062 0.6875,3.23437 0.70312,1.07813 2.29687,1.07813 z m 18.51648,-21.89063 q 0.64063,0 1.4375,0.0625 0.79688,0.0469 1.375,0.17187 l -0.53125,3.70313 q -0.60937,-0.10938 -1.26562,-0.1875 -0.65625,-0.0781 -1.23438,-0.0781 -1.39062,0 -2.54687,0.57813 -1.14063,0.5625 -1.98438,1.60937 -0.82812,1.04688 -1.28125,2.53125 -0.45312,1.46875 -0.45312,3.25 v 13.10938 h -4.03125 v -24.29688 h 3.28125 l 0.48437,4.4375 h 0.1875 q 0.54688,-0.95312 1.17188,-1.82812 0.64062,-0.89063 1.42187,-1.5625 0.78125,-0.67188 1.75,-1.07813 0.98438,-0.42187 2.21875,-0.42187 z m 20.82736,24.75 -0.8125,-3.35937 h -0.17187 q -0.73438,0.98437 -1.46875,1.71875 -0.73438,0.71875 -1.59375,1.1875 -0.85938,0.45312 -1.92188,0.67187 -1.0625,0.21875 -2.45312,0.21875 -1.53125,0 -2.8125,-0.4375 -1.28125,-0.42187 -2.23438,-1.3125 -0.9375,-0.90625 -1.46875,-2.26562 -0.53125,-1.35938 -0.53125,-3.21875 0,-3.62501 2.54688,-5.56251 2.5625,-1.95312 7.79687,-2.14062 l 4.0625,-0.15625 v -1.51563 q 0,-1.48437 -0.32812,-2.48437 -0.3125,-1 -0.92188,-1.60938 -0.60937,-0.60937 -1.5,-0.875 -0.89062,-0.26562 -2.04687,-0.26562 -1.84375,0 -3.42188,0.53125 -1.57812,0.53125 -3.04687,1.28125 l -1.40625,-3.03125 q 1.625,-0.875 3.64062,-1.5 2.01563,-0.625 4.23438,-0.625 2.25,0 3.89062,0.45312 1.65625,0.45313 2.73438,1.4375 1.07812,0.98438 1.60937,2.51563 0.53125,1.53125 0.53125,3.70312 v 16.64064 z m -7.39062,-2.8125 q 1.35937,0 2.5,-0.42187 1.15625,-0.42188 2,-1.26563 0.84375,-0.85937 1.3125,-2.15625 0.46875,-1.29687 0.46875,-3.03125 v -2.20313 l -3.15625,0.15625 q -2,0.0937 -3.34375,0.45313 -1.34375,0.34375 -2.15625,0.98437 -0.8125,0.62501 -1.17188,1.53126 -0.34375,0.89062 -0.34375,2.01562 0,2.03125 1.0625,2.98438 1.07813,0.95312 2.82813,0.95312 z m 28.30844,-18.45313 h -5.42188 v 21.26563 h -4.04687 V 120.12431 H 338.69 v -1.65625 l 4.29688,-1.51562 v -2.125 q 0,-2.35938 0.5,-3.92188 0.5,-1.5625 1.4375,-2.48437 0.9375,-0.9375 2.3125,-1.32813 1.375,-0.39062 3.09375,-0.39062 1.3125,0 2.40625,0.26562 1.09375,0.25 1.95312,0.5625 l -1.03125,3.10938 q -0.6875,-0.23438 -1.5,-0.42188 -0.8125,-0.1875 -1.6875,-0.1875 -0.89062,0 -1.53125,0.21875 -0.64062,0.20313 -1.0625,0.73438 -0.42187,0.53125 -0.64062,1.45312 -0.20313,0.90625 -0.20313,2.34375 v 2.3125 h 5.42188 z m 14.91754,0 h -5.42188 v 21.26563 h -4.04687 v -21.26563 h -4.29688 v -1.65625 l 4.29688,-1.51562 v -2.125 q 0,-2.35938 0.5,-3.92188 0.5,-1.5625 1.4375,-2.48437 0.9375,-0.9375 2.3125,-1.32813 1.375,-0.39062 3.09375,-0.39062 1.3125,0 2.40625,0.26562 1.09375,0.25 1.95312,0.5625 l -1.03125,3.10938 q -0.6875,-0.23438 -1.5,-0.42188 -0.8125,-0.1875 -1.6875,-0.1875 -0.89062,0 -1.53125,0.21875 -0.64062,0.20313 -1.0625,0.73438 -0.42187,0.53125 -0.64062,1.45312 -0.20313,0.90625 -0.20313,2.34375 v 2.3125 h 5.42188 z m 8.38632,21.26563 h -4.03125 v -24.29688 h 4.03125 z m -4.32812,-30.875 q 0,-1.32813 0.67187,-1.92188 0.67188,-0.60937 1.67188,-0.60937 0.48437,0 0.90625,0.15625 0.4375,0.14062 0.75,0.45312 0.32812,0.3125 0.51562,0.78125 0.1875,0.46875 0.1875,1.14063 0,1.28125 -0.70312,1.92187 -0.6875,0.625 -1.65625,0.625 -1,0 -1.67188,-0.60937 -0.67187,-0.625 -0.67187,-1.9375 z m 21.32415,31.3125 q -2.23437,0 -4.1875,-0.6875 -1.9375,-0.70312 -3.375,-2.21875 -1.4375,-1.51562 -2.26562,-3.875 -0.8125,-2.35937 -0.8125,-5.67188 0,-3.48437 0.84375,-5.90625 0.84375,-2.42187 2.3125,-3.9375 1.46875,-1.51562 3.4375,-2.20312 1.96875,-0.6875 4.23437,-0.6875 1.71875,0 3.35938,0.39062 1.65625,0.375 2.76562,0.92188 l -1.1875,3.40625 q -0.51562,-0.21875 -1.14062,-0.42188 -0.60938,-0.21875 -1.28125,-0.375 -0.65625,-0.17187 -1.29688,-0.26562 -0.64062,-0.10938 -1.21875,-0.10938 -3.48437,0 -5.07812,2.23438 -1.59375,2.21875 -1.59375,6.90625 0,4.67188 1.60937,6.82813 1.60938,2.15625 4.875,2.15625 1.79688,0 3.25,-0.40625 1.45313,-0.40625 2.64063,-0.96875 v 3.59375 q -1.1875,0.64062 -2.5625,0.96875 -1.35938,0.32812 -3.32813,0.32812 z m 26.56009,6.73438 h -18.8125 v -3.09375 h 18.8125 z m 18.30777,-13.82813 q 0,1.76563 -0.64062,3.09375 -0.64063,1.32813 -1.84375,2.23438 -1.20313,0.89062 -2.92188,1.32812 -1.70312,0.4375 -3.82812,0.4375 -2.40625,0 -4.14063,-0.39062 -1.71875,-0.375 -3.03125,-1.125 v -3.6875 q 0.6875,0.35937 1.53125,0.70312 0.84375,0.34375 1.76563,0.60938 0.9375,0.26562 1.92187,0.4375 0.98438,0.15625 1.95313,0.15625 1.45312,0 2.45312,-0.23438 1,-0.25 1.625,-0.70312 0.64063,-0.45313 0.92188,-1.10938 0.29687,-0.65625 0.29687,-1.45312 0,-0.67188 -0.21875,-1.21875 -0.21875,-0.5625 -0.8125,-1.10938 -0.57812,-0.54687 -1.60937,-1.09375 -1.01563,-0.5625 -2.60938,-1.23438 -1.59375,-0.6875 -2.875,-1.34375 -1.26562,-0.67187 -2.15625,-1.48437 -0.875,-0.82813 -1.35937,-1.90625 -0.46875,-1.07813 -0.46875,-2.54688 0,-1.5625 0.60937,-2.76562 0.60938,-1.20313 1.71875,-2.01563 1.10938,-0.82812 2.65625,-1.25 1.54688,-0.42187 3.45313,-0.42187 2.14062,0 3.92187,0.46875 1.78125,0.46875 3.375,1.21875 l -1.39062,3.25 q -1.4375,-0.64063 -2.95313,-1.10938 -1.51562,-0.48437 -3.09375,-0.48437 -2.25,0 -3.34375,0.75 -1.07812,0.73437 -1.07812,2.10937 0,0.78125 0.25,1.35938 0.26562,0.5625 0.875,1.07812 0.625,0.5 1.65625,1.03125 1.04687,0.51563 2.59375,1.15625 1.59375,0.67188 2.84375,1.34375 1.25,0.65625 2.14062,1.48438 0.89063,0.82812 1.34375,1.89063 0.46875,1.0625 0.46875,2.54687 z m 9.93515,6.65625 h -4.03125 v -24.29688 h 4.03125 z m -4.32812,-30.875 q 0,-1.32813 0.67187,-1.92188 0.67188,-0.60937 1.67188,-0.60937 0.48437,0 0.90625,0.15625 0.4375,0.14062 0.75,0.45312 0.32812,0.3125 0.51562,0.78125 0.1875,0.46875 0.1875,1.14063 0,1.28125 -0.70312,1.92187 -0.6875,0.625 -1.65625,0.625 -1,0 -1.67188,-0.60937 -0.67187,-0.625 -0.67187,-1.9375 z m 30.76166,6.57812 v 2.5 l -4.35938,0.59375 q 0.60938,0.78125 1.03125,1.98438 0.42188,1.20312 0.42188,2.73437 0,1.67188 -0.51563,3.10938 -0.51562,1.42187 -1.57812,2.46875 -1.04688,1.03125 -2.59375,1.625 -1.54688,0.57813 -3.60938,0.57813 -0.48437,0 -0.96875,0 -0.48437,-0.0156 -0.79687,-0.0781 -0.375,0.21875 -0.75,0.5 -0.35938,0.26563 -0.65625,0.625 -0.29688,0.35938 -0.48438,0.79688 -0.1875,0.4375 -0.1875,0.96875 0,0.59375 0.26563,0.96875 0.26562,0.35937 0.71875,0.5625 0.45312,0.20312 1.0625,0.26562 0.625,0.0625 1.3125,0.0625 h 3.89062 q 2.0625,0 3.46875,0.53125 1.42188,0.51563 2.3125,1.40625 0.90625,0.875 1.29688,2.07813 0.40625,1.20312 0.40625,2.5625 0,1.95312 -0.71875,3.5 -0.71875,1.54687 -2.20313,2.60937 -1.48437,1.07813 -3.75,1.65625 -2.26562,0.57813 -5.34375,0.57813 -2.375,0 -4.14062,-0.46875 -1.76563,-0.46875 -2.95313,-1.35938 -1.17187,-0.875 -1.76562,-2.125 -0.57813,-1.25 -0.57813,-2.82812 0,-1.32813 0.4375,-2.32813 0.4375,-1 1.15625,-1.73437 0.73438,-0.73438 1.6875,-1.1875 0.96875,-0.46875 2.01563,-0.71875 -0.9375,-0.42188 -1.53125,-1.32813 -0.59375,-0.90625 -0.59375,-2.07812 0,-1.35938 0.70312,-2.34375 0.71875,-0.98438 2.23438,-1.90625 -0.95313,-0.40626 -1.73438,-1.09376 -0.78125,-0.70312 -1.32812,-1.59375 -0.54688,-0.90625 -0.84375,-1.96875 -0.29688,-1.0625 -0.29688,-2.1875 0,-1.96875 0.54688,-3.51562 0.5625,-1.54688 1.64062,-2.625 1.09375,-1.09375 2.70313,-1.67188 1.625,-0.57812 3.76562,-0.57812 0.8125,0 1.6875,0.125 0.875,0.125 1.48438,0.32812 z m -17.95313,28.28126 q 0,0.8125 0.28125,1.51562 0.29688,0.71875 0.9375,1.21875 0.65625,0.51563 1.73438,0.8125 1.07812,0.29688 2.67187,0.29688 4.10938,0 6.15625,-1.26563 2.04688,-1.26562 2.04688,-3.65625 0,-1.03125 -0.26563,-1.67187 -0.26562,-0.64063 -0.875,-1 -0.60937,-0.35938 -1.60937,-0.48438 -0.98438,-0.14062 -2.42188,-0.14062 h -3.89062 q -0.78125,0 -1.625,0.17187 -0.84375,0.17188 -1.54688,0.65625 -0.6875,0.48438 -1.14062,1.34375 -0.45313,0.85938 -0.45313,2.20313 z m 2.03125,-20.46876 q 0,2.54688 1.1875,3.78125 1.20313,1.23438 3.40625,1.23438 2.20313,0 3.34375,-1.21875 1.14063,-1.23438 1.14063,-3.875 0,-2.71875 -1.17188,-4 -1.15625,-1.28125 -3.35937,-1.28125 -2.1875,0 -3.375,1.32812 -1.17188,1.32813 -1.17188,4.03125 z m 35.858,16.48438 v -15.64063 q 0,-2.89062 -1.17187,-4.32812 -1.15625,-1.4375 -3.625,-1.4375 -1.79688,0 -3.01563,0.57812 -1.21875,0.57813 -1.96875,1.70313 -0.73437,1.125 -1.0625,2.76562 -0.3125,1.64063 -0.3125,3.76563 v 12.59375 h -4.03125 v -24.29688 h 3.28125 l 0.57813,3.26563 h 0.21875 q 0.5625,-0.95313 1.3125,-1.64063 0.76562,-0.70312 1.67187,-1.15625 0.90625,-0.46875 1.92188,-0.6875 1.03125,-0.23437 2.09375,-0.23437 4.04687,0 6.09375,2.125 2.04687,2.10937 2.04687,6.75 v 15.875 z m 25.20786,0 -0.8125,-3.35937 h -0.17188 q -0.73437,0.98437 -1.46875,1.71875 -0.73437,0.71875 -1.59375,1.1875 -0.85937,0.45312 -1.92187,0.67187 -1.0625,0.21875 -2.45313,0.21875 -1.53125,0 -2.8125,-0.4375 -1.28125,-0.42187 -2.23437,-1.3125 -0.9375,-0.90625 -1.46875,-2.26562 -0.53125,-1.35938 -0.53125,-3.21875 0,-3.62501 2.54687,-5.56251 2.5625,-1.95312 7.79688,-2.14062 l 4.0625,-0.15625 v -1.51563 q 0,-1.48437 -0.32813,-2.48437 -0.3125,-1 -0.92187,-1.60938 -0.60938,-0.60937 -1.5,-0.875 -0.89063,-0.26562 -2.04688,-0.26562 -1.84375,0 -3.42187,0.53125 -1.57813,0.53125 -3.04688,1.28125 l -1.40625,-3.03125 q 1.625,-0.875 3.64063,-1.5 2.01562,-0.625 4.23437,-0.625 2.25,0 3.89063,0.45312 1.65625,0.45313 2.73437,1.4375 1.07816,0.98438 1.60941,2.51563 0.53125,1.53125 0.53125,3.70312 v 16.64064 z m -7.39063,-2.8125 q 1.35938,0 2.5,-0.42187 1.15625,-0.42188 2,-1.26563 0.84375,-0.85937 1.3125,-2.15625 0.46875,-1.29687 0.46875,-3.03125 v -2.20313 l -3.15625,0.15625 q -2,0.0937 -3.34375,0.45313 -1.34375,0.34375 -2.15625,0.98437 -0.8125,0.62501 -1.17187,1.53126 -0.34375,0.89062 -0.34375,2.01562 0,2.03125 1.0625,2.98438 1.07812,0.95312 2.82812,0.95312 z m 21.77719,2.8125 h -4.03125 v -34.4375 h 4.03125 z m 22.2461,-6.65625 q 0,1.76563 -0.64063,3.09375 -0.64062,1.32813 -1.84375,2.23438 -1.20312,0.89062 -2.92187,1.32812 -1.70313,0.4375 -3.82813,0.4375 -2.40625,0 -4.14062,-0.39062 -1.71875,-0.375 -3.03125,-1.125 v -3.6875 q 0.6875,0.35937 1.53125,0.70312 0.84375,0.34375 1.76562,0.60938 0.9375,0.26562 1.92188,0.4375 0.98437,0.15625 1.95312,0.15625 1.45313,0 2.45313,-0.23438 1,-0.25 1.625,-0.70312 0.64062,-0.45313 0.92187,-1.10938 0.29688,-0.65625 0.29688,-1.45312 0,-0.67188 -0.21875,-1.21875 -0.21875,-0.5625 -0.8125,-1.10938 -0.57813,-0.54687 -1.60938,-1.09375 -1.01562,-0.5625 -2.60937,-1.23438 -1.59375,-0.6875 -2.875,-1.34375 -1.26563,-0.67187 -2.15625,-1.48437 -0.875,-0.82813 -1.35938,-1.90625 -0.46875,-1.07813 -0.46875,-2.54688 0,-1.5625 0.60938,-2.76562 0.60937,-1.20313 1.71875,-2.01563 1.10937,-0.82812 2.65625,-1.25 1.54687,-0.42187 3.45312,-0.42187 2.14063,0 3.92188,0.46875 1.78125,0.46875 3.375,1.21875 l -1.39063,3.25 q -1.4375,-0.64063 -2.95312,-1.10938 -1.51563,-0.48437 -3.09375,-0.48437 -2.25,0 -3.34375,0.75 -1.07813,0.73437 -1.07813,2.10937 0,0.78125 0.25,1.35938 0.26563,0.5625 0.875,1.07812 0.625,0.5 1.65625,1.03125 1.04688,0.51563 2.59375,1.15625 1.59375,0.67188 2.84375,1.34375 1.25,0.65625 2.14063,1.48438 0.89062,0.82812 1.34375,1.89063 0.46875,1.0625 0.46875,2.54687 z"
       fill-rule="nonzero"
       id="path41" />
    <path
       fill="#000000"
       fill-opacity="0"
       d="m 271.99083,172.47939 h 301.8268 v 83.68503 h -301.8268 z"
       fill-rule="evenodd"
       id="path43" />
    <path
       fill="#000000"
       d="m 313.94397,230.64191 v -15.64063 q 0,-2.89062 -1.10937,-4.32812 -1.09375,-1.4375 -3.42188,-1.4375 -1.625,0 -2.75,0.53125 -1.125,0.51562 -1.84375,1.53125 -0.71875,1 -1.0625,2.5 -0.32812,1.48437 -0.32812,3.4375 v 13.40625 h -4.04688 v -15.64063 q 0,-2.89062 -1.09375,-4.32812 -1.09375,-1.4375 -3.42187,-1.4375 -1.70313,0 -2.85938,0.57812 -1.14062,0.57813 -1.84375,1.70313 -0.6875,1.125 -1,2.76562 -0.29687,1.64063 -0.29687,3.76563 v 12.59375 h -4.03125 v -24.29688 h 3.28125 l 0.57812,3.26563 h 0.21875 q 0.53125,-0.95313 1.26563,-1.64063 0.73437,-0.70312 1.59375,-1.15625 0.875,-0.46875 1.85937,-0.6875 1,-0.23437 2.01563,-0.23437 2.65625,0 4.40625,0.98437 1.76562,0.96875 2.60937,3.04688 h 0.17188 q 0.57812,-1.03125 1.375,-1.78125 0.8125,-0.76563 1.78125,-1.25 0.96875,-0.5 2.03125,-0.75 1.0625,-0.25 2.15625,-0.25 3.875,0 5.82812,2.125 1.96875,2.10937 1.96875,6.75 v 15.875 z m 25.20758,0 -0.8125,-3.35938 h -0.17187 q -0.73438,0.98438 -1.46875,1.71875 -0.73438,0.71875 -1.59375,1.1875 -0.85938,0.45313 -1.92188,0.67188 -1.0625,0.21875 -2.45312,0.21875 -1.53125,0 -2.8125,-0.4375 -1.28125,-0.42188 -2.23438,-1.3125 -0.9375,-0.90625 -1.46875,-2.26563 -0.53125,-1.35937 -0.53125,-3.21875 0,-3.625 2.54688,-5.5625 2.5625,-1.95312 7.79687,-2.14062 l 4.0625,-0.15625 v -1.51563 q 0,-1.48437 -0.32812,-2.48437 -0.3125,-1 -0.92188,-1.60938 -0.60937,-0.60937 -1.5,-0.875 -0.89062,-0.26562 -2.04687,-0.26562 -1.84375,0 -3.42188,0.53125 -1.57812,0.53125 -3.04687,1.28125 l -1.40625,-3.03125 q 1.625,-0.875 3.64062,-1.5 2.01563,-0.625 4.23438,-0.625 2.25,0 3.89062,0.45312 1.65625,0.45313 2.73438,1.4375 1.07812,0.98438 1.60937,2.51563 0.53125,1.53125 0.53125,3.70312 v 16.64063 z m -7.39062,-2.8125 q 1.35937,0 2.5,-0.42188 1.15625,-0.42187 2,-1.26562 0.84375,-0.85938 1.3125,-2.15625 0.46875,-1.29688 0.46875,-3.03125 v -2.20313 l -3.15625,0.15625 q -2,0.0937 -3.34375,0.45313 -1.34375,0.34375 -2.15625,0.98437 -0.8125,0.625 -1.17188,1.53125 -0.34375,0.89063 -0.34375,2.01563 0,2.03125 1.0625,2.98437 1.07813,0.95313 2.82813,0.95313 z m 28.26156,-21.9375 q 0.64063,0 1.4375,0.0625 0.79688,0.0469 1.375,0.17187 l -0.53125,3.70313 q -0.60937,-0.10938 -1.26562,-0.1875 -0.65625,-0.0781 -1.23438,-0.0781 -1.39062,0 -2.54687,0.57813 -1.14063,0.5625 -1.98438,1.60937 -0.82812,1.04688 -1.28125,2.53125 -0.45312,1.46875 -0.45312,3.25 v 13.10938 h -4.03125 v -24.29688 h 3.28125 l 0.48437,4.4375 h 0.1875 q 0.54688,-0.95312 1.17188,-1.82812 0.64062,-0.89063 1.42187,-1.5625 0.78125,-0.67188 1.75,-1.07813 0.98438,-0.42187 2.21875,-0.42187 z m 11.28571,12.20312 3,-3.76562 6.48437,-7.98438 h 4.67188 l -8.875,10.51563 9.46875,13.78125 h -4.625 l -7.4375,-11.15625 -2.42188,1.8125 v 9.34375 h -3.98437 v -34.4375 h 3.98437 v 15.79687 l -0.34375,6.09375 z m 28.37762,12.98438 q -2.4375,0 -4.45312,-0.8125 -2,-0.8125 -3.45313,-2.39063 -1.45312,-1.57812 -2.25,-3.89062 -0.79687,-2.32813 -0.79687,-5.3125 0,-3.01563 0.73437,-5.375 0.73438,-2.375 2.0625,-4.01563 1.32813,-1.65625 3.17188,-2.51562 1.84375,-0.875 4.07812,-0.875 2.1875,0 3.9375,0.79687 1.75,0.78125 2.96875,2.21875 1.21875,1.42188 1.875,3.42188 0.65625,2 0.65625,4.4375 v 2.5 h -15.32812 q 0.10937,4.26562 1.79687,6.28125 1.70313,2.01562 5.04688,2.01562 1.125,0 2.09375,-0.10937 0.96875,-0.10938 1.85937,-0.3125 0.89063,-0.21875 1.73438,-0.53125 0.84375,-0.32813 1.70312,-0.73438 v 3.59375 q -0.875,0.42188 -1.73437,0.73438 -0.85938,0.3125 -1.75,0.5 -0.89063,0.20312 -1.85938,0.28125 -0.96875,0.0937 -2.09375,0.0937 z m -1,-21.84375 q -2.51562,0 -3.98437,1.73437 -1.46875,1.71875 -1.71875,5.01563 h 10.89062 q 0,-1.5 -0.29687,-2.75 -0.29688,-1.25 -0.9375,-2.125 -0.625,-0.89063 -1.60938,-1.375 -0.96875,-0.5 -2.34375,-0.5 z m 30.66388,18.15625 h -0.17187 q -0.5,0.75 -1.15625,1.42187 -0.64063,0.67188 -1.5,1.1875 -0.84375,0.51563 -1.90625,0.79688 -1.0625,0.28125 -2.39063,0.28125 -2.0625,0 -3.76562,-0.79688 -1.70313,-0.79687 -2.92188,-2.375 -1.21875,-1.57812 -1.89062,-3.92187 -0.65625,-2.35938 -0.65625,-5.45313 0,-3.125 0.65625,-5.46875 0.67187,-2.35937 1.89062,-3.95312 1.21875,-1.59375 2.92188,-2.40625 1.70312,-0.8125 3.76562,-0.8125 1.29688,0 2.35938,0.29687 1.0625,0.28125 1.90625,0.78125 0.85937,0.48438 1.51562,1.125 0.67188,0.64063 1.17188,1.34375 h 0.26562 q -0.0781,-0.75 -0.14062,-1.4375 -0.0469,-0.57812 -0.0937,-1.1875 -0.0312,-0.60937 -0.0312,-0.95312 v -9.65625 h 4.01562 v 34.4375 h -3.25 z m -6.35937,0.34375 q 1.6875,0 2.84375,-0.5 1.17187,-0.51563 1.89062,-1.54688 0.71875,-1.04687 1.0625,-2.60937 0.34375,-1.5625 0.39063,-3.64063 v -0.90625 q 0,-2.23437 -0.3125,-3.96875 -0.29688,-1.73437 -1.01563,-2.92187 -0.71875,-1.1875 -1.92187,-1.79688 -1.1875,-0.60937 -2.98438,-0.60937 -2.98437,0 -4.39062,2.42187 -1.40625,2.40625 -1.40625,6.92188 0,4.625 1.40625,6.89062 1.40625,2.26563 4.4375,2.26563 z"
       fill-rule="nonzero"
       id="path45" />
    <path
       fill="#000000"
       fill-opacity="0"
       d="M 42.710325,392.82585 H 249.38747"
       fill-rule="evenodd"
       id="path47" />
    <path
       stroke="#d9d9d9"
       stroke-width="12"
       stroke-linejoin="round"
       stroke-linecap="butt"
       d="M 42.710325,392.82585 H 249.38747"
       fill-rule="evenodd"
       id="path49" />
    <path
       fill="#000000"
       fill-opacity="0"
       d="m 271.99083,261.73134 h 301.8268 v 83.68506 h -301.8268 z"
       fill-rule="evenodd"
       id="path51" />
    <path
       fill="#000000"
       d="m 300.5846,319.89387 -0.60938,-3.25 h -0.21875 q -0.54687,0.95312 -1.3125,1.65625 -0.76562,0.6875 -1.67187,1.14062 -0.90625,0.45313 -1.92188,0.67188 -1.01562,0.21875 -2.07812,0.21875 -2.01563,0 -3.54688,-0.5 -1.53125,-0.51563 -2.54687,-1.59375 -1.01563,-1.09375 -1.54688,-2.76563 -0.51562,-1.6875 -0.51562,-4.01562 v -15.85938 h 4.03125 v 15.64063 q 0,2.875 1.17187,4.3125 1.17188,1.4375 3.625,1.4375 1.79688,0 3.01563,-0.5625 1.21875,-0.57813 1.95312,-1.6875 0.75,-1.125 1.0625,-2.76563 0.32813,-1.64062 0.32813,-3.76562 v -12.60938 h 4.03125 v 24.29688 z m 26.12976,0 v -15.64063 q 0,-2.89062 -1.17188,-4.32812 -1.15625,-1.4375 -3.625,-1.4375 -1.79687,0 -3.01562,0.57812 -1.21875,0.57813 -1.96875,1.70313 -0.73438,1.125 -1.0625,2.76562 -0.3125,1.64063 -0.3125,3.76563 v 12.59375 h -4.03125 v -24.29688 h 3.28125 l 0.57812,3.26563 h 0.21875 q 0.5625,-0.95313 1.3125,-1.64063 0.76563,-0.70312 1.67188,-1.15625 0.90625,-0.46875 1.92187,-0.6875 1.03125,-0.23437 2.09375,-0.23437 4.04688,0 6.09375,2.125 2.04688,2.10937 2.04688,6.75 v 15.875 z m 40.6141,0 v -15.64063 q 0,-2.89062 -1.10937,-4.32812 -1.09375,-1.4375 -3.42188,-1.4375 -1.625,0 -2.75,0.53125 -1.125,0.51562 -1.84375,1.53125 -0.71875,1 -1.0625,2.5 -0.32812,1.48437 -0.32812,3.4375 v 13.40625 h -4.04688 v -15.64063 q 0,-2.89062 -1.09375,-4.32812 -1.09375,-1.4375 -3.42187,-1.4375 -1.70313,0 -2.85938,0.57812 -1.14062,0.57813 -1.84375,1.70313 -0.6875,1.125 -1,2.76562 -0.29687,1.64063 -0.29687,3.76563 v 12.59375 h -4.03125 v -24.29688 h 3.28125 l 0.57812,3.26563 h 0.21875 q 0.53125,-0.95313 1.26563,-1.64063 0.73437,-0.70312 1.59375,-1.15625 0.875,-0.46875 1.85937,-0.6875 1,-0.23437 2.01563,-0.23437 2.65625,0 4.40625,0.98437 1.76562,0.96875 2.60937,3.04688 h 0.17188 q 0.57812,-1.03125 1.375,-1.78125 0.8125,-0.76563 1.78125,-1.25 0.96875,-0.5 2.03125,-0.75 1.0625,-0.25 2.15625,-0.25 3.875,0 5.82812,2.125 1.96875,2.10937 1.96875,6.75 v 15.875 z m 25.20758,0 -0.8125,-3.35938 h -0.17187 q -0.73438,0.98438 -1.46875,1.71875 -0.73438,0.71875 -1.59375,1.1875 -0.85938,0.45313 -1.92188,0.67188 -1.0625,0.21875 -2.45312,0.21875 -1.53125,0 -2.8125,-0.4375 -1.28125,-0.42188 -2.23438,-1.3125 -0.9375,-0.90625 -1.46875,-2.26563 -0.53125,-1.35937 -0.53125,-3.21875 0,-3.625 2.54688,-5.5625 2.5625,-1.95312 7.79687,-2.14062 l 4.0625,-0.15625 v -1.51563 q 0,-1.48437 -0.32812,-2.48437 -0.3125,-1 -0.92188,-1.60938 -0.60937,-0.60937 -1.5,-0.875 -0.89062,-0.26562 -2.04687,-0.26562 -1.84375,0 -3.42188,0.53125 -1.57812,0.53125 -3.04687,1.28125 l -1.40625,-3.03125 q 1.625,-0.875 3.64062,-1.5 2.01563,-0.625 4.23438,-0.625 2.25,0 3.89062,0.45312 1.65625,0.45313 2.73438,1.4375 1.07812,0.98438 1.60937,2.51563 0.53125,1.53125 0.53125,3.70312 v 16.64063 z m -7.39062,-2.8125 q 1.35937,0 2.5,-0.42188 1.15625,-0.42187 2,-1.26562 0.84375,-0.85938 1.3125,-2.15625 0.46875,-1.29688 0.46875,-3.03125 v -2.20313 l -3.15625,0.15625 q -2,0.0937 -3.34375,0.45313 -1.34375,0.34375 -2.15625,0.98437 -0.8125,0.625 -1.17188,1.53125 -0.34375,0.89063 -0.34375,2.01563 0,2.03125 1.0625,2.98437 1.07813,0.95313 2.82813,0.95313 z m 28.26157,-21.9375 q 0.64062,0 1.4375,0.0625 0.79687,0.0469 1.375,0.17187 l -0.53125,3.70313 q -0.60938,-0.10938 -1.26563,-0.1875 -0.65625,-0.0781 -1.23437,-0.0781 -1.39063,0 -2.54688,0.57813 -1.14062,0.5625 -1.98437,1.60937 -0.82813,1.04688 -1.28125,2.53125 -0.45313,1.46875 -0.45313,3.25 v 13.10935 h -4.03125 v -24.29688 h 3.28125 l 0.48438,4.4375 h 0.1875 q 0.54687,-0.95312 1.17187,-1.82812 0.64063,-0.89063 1.42188,-1.5625 0.78125,-0.67188 1.75,-1.07813 0.98437,-0.42187 2.21875,-0.42187 z m 11.2857,12.20312 3,-3.76562 6.48438,-7.98438 h 4.67187 l -8.875,10.51563 9.46875,13.78125 h -4.625 l -7.4375,-11.15625 -2.42187,1.8125 v 9.34375 h -3.98438 v -34.4375 h 3.98438 v 15.79687 l -0.34375,6.09375 z m 28.37763,12.98438 q -2.4375,0 -4.45313,-0.8125 -2,-0.8125 -3.45312,-2.39063 -1.45313,-1.57812 -2.25,-3.89062 -0.79688,-2.32813 -0.79688,-5.3125 0,-3.01563 0.73438,-5.375 0.73437,-2.375 2.0625,-4.01563 1.32812,-1.65625 3.17187,-2.51562 1.84375,-0.875 4.07813,-0.875 2.1875,0 3.9375,0.79687 1.75,0.78125 2.96875,2.21875 1.21875,1.42188 1.875,3.42188 0.65625,2 0.65625,4.4375 v 2.5 h -15.32813 q 0.10938,4.26562 1.79688,6.28125 1.70312,2.01562 5.04687,2.01562 1.125,0 2.09375,-0.10937 0.96875,-0.10938 1.85938,-0.3125 0.89062,-0.21875 1.73437,-0.53125 0.84375,-0.32813 1.70313,-0.73438 v 3.59375 q -0.875,0.42188 -1.73438,0.73438 -0.85937,0.3125 -1.75,0.5 -0.89062,0.20312 -1.85937,0.28125 -0.96875,0.0937 -2.09375,0.0937 z m -1,-21.84375 q -2.51563,0 -3.98438,1.73437 -1.46875,1.71875 -1.71875,5.01563 h 10.89063 q 0,-1.5 -0.29688,-2.75 -0.29687,-1.25 -0.9375,-2.125 -0.625,-0.89063 -1.60937,-1.375 -0.96875,-0.5 -2.34375,-0.5 z m 30.66388,18.15625 h -0.17188 q -0.5,0.75 -1.15625,1.42187 -0.64062,0.67188 -1.5,1.1875 -0.84375,0.51563 -1.90625,0.79688 -1.0625,0.28125 -2.39062,0.28125 -2.0625,0 -3.76563,-0.79688 -1.70312,-0.79687 -2.92187,-2.375 -1.21875,-1.57812 -1.89063,-3.92187 -0.65625,-2.35938 -0.65625,-5.45313 0,-3.125 0.65625,-5.46875 0.67188,-2.35937 1.89063,-3.95312 1.21875,-1.59375 2.92187,-2.40625 1.70313,-0.8125 3.76563,-0.8125 1.29687,0 2.35937,0.29687 1.0625,0.28125 1.90625,0.78125 0.85938,0.48438 1.51563,1.125 0.67187,0.64063 1.17187,1.34375 h 0.26563 q -0.0781,-0.75 -0.14063,-1.4375 -0.0469,-0.57812 -0.0937,-1.1875 -0.0312,-0.60937 -0.0312,-0.95312 v -9.65625 h 4.01563 v 34.4375 h -3.25 z m -6.35938,0.34375 q 1.6875,0 2.84375,-0.5 1.17188,-0.51563 1.89063,-1.54688 0.71875,-1.04687 1.0625,-2.60937 0.34375,-1.5625 0.39062,-3.64063 v -0.90625 q 0,-2.23437 -0.3125,-3.96875 -0.29687,-1.73437 -1.01562,-2.92187 -0.71875,-1.1875 -1.92188,-1.79688 -1.1875,-0.60937 -2.98437,-0.60937 -2.98438,0 -4.39063,2.42187 -1.40625,2.40625 -1.40625,6.92188 0,4.625 1.40625,6.89062 1.40625,2.26563 4.4375,2.26563 z"
       fill-rule="nonzero"
       id="path53" />
    <path
       fill="#000000"
       fill-opacity="0"
       d="m 271.99083,350.98332 h 301.8268 v 83.68503 h -301.8268 z"
       fill-rule="evenodd"
       id="path55" />
    <path
       fill="#000000"
       d="m 287.2096,399.98957 v -0.82812 q 0,-1.26563 0.15625,-2.28125 0.17187,-1.01563 0.60937,-1.89063 0.4375,-0.89062 1.15625,-1.73437 0.73438,-0.85938 1.84375,-1.79688 1.0625,-0.90625 1.8125,-1.64062 0.75,-0.75 1.21875,-1.51563 0.48438,-0.76562 0.71875,-1.625 0.23438,-0.875 0.23438,-2.04687 0,-1.0625 -0.34375,-1.9375 -0.32813,-0.875 -0.95313,-1.5 -0.625,-0.64063 -1.57812,-0.98438 -0.9375,-0.34375 -2.17188,-0.34375 -1.84375,0 -3.5,0.57813 -1.65625,0.57812 -3.20312,1.32812 l -1.40625,-3.21875 q 1.79687,-0.92187 3.875,-1.57812 2.07812,-0.65625 4.23437,-0.65625 2.0625,0 3.70313,0.57812 1.65625,0.5625 2.79687,1.625 1.15625,1.0625 1.76563,2.59375 0.625,1.53125 0.625,3.46875 0,1.48438 -0.29688,2.64063 -0.29687,1.15625 -0.89062,2.15625 -0.59375,1 -1.48438,1.9375 -0.89062,0.92187 -2.07812,1.95312 -1.15625,1 -1.89063,1.75 -0.71875,0.73438 -1.14062,1.4375 -0.42188,0.6875 -0.57813,1.42188 -0.15625,0.73437 -0.15625,1.70312 v 0.40625 z m -1.0625,6.70313 q 0,-0.84375 0.21875,-1.42188 0.21875,-0.59375 0.59375,-0.95312 0.39062,-0.375 0.89062,-0.53125 0.51563,-0.17188 1.10938,-0.17188 0.57812,0 1.09375,0.17188 0.51562,0.15625 0.89062,0.53125 0.39063,0.35937 0.60938,0.95312 0.21875,0.57813 0.21875,1.42188 0,0.8125 -0.21875,1.40625 -0.21875,0.57812 -0.60938,0.95312 -0.375,0.375 -0.89062,0.54688 -0.51563,0.1875 -1.09375,0.1875 -0.59375,0 -1.10938,-0.1875 -0.5,-0.17188 -0.89062,-0.54688 -0.375,-0.375 -0.59375,-0.95312 -0.21875,-0.59375 -0.21875,-1.40625 z"
       fill-rule="nonzero"
       id="path57" />
    <path
       fill="#000000"
       fill-opacity="0"
       d="m 271.99083,440.23527 h 301.8268 v 83.68503 h -301.8268 z"
       fill-rule="evenodd"
       id="path59" />
    <path
       fill="#000000"
       d="m 300.0221,498.39781 v -15.64063 q 0,-2.89062 -1.17188,-4.32812 -1.15625,-1.4375 -3.625,-1.4375 -1.79687,0 -3.01562,0.57812 -1.21875,0.57813 -1.96875,1.70313 -0.73438,1.125 -1.0625,2.76562 -0.3125,1.64063 -0.3125,3.76563 v 12.59375 h -4.03125 v -24.29688 h 3.28125 l 0.57812,3.26563 h 0.21875 q 0.5625,-0.95313 1.3125,-1.64063 0.76563,-0.70312 1.67188,-1.15625 0.90625,-0.46875 1.92187,-0.6875 1.03125,-0.23437 2.09375,-0.23437 4.04688,0 6.09375,2.125 2.04688,2.10937 2.04688,6.75 v 15.875 z m 31.31726,-12.1875 q 0,3.03125 -0.75,5.39062 -0.73438,2.34375 -2.125,3.95313 -1.375,1.60937 -3.34375,2.45312 -1.96875,0.82813 -4.42188,0.82813 -2.28125,0 -4.20312,-0.82813 -1.92188,-0.84375 -3.32813,-2.45312 -1.40625,-1.60938 -2.20312,-3.95313 -0.78125,-2.35937 -0.78125,-5.39062 0,-3.01563 0.73437,-5.34375 0.75,-2.34375 2.125,-3.9375 1.375,-1.60938 3.34375,-2.4375 1.98438,-0.84375 4.4375,-0.84375 2.28125,0 4.20313,0.84375 1.9375,0.82812 3.34375,2.4375 1.40625,1.59375 2.1875,3.9375 0.78125,2.32812 0.78125,5.34375 z m -17,0 q 0,4.625 1.51562,6.95312 1.51563,2.32813 4.9375,2.32813 3.40625,0 4.89063,-2.32813 1.5,-2.32812 1.5,-6.95312 0,-4.64063 -1.51563,-6.92188 -1.51562,-2.29687 -4.92187,-2.29687 -3.40625,0 -4.90625,2.29687 -1.5,2.28125 -1.5,6.92188 z"
       fill-rule="nonzero"
       id="path61" />
    <path
       fill="#000000"
       fill-opacity="0"
       d="M 42.710325,482.07781 H 249.38747"
       fill-rule="evenodd"
       id="path63" />
    <path
       stroke="#ff0000"
       stroke-width="12"
       stroke-linejoin="round"
       stroke-linecap="butt"
       d="M 42.710325,482.07781 H 249.38747"
       fill-rule="evenodd"
       id="path65" />
  </g>
</svg>
