<svg version="1.1" viewBox="0.0 0.0 24.0 24.0" fill="none" stroke="none" stroke-linecap="square" stroke-miterlimit="10" xmlns:xlink="http://www.w3.org/1999/xlink" xmlns="http://www.w3.org/2000/svg"><clipPath id="g1347e2e3433_0_0.0"><path d="m0 0l24.0 0l0 24.0l-24.0 0l0 -24.0z" clip-rule="nonzero"/></clipPath><g clip-path="url(#g1347e2e3433_0_0.0)"><path fill="#ffffff" d="m0 0l24.0 0l0 24.0l-24.0 0z" fill-rule="evenodd"/><path fill="#fff2cc" d="m6.4803543 -3.472441l7.8319426 0l0 0c0.5193052 0 1.0173416 0.20629334 1.3845463 0.573498c0.36720562 0.36720443 0.5734987 0.8652408 0.5734987 1.3845464l0 25.789988c0 5.340576E-5 -4.386902E-5 9.727478E-5 -9.918213E-5 9.727478E-5l-11.747932 -9.727478E-5l0 0c-5.4359436E-5 0 -9.775162E-5 -4.386902E-5 -9.775162E-5 -9.918213E-5l9.775162E-5 -25.789888l0 0c0 -1.0813981 0.87664604 -1.9580444 1.9580445 -1.9580444z" fill-rule="evenodd"/><defs><linearGradient id="g1347e2e3433_0_0.1" gradientUnits="userSpaceOnUse" gradientTransform="matrix(-5.060269499491359 0.0 0.0 -5.060269499491359 0.0 0.0)" spreadMethod="pad" x1="-4.78017551839564" y1="-5.044709032276226" x2="-4.78019375331812" y2="0.015560467182277476"><stop offset="0.0" stop-color="#8c8c8c"/><stop offset="1.0" stop-color="#404040"/></linearGradient></defs><path fill="url(#g1347e2e3433_0_0.1)" d="m24.188976 25.52756l-7.905512 0l0 -25.6063l7.905512 0z" fill-rule="evenodd"/><path fill="#000000" fill-opacity="0.0" d="m22.307087 -0.24671917l0 24.692913" fill-rule="evenodd"/><path stroke="#fff2cc" stroke-width="1.0" stroke-linejoin="round" stroke-linecap="butt" stroke-dasharray="4.0,3.0" d="m22.307087 -0.24671917l0 24.692913" fill-rule="evenodd"/><path fill="#b6d7a8" d="m-0.328084 -0.41732284l4.850394 0l0 24.692913l-4.850394 0z" fill-rule="evenodd"/><path fill="#eeeeee" d="m3.5091863 7.8346457l0 0c0 -3.0353918 2.4606714 -5.496063 5.4960628 -5.496063l0 0c1.4576473 0 2.8555918 0.5790477 3.886304 1.6097596c1.0307112 1.0307117 1.6097593 2.4286566 1.6097593 3.8863034l0 0c0 3.0353913 -2.4606714 5.4960628 -5.496063 5.4960628l0 0c-3.0353913 0 -5.4960628 -2.4606714 -5.4960628 -5.4960628z" fill-rule="evenodd"/><path stroke="#595959" stroke-width="2.0" stroke-linejoin="round" stroke-linecap="butt" d="m3.5091863 7.8346457l0 0c0 -3.0353918 2.4606714 -5.496063 5.4960628 -5.496063l0 0c1.4576473 0 2.8555918 0.5790477 3.886304 1.6097596c1.0307112 1.0307117 1.6097593 2.4286566 1.6097593 3.8863034l0 0c0 3.0353913 -2.4606714 5.4960628 -5.496063 5.4960628l0 0c-3.0353913 0 -5.4960628 -2.4606714 -5.4960628 -5.4960628z" fill-rule="evenodd"/><path fill="#000000" fill-opacity="0.0" d="m6.249344 12.506561l-4.094488 7.874016" fill-rule="evenodd"/><path stroke="#595959" stroke-width="3.0" stroke-linejoin="round" stroke-linecap="butt" d="m6.249344 12.506561l-4.094488 7.874016" fill-rule="evenodd"/></g></svg>