<?xml version="1.0" encoding="UTF-8" standalone="no"?>
<svg
   version="1.1"
   viewBox="0.0 0.0 600.0 600.0"
   fill="none"
   stroke="none"
   stroke-linecap="square"
   stroke-miterlimit="10"
   id="svg71"
   sodipodi:docname="kerbs_leg.svg"
   inkscape:export-filename="../3f7f679c/kerbs_leg_content.png"
   inkscape:export-xdpi="100"
   inkscape:export-ydpi="100"
   inkscape:version="1.2 (56b05e47e7, 2022-06-09, custom)"
   xmlns:inkscape="http://www.inkscape.org/namespaces/inkscape"
   xmlns:sodipodi="http://sodipodi.sourceforge.net/DTD/sodipodi-0.dtd"
   xmlns="http://www.w3.org/2000/svg"
   xmlns:svg="http://www.w3.org/2000/svg">
  <defs
     id="defs75" />
  <sodipodi:namedview
     id="namedview73"
     pagecolor="#ffffff"
     bordercolor="#666666"
     borderopacity="1.0"
     inkscape:showpageshadow="2"
     inkscape:pageopacity="1"
     inkscape:pagecheckerboard="0"
     inkscape:deskcolor="#d1d1d1"
     showgrid="false"
     inkscape:zoom="0.5008673"
     inkscape:cx="-22.960173"
     inkscape:cy="310.46147"
     inkscape:window-width="2514"
     inkscape:window-height="1016"
     inkscape:window-x="46"
     inkscape:window-y="27"
     inkscape:window-maximized="1"
     inkscape:current-layer="layer3" />
  <g
     inkscape:groupmode="layer"
     id="layer3"
     inkscape:label="Layer 1">
    <rect
       style="display:inline;fill:#ffffff;fill-opacity:0.950656;stroke:#000000;stroke-width:1;paint-order:markers fill stroke;stroke-dasharray:none"
       id="rect306"
       width="578.00641"
       height="578.00641"
       x="10.9968"
       y="10.9968"
       rx="3.5337057"
       ry="5.6247931" />
  </g>
  <g
     inkscape:groupmode="layer"
     id="layer4"
     inkscape:label="Layer 2">
    <path
       fill="#ffffff"
       d="m 64.468662,98.499358 v 0 c 0,-21.813072 17.68299,-39.496063 39.496068,-39.496063 v 0 c 10.475,0 20.52098,4.161182 27.92793,11.568131 7.40695,7.406944 11.56813,17.452927 11.56813,27.927932 v 0 c 0,21.813072 -17.68299,39.496062 -39.49606,39.496062 v 0 c -21.813077,0 -39.496068,-17.68299 -39.496068,-39.496062 z"
       fill-rule="evenodd"
       id="path23" />
    <path
       stroke="#595959"
       stroke-width="1"
       stroke-linejoin="round"
       stroke-linecap="butt"
       d="m 64.468662,98.499358 v 0 c 0,-21.813072 17.68299,-39.496063 39.496068,-39.496063 v 0 c 10.475,0 20.52098,4.161182 27.92793,11.568131 7.40695,7.406944 11.56813,17.452927 11.56813,27.927932 v 0 c 0,21.813072 -17.68299,39.496062 -39.49606,39.496062 v 0 c -21.813077,0 -39.496068,-17.68299 -39.496068,-39.496062 z"
       fill-rule="evenodd"
       id="path25" />
    <path
       fill="#ffffff"
       d="m 64.468662,203.83249 v 0 c 0,-21.81308 17.68299,-39.49606 39.496068,-39.49606 v 0 c 10.475,0 20.52098,4.16118 27.92793,11.56813 7.40695,7.40695 11.56813,17.45292 11.56813,27.92793 v 0 c 0,21.81307 -17.68299,39.49606 -39.49606,39.49606 v 0 c -21.813077,0 -39.496068,-17.683 -39.496068,-39.49606 z"
       fill-rule="evenodd"
       id="path27" />
    <path
       stroke="#595959"
       stroke-width="1"
       stroke-linejoin="round"
       stroke-linecap="butt"
       d="m 64.468662,203.83249 v 0 c 0,-21.81308 17.68299,-39.49606 39.496068,-39.49606 v 0 c 10.475,0 20.52098,4.16118 27.92793,11.56813 7.40695,7.40695 11.56813,17.45292 11.56813,27.92793 v 0 c 0,21.81307 -17.68299,39.49606 -39.49606,39.49606 v 0 c -21.813077,0 -39.496068,-17.683 -39.496068,-39.49606 z"
       fill-rule="evenodd"
       id="path29" />
    <path
       fill="#808080"
       d="m 64.468662,415.62963 v 0 c 0,-21.81308 17.68299,-39.49606 39.496068,-39.49606 v 0 c 10.475,0 20.52098,4.16119 27.92793,11.56814 7.40695,7.40696 11.56813,17.45291 11.56813,27.92792 v 0 c 0,21.81308 -17.68299,39.49606 -39.49606,39.49606 v 0 c -21.813077,0 -39.496068,-17.68298 -39.496068,-39.49606 z"
       fill-rule="evenodd"
       id="path31" />
    <path
       stroke="#595959"
       stroke-width="1"
       stroke-linejoin="round"
       stroke-linecap="butt"
       d="m 64.468662,415.62963 v 0 c 0,-21.81308 17.68299,-39.49606 39.496068,-39.49606 v 0 c 10.475,0 20.52098,4.16119 27.92793,11.56814 7.40695,7.40696 11.56813,17.45291 11.56813,27.92792 v 0 c 0,21.81308 -17.68299,39.49606 -39.49606,39.49606 v 0 c -21.813077,0 -39.496068,-17.68298 -39.496068,-39.49606 z"
       fill-rule="evenodd"
       id="path33" />
    <path
       fill="#bebebe"
       d="m 64.468662,309.1656 v 0 c 0,-21.81308 17.68299,-39.49606 39.496068,-39.49606 v 0 c 10.475,0 20.52098,4.16116 27.92793,11.56811 7.40695,7.40695 11.56813,17.45294 11.56813,27.92795 v 0 c 0,21.81308 -17.68299,39.49606 -39.49606,39.49606 v 0 c -21.813077,0 -39.496068,-17.68298 -39.496068,-39.49606 z"
       fill-rule="evenodd"
       id="path35" />
    <path
       stroke="#595959"
       stroke-width="1"
       stroke-linejoin="round"
       stroke-linecap="butt"
       d="m 64.468662,309.1656 v 0 c 0,-21.81308 17.68299,-39.49606 39.496068,-39.49606 v 0 c 10.475,0 20.52098,4.16116 27.92793,11.56811 7.40695,7.40695 11.56813,17.45294 11.56813,27.92795 v 0 c 0,21.81308 -17.68299,39.49606 -39.49606,39.49606 v 0 c -21.813077,0 -39.496068,-17.68298 -39.496068,-39.49606 z"
       fill-rule="evenodd"
       id="path37" />
    <path
       fill="#000000"
       d="m 64.468662,519.83187 v 0 c 0,-21.81308 17.68299,-39.49606 39.496068,-39.49606 v 0 c 10.475,0 20.52098,4.16116 27.92793,11.56811 7.40695,7.40695 11.56813,17.45294 11.56813,27.92795 v 0 c 0,21.81308 -17.68299,39.49606 -39.49606,39.49606 v 0 c -21.813077,0 -39.496068,-17.68298 -39.496068,-39.49606 z"
       fill-rule="evenodd"
       id="path39" />
    <path
       stroke="#595959"
       stroke-width="1"
       stroke-linejoin="round"
       stroke-linecap="butt"
       d="m 64.468662,519.83187 v 0 c 0,-21.81308 17.68299,-39.49606 39.496068,-39.49606 v 0 c 10.475,0 20.52098,4.16116 27.92793,11.56811 7.40695,7.40695 11.56813,17.45294 11.56813,27.92795 v 0 c 0,21.81308 -17.68299,39.49606 -39.49606,39.49606 v 0 c -21.813077,0 -39.496068,-17.68298 -39.496068,-39.49606 z"
       fill-rule="evenodd"
       id="path41" />
    <path
       fill="#000000"
       d="m 88.166522,98.496493 v 0 c 0,-8.723495 7.071785,-15.79528 15.795278,-15.79528 v 0 c 4.18917,0 8.20676,1.664146 11.16895,4.626335 2.96219,2.962189 4.62633,6.979774 4.62633,11.168945 v 0 c 0,8.723487 -7.07179,15.795267 -15.79528,15.795267 v 0 c -8.723493,0 -15.795278,-7.07178 -15.795278,-15.795267 z"
       fill-rule="evenodd"
       id="path43" />
    <path
       stroke="#595959"
       stroke-width="1"
       stroke-linejoin="round"
       stroke-linecap="butt"
       d="m 88.166522,98.496493 v 0 c 0,-8.723495 7.071785,-15.79528 15.795278,-15.79528 v 0 c 4.18917,0 8.20676,1.664146 11.16895,4.626335 2.96219,2.962189 4.62633,6.979774 4.62633,11.168945 v 0 c 0,8.723487 -7.07179,15.795267 -15.79528,15.795267 v 0 c -8.723493,0 -15.795278,-7.07178 -15.795278,-15.795267 z"
       fill-rule="evenodd"
       id="path45" />
    <path
       fill="#000000"
       fill-opacity="0"
       d="M 210.65643,161.97274 H 615.1289 v 83.68504 H 210.65643 Z"
       fill-rule="evenodd"
       id="path47" />
    <path
       fill="#000000"
       d="m 223.54705,218.21527 v -28.5625 h 3.625 v 25.3125 h 11.20312 v 3.25 z m 36.63281,-10.76563 q 0,2.67188 -0.65625,4.76563 -0.64062,2.07812 -1.875,3.5 -1.21875,1.40625 -2.95312,2.15625 -1.73438,0.73437 -3.90625,0.73437 -2.01563,0 -3.71875,-0.73437 -1.6875,-0.75 -2.9375,-2.15625 -1.23438,-1.42188 -1.9375,-3.5 -0.6875,-2.09375 -0.6875,-4.76563 0,-2.65625 0.65625,-4.71875 0.65625,-2.0625 1.85937,-3.46875 1.21875,-1.42187 2.96875,-2.15625 1.75,-0.73437 3.92188,-0.73437 2,0 3.70312,0.73437 1.70313,0.73438 2.9375,2.15625 1.25,1.40625 1.9375,3.46875 0.6875,2.0625 0.6875,4.71875 z m -15,0 q 0,4.07813 1.34375,6.14063 1.34375,2.0625 4.34375,2.0625 3.01563,0 4.32813,-2.0625 1.3125,-2.0625 1.3125,-6.14063 0,-4.07812 -1.34375,-6.09375 -1.32813,-2.03125 -4.32813,-2.03125 -3.01562,0 -4.34375,2.03125 -1.3125,2.01563 -1.3125,6.09375 z m 36.89844,10.76563 -3.28125,-12.03125 q -0.0781,-0.35938 -0.20313,-0.79688 -0.10937,-0.4375 -0.23437,-0.92187 -0.10938,-0.48438 -0.23438,-0.98438 -0.125,-0.51562 -0.25,-1.01562 -0.26562,-1.125 -0.5625,-2.34375 h -0.10937 q -0.28125,1.23437 -0.53125,2.375 -0.21875,0.96875 -0.46875,2.01562 -0.23438,1.03125 -0.45313,1.75 l -3.35937,11.95313 h -4.125 l -5.48438,-21.45313 h 3.73438 l 2.5625,11.40625 q 0.1875,0.89063 0.375,1.92188 0.20312,1.01562 0.375,2.03125 0.1875,1 0.3125,1.89062 0.14062,0.875 0.21875,1.45313 h 0.125 q 0.0937,-0.51563 0.25,-1.35938 0.17187,-0.85937 0.375,-1.79687 0.20312,-0.95313 0.42187,-1.875 0.21875,-0.9375 0.40625,-1.57813 l 3.5,-12.09375 h 3.82813 l 3.35937,12.09375 q 0.17188,0.67188 0.39063,1.57813 0.23437,0.89062 0.45312,1.8125 0.21875,0.92187 0.39063,1.78125 0.17187,0.85937 0.25,1.4375 h 0.125 q 0.0469,-0.51563 0.17187,-1.35938 0.14063,-0.85937 0.3125,-1.875 0.17188,-1.01562 0.375,-2.07812 0.20313,-1.0625 0.42188,-1.98438 l 2.67187,-11.40625 h 3.64063 l -5.54688,21.45313 z m 22.03125,0.39062 q -2.14063,0 -3.92188,-0.71875 -1.78125,-0.73437 -3.0625,-2.10937 -1.28125,-1.39063 -1.98437,-3.4375 -0.70313,-2.0625 -0.70313,-4.6875 0,-2.65625 0.64063,-4.75 0.65625,-2.09375 1.82812,-3.54688 1.17188,-1.45312 2.79688,-2.21875 1.64062,-0.76562 3.60937,-0.76562 1.9375,0 3.46875,0.70312 1.54688,0.6875 2.625,1.95313 1.07813,1.25 1.64063,3.03125 0.57812,1.76562 0.57812,3.90625 v 2.20312 h -13.51562 q 0.10937,3.78125 1.59375,5.5625 1.5,1.76563 4.45312,1.76563 0.98438,0 1.82813,-0.0937 0.85937,-0.0937 1.64062,-0.28125 0.79688,-0.1875 1.53125,-0.46875 0.75,-0.28125 1.51563,-0.64063 v 3.17188 q -0.78125,0.35937 -1.53125,0.64062 -0.75,0.26563 -1.54688,0.4375 -0.78125,0.1875 -1.64062,0.26563 -0.84375,0.0781 -1.84375,0.0781 z m -0.875,-19.28125 q -2.23438,0 -3.53125,1.53125 -1.29688,1.51563 -1.51563,4.42188 h 9.60938 q 0,-1.32813 -0.26563,-2.42188 -0.25,-1.10937 -0.8125,-1.89062 -0.5625,-0.78125 -1.42187,-1.20313 -0.85938,-0.4375 -2.0625,-0.4375 z m 23.07812,-2.95312 q 0.57813,0 1.28125,0.0625 0.70313,0.0469 1.20313,0.14062 l -0.46875,3.28125 q -0.54688,-0.0937 -1.125,-0.15625 -0.57813,-0.0781 -1.07813,-0.0781 -1.23437,0 -2.25,0.5 -1.01562,0.5 -1.75,1.42187 -0.73437,0.92188 -1.14062,2.23438 -0.39063,1.29687 -0.39063,2.875 v 11.5625 h -3.54687 v -21.45313 h 2.89062 l 0.42188,3.9375 h 0.15625 q 0.48437,-0.84375 1.04687,-1.625 0.5625,-0.78125 1.25,-1.375 0.6875,-0.59375 1.54688,-0.95312 0.85937,-0.375 1.95312,-0.375 z m 15.16016,22.23437 q -2.14062,0 -3.92187,-0.71875 -1.78125,-0.73437 -3.0625,-2.10937 -1.28125,-1.39063 -1.98438,-3.4375 -0.70312,-2.0625 -0.70312,-4.6875 0,-2.65625 0.64062,-4.75 0.65625,-2.09375 1.82813,-3.54688 1.17187,-1.45312 2.79687,-2.21875 1.64063,-0.76562 3.60938,-0.76562 1.9375,0 3.46875,0.70312 1.54687,0.6875 2.625,1.95313 1.07812,1.25 1.64062,3.03125 0.57813,1.76562 0.57813,3.90625 v 2.20312 h -13.51563 q 0.10938,3.78125 1.59375,5.5625 1.5,1.76563 4.45313,1.76563 0.98437,0 1.82812,-0.0937 0.85938,-0.0937 1.64063,-0.28125 0.79687,-0.1875 1.53125,-0.46875 0.75,-0.28125 1.51562,-0.64063 v 3.17188 q -0.78125,0.35937 -1.53125,0.64062 -0.75,0.26563 -1.54687,0.4375 -0.78125,0.1875 -1.64063,0.26563 -0.84375,0.0781 -1.84375,0.0781 z m -0.875,-19.28125 q -2.23437,0 -3.53125,1.53125 -1.29687,1.51563 -1.51562,4.42188 h 9.60937 q 0,-1.32813 -0.26562,-2.42188 -0.25,-1.10937 -0.8125,-1.89062 -0.5625,-0.78125 -1.42188,-1.20313 -0.85937,-0.4375 -2.0625,-0.4375 z m 27.04688,16.01563 h -0.15625 q -0.42188,0.67187 -1,1.26562 -0.57813,0.59375 -1.32813,1.04688 -0.75,0.4375 -1.6875,0.6875 -0.9375,0.26562 -2.10937,0.26562 -1.82813,0 -3.32813,-0.70312 -1.5,-0.70313 -2.57812,-2.09375 -1.07813,-1.40625 -1.67188,-3.46875 -0.57812,-2.07813 -0.57812,-4.8125 0,-2.75 0.57812,-4.82813 0.59375,-2.07812 1.67188,-3.48437 1.07812,-1.40625 2.57812,-2.125 1.5,-0.71875 3.32813,-0.71875 1.14062,0 2.07812,0.26562 0.9375,0.25 1.6875,0.6875 0.76563,0.42188 1.34375,0.98438 0.59375,0.5625 1.01563,1.1875 h 0.23437 q -0.0625,-0.65625 -0.10937,-1.26563 -0.0469,-0.5 -0.0937,-1.03125 -0.0312,-0.54687 -0.0312,-0.85937 v -8.51563 h 3.5625 v 30.39063 h -2.875 z m -5.60938,0.3125 q 1.48438,0 2.51563,-0.4375 1.03125,-0.45313 1.65625,-1.375 0.64062,-0.92188 0.9375,-2.29688 0.3125,-1.375 0.34375,-3.21875 v -0.79687 q 0,-1.96875 -0.26563,-3.5 -0.26562,-1.53125 -0.90625,-2.57813 -0.625,-1.04687 -1.6875,-1.57812 -1.04687,-0.54688 -2.625,-0.54688 -2.64062,0 -3.89062,2.14063 -1.23438,2.125 -1.23438,6.10937 0,4.07813 1.23438,6.07813 1.25,2 3.92187,2 z m 26.92188,-26 -10.625,28.5625 h -3.5 l 10.64062,-28.5625 z m 7.92187,28.5625 h -3.625 v -28.5625 h 14.82813 v 3.20312 h -11.20313 v 10.07813 h 10.45313 v 3.20312 h -10.45313 z m 19.08594,0 h -3.54688 v -30.39063 h 3.54688 z m 20.67969,0 -0.51563,-2.875 h -0.20312 q -0.48438,0.84375 -1.15625,1.46875 -0.67188,0.60937 -1.48438,1.01562 -0.79687,0.39063 -1.70312,0.57813 -0.89063,0.20312 -1.82813,0.20312 -1.78125,0 -3.125,-0.45312 -1.34375,-0.45313 -2.25,-1.40625 -0.89062,-0.95313 -1.35937,-2.4375 -0.45313,-1.48438 -0.45313,-3.53125 v -14.01563 h 3.5625 v 13.8125 q 0,2.54688 1.03125,3.8125 1.03125,1.26563 3.20313,1.26563 1.57812,0 2.65625,-0.5 1.07812,-0.51563 1.71875,-1.5 0.65625,-0.98438 0.9375,-2.42188 0.29687,-1.45312 0.29687,-3.32812 v -11.14063 h 3.54688 v 21.45313 z m 22.50781,-5.875 q 0,1.5625 -0.57813,2.73437 -0.5625,1.17188 -1.625,1.96875 -1.0625,0.78125 -2.5625,1.17188 -1.5,0.39062 -3.375,0.39062 -2.14062,0 -3.67187,-0.34375 -1.51563,-0.34375 -2.65625,-1 v -3.25 q 0.59375,0.3125 1.32812,0.625 0.75,0.29688 1.5625,0.53125 0.82813,0.23438 1.70313,0.39063 0.875,0.14062 1.73437,0.14062 1.26563,0 2.15625,-0.21875 0.89063,-0.21875 1.4375,-0.60937 0.5625,-0.40625 0.8125,-0.98438 0.25,-0.57812 0.25,-1.28125 0,-0.60937 -0.20312,-1.09375 -0.1875,-0.48437 -0.70313,-0.95312 -0.51562,-0.48438 -1.42187,-0.96875 -0.89063,-0.5 -2.29688,-1.10938 -1.40625,-0.59375 -2.53125,-1.17187 -1.125,-0.59375 -1.90625,-1.3125 -0.78125,-0.73438 -1.20312,-1.67188 -0.40625,-0.95312 -0.40625,-2.26562 0,-1.35938 0.53125,-2.42188 0.53125,-1.07812 1.5,-1.79687 0.98437,-0.71875 2.34375,-1.09375 1.375,-0.375 3.0625,-0.375 1.89062,0 3.45312,0.42187 1.57813,0.40625 2.98438,1.0625 l -1.21875,2.875 q -1.28125,-0.5625 -2.625,-0.98437 -1.32813,-0.42188 -2.71875,-0.42188 -1.98438,0 -2.95313,0.65625 -0.95312,0.65625 -0.95312,1.85938 0,0.6875 0.21875,1.20312 0.23437,0.5 0.78125,0.95313 0.54687,0.45312 1.46875,0.90625 0.92187,0.45312 2.28125,1.03125 1.40625,0.57812 2.5,1.17187 1.10937,0.57813 1.89062,1.3125 0.78125,0.73438 1.1875,1.67188 0.42188,0.9375 0.42188,2.25 z m 18.60937,5.875 v -13.8125 q 0,-2.53125 -1.03125,-3.79688 -1.01562,-1.28125 -3.20312,-1.28125 -1.57813,0 -2.65625,0.51563 -1.07813,0.5 -1.73438,1.5 -0.65625,1 -0.9375,2.45312 -0.28125,1.4375 -0.28125,3.3125 v 11.10938 h -3.54687 v -30.39063 h 3.54687 v 9.01563 l -0.15625,2.8125 h 0.20313 q 0.48437,-0.82813 1.15625,-1.4375 0.67187,-0.625 1.46875,-1.03125 0.8125,-0.42188 1.70312,-0.60938 0.90625,-0.20312 1.84375,-0.20312 3.5625,0 5.375,1.875 1.8125,1.85937 1.8125,5.96875 v 14 z"
       fill-rule="nonzero"
       id="path49" />
    <path
       fill="#000000"
       fill-opacity="0"
       d="M 210.65643,373.7699 H 615.1289 v 83.68506 H 210.65643 Z"
       fill-rule="evenodd"
       id="path51" />
    <path
       fill="#000000"
       d="m 244.93767,430.01242 h -4.20313 L 226.68767,406.3718 h -0.15625 q 0.125,1.51562 0.20312,3 0.0781,1.26562 0.125,2.65625 0.0469,1.375 0.0469,2.5 v 15.48437 h -3.35938 v -28.5625 h 4.15625 l 13.98438,23.51563 h 0.14062 q -0.0625,-1.48438 -0.14062,-2.92188 -0.0156,-0.625 -0.0469,-1.28125 -0.0312,-0.65625 -0.0625,-1.3125 -0.0312,-0.65625 -0.0469,-1.25 0,-0.60937 0,-1.125 v -15.625 h 3.40625 z m 24.75391,-10.76562 q 0,2.67187 -0.65625,4.76562 -0.64063,2.07813 -1.875,3.5 -1.21875,1.40625 -2.95313,2.15625 -1.73437,0.73438 -3.90625,0.73438 -2.01562,0 -3.71875,-0.73438 -1.6875,-0.75 -2.9375,-2.15625 -1.23437,-1.42187 -1.9375,-3.5 -0.6875,-2.09375 -0.6875,-4.76562 0,-2.65625 0.65625,-4.71875 0.65625,-2.0625 1.85938,-3.46875 1.21875,-1.42188 2.96875,-2.15625 1.75,-0.73438 3.92187,-0.73438 2,0 3.70313,0.73438 1.70312,0.73437 2.9375,2.15625 1.25,1.40625 1.9375,3.46875 0.6875,2.0625 0.6875,4.71875 z m -15,0 q 0,4.07812 1.34375,6.14062 1.34375,2.0625 4.34375,2.0625 3.01562,0 4.32812,-2.0625 1.3125,-2.0625 1.3125,-6.14062 0,-4.07813 -1.34375,-6.09375 -1.32812,-2.03125 -4.32812,-2.03125 -3.01563,0 -4.34375,2.03125 -1.3125,2.01562 -1.3125,6.09375 z"
       fill-rule="nonzero"
       id="path53" />
    <path
       fill="#000000"
       fill-opacity="0"
       d="M 210.65643,267.30587 H 615.1289 V 350.9909 H 210.65643 Z"
       fill-rule="evenodd"
       id="path55" />
    <path
       fill="#000000"
       d="m 227.17205,311.75152 v 11.79687 h -3.625 v -28.5625 h 6.95312 q 5.1875,0 7.67188,2.01563 2.48437,2.01562 2.48437,6.09375 0,1.70312 -0.48437,2.96875 -0.46875,1.26562 -1.26563,2.1875 -0.79687,0.90625 -1.8125,1.51562 -1.01562,0.59375 -2.07812,0.98438 l 7.76562,12.79687 h -4.28125 l -6.84375,-11.79687 z m 0,-3.09375 h 3.20312 q 1.76563,0 2.98438,-0.32813 1.23437,-0.34375 2.03125,-1.01562 0.79687,-0.6875 1.15625,-1.6875 0.35937,-1 0.35937,-2.35938 0,-1.40625 -0.40625,-2.375 -0.39062,-0.98437 -1.20312,-1.60937 -0.8125,-0.625 -2.0625,-0.90625 -1.23438,-0.28125 -2.9375,-0.28125 h -3.125 z m 36.95312,4.125 q 0,2.67187 -0.65625,4.76562 -0.64062,2.07813 -1.875,3.5 -1.21875,1.40625 -2.95312,2.15625 -1.73438,0.73438 -3.90625,0.73438 -2.01563,0 -3.71875,-0.73438 -1.6875,-0.75 -2.9375,-2.15625 -1.23438,-1.42187 -1.9375,-3.5 -0.6875,-2.09375 -0.6875,-4.76562 0,-2.65625 0.65625,-4.71875 0.65625,-2.0625 1.85937,-3.46875 1.21875,-1.42188 2.96875,-2.15625 1.75,-0.73438 3.92188,-0.73438 2,0 3.70312,0.73438 1.70313,0.73437 2.9375,2.15625 1.25,1.40625 1.9375,3.46875 0.6875,2.0625 0.6875,4.71875 z m -15,0 q 0,4.07812 1.34375,6.14062 1.34375,2.0625 4.34375,2.0625 3.01563,0 4.32813,-2.0625 1.3125,-2.0625 1.3125,-6.14062 0,-4.07813 -1.34375,-6.09375 -1.32813,-2.03125 -4.32813,-2.03125 -3.01562,0 -4.34375,2.03125 -1.3125,2.01562 -1.3125,6.09375 z m 24.16407,10.76562 h -3.54688 v -30.39062 h 3.54688 z m 10.35156,0 h -3.54688 v -30.39062 h 3.54688 z m 15.27344,0.39063 q -2.14063,0 -3.92188,-0.71875 -1.78125,-0.73438 -3.0625,-2.10938 -1.28125,-1.39062 -1.98437,-3.4375 -0.70313,-2.0625 -0.70313,-4.6875 0,-2.65625 0.64063,-4.75 0.65625,-2.09375 1.82812,-3.54687 1.17188,-1.45313 2.79688,-2.21875 1.64062,-0.76563 3.60937,-0.76563 1.9375,0 3.46875,0.70313 1.54688,0.6875 2.625,1.95312 1.07813,1.25 1.64063,3.03125 0.57812,1.76563 0.57812,3.90625 v 2.20313 h -13.51562 q 0.10937,3.78125 1.59375,5.5625 1.5,1.76562 4.45312,1.76562 0.98438,0 1.82813,-0.0937 0.85937,-0.0937 1.64062,-0.28125 0.79688,-0.1875 1.53125,-0.46875 0.75,-0.28125 1.51563,-0.64062 v 3.17187 q -0.78125,0.35938 -1.53125,0.64063 -0.75,0.26562 -1.54688,0.4375 -0.78125,0.1875 -1.64062,0.26562 -0.84375,0.0781 -1.84375,0.0781 z m -0.875,-19.28125 q -2.23438,0 -3.53125,1.53125 -1.29688,1.51562 -1.51563,4.42187 h 9.60938 q 0,-1.32812 -0.26563,-2.42187 -0.25,-1.10938 -0.8125,-1.89063 -0.5625,-0.78125 -1.42187,-1.20312 -0.85938,-0.4375 -2.0625,-0.4375 z m 27.04687,16.01562 h -0.15625 q -0.42187,0.67188 -1,1.26563 -0.57812,0.59375 -1.32812,1.04687 -0.75,0.4375 -1.6875,0.6875 -0.9375,0.26563 -2.10938,0.26563 -1.82812,0 -3.32812,-0.70313 -1.5,-0.70312 -2.57813,-2.09375 -1.07812,-1.40625 -1.67187,-3.46875 -0.57813,-2.07812 -0.57813,-4.8125 0,-2.75 0.57813,-4.82812 0.59375,-2.07813 1.67187,-3.48438 1.07813,-1.40625 2.57813,-2.125 1.5,-0.71875 3.32812,-0.71875 1.14063,0 2.07813,0.26563 0.9375,0.25 1.6875,0.6875 0.76562,0.42187 1.34375,0.98437 0.59375,0.5625 1.01562,1.1875 h 0.23438 q -0.0625,-0.65625 -0.10938,-1.26562 -0.0469,-0.5 -0.0937,-1.03125 -0.0312,-0.54688 -0.0312,-0.85938 v -8.51562 h 3.5625 v 30.39062 h -2.875 z m -5.60937,0.3125 q 1.48437,0 2.51562,-0.4375 1.03125,-0.45312 1.65625,-1.375 0.64063,-0.92187 0.9375,-2.29687 0.3125,-1.375 0.34375,-3.21875 v -0.79688 q 0,-1.96875 -0.26562,-3.5 -0.26563,-1.53125 -0.90625,-2.57812 -0.625,-1.04688 -1.6875,-1.57813 -1.04688,-0.54687 -2.625,-0.54687 -2.64063,0 -3.89063,2.14062 -1.23437,2.125 -1.23437,6.10938 0,4.07812 1.23437,6.07812 1.25,2 3.92188,2 z"
       fill-rule="nonzero"
       id="path57" />
    <path
       fill="#000000"
       fill-opacity="0"
       d="M 210.65643,56.639617 H 615.1289 V 140.32465 H 210.65643 Z"
       fill-rule="evenodd"
       id="path59" />
    <path
       fill="#000000"
       d="m 223.54705,88.882143 v -28.5625 h 3.625 v 25.3125 h 11.20312 v 3.25 z m 36.63281,-10.765625 q 0,2.671875 -0.65625,4.765625 -0.64062,2.078125 -1.875,3.5 -1.21875,1.40625 -2.95312,2.15625 -1.73438,0.734375 -3.90625,0.734375 -2.01563,0 -3.71875,-0.734375 -1.6875,-0.75 -2.9375,-2.15625 -1.23438,-1.421875 -1.9375,-3.5 -0.6875,-2.09375 -0.6875,-4.765625 0,-2.65625 0.65625,-4.71875 0.65625,-2.0625 1.85937,-3.46875 1.21875,-1.421875 2.96875,-2.15625 1.75,-0.734375 3.92188,-0.734375 2,0 3.70312,0.734375 1.70313,0.734375 2.9375,2.15625 1.25,1.40625 1.9375,3.46875 0.6875,2.0625 0.6875,4.71875 z m -15,0 q 0,4.078125 1.34375,6.140625 1.34375,2.0625 4.34375,2.0625 3.01563,0 4.32813,-2.0625 1.3125,-2.0625 1.3125,-6.140625 0,-4.078125 -1.34375,-6.09375 -1.32813,-2.03125 -4.32813,-2.03125 -3.01562,0 -4.34375,2.03125 -1.3125,2.015625 -1.3125,6.09375 z m 36.89844,10.765625 -3.28125,-12.03125 q -0.0781,-0.359375 -0.20313,-0.796875 -0.10937,-0.4375 -0.23437,-0.921875 -0.10938,-0.484375 -0.23438,-0.984375 -0.125,-0.515625 -0.25,-1.015625 -0.26562,-1.125 -0.5625,-2.34375 h -0.10937 q -0.28125,1.234375 -0.53125,2.375 -0.21875,0.96875 -0.46875,2.015625 -0.23438,1.03125 -0.45313,1.75 l -3.35937,11.953125 h -4.125 l -5.48438,-21.453125 h 3.73438 l 2.5625,11.40625 q 0.1875,0.890625 0.375,1.921875 0.20312,1.015625 0.375,2.03125 0.1875,1 0.3125,1.890625 0.14062,0.875 0.21875,1.453125 h 0.125 q 0.0937,-0.515625 0.25,-1.359375 0.17187,-0.859375 0.375,-1.796875 0.20312,-0.953125 0.42187,-1.875 0.21875,-0.9375 0.40625,-1.578125 l 3.5,-12.09375 h 3.82813 l 3.35937,12.09375 q 0.17188,0.671875 0.39063,1.578125 0.23437,0.890625 0.45312,1.8125 0.21875,0.921875 0.39063,1.78125 0.17187,0.859375 0.25,1.4375 h 0.125 q 0.0469,-0.515625 0.17187,-1.359375 0.14063,-0.859375 0.3125,-1.875 0.17188,-1.015625 0.375,-2.078125 0.20313,-1.0625 0.42188,-1.984375 l 2.67187,-11.40625 h 3.64063 l -5.54688,21.453125 z m 22.03125,0.390625 q -2.14063,0 -3.92188,-0.71875 -1.78125,-0.734375 -3.0625,-2.109375 -1.28125,-1.390625 -1.98437,-3.4375 -0.70313,-2.0625 -0.70313,-4.6875 0,-2.65625 0.64063,-4.75 0.65625,-2.09375 1.82812,-3.546875 1.17188,-1.453125 2.79688,-2.21875 1.64062,-0.765625 3.60937,-0.765625 1.9375,0 3.46875,0.703125 1.54688,0.6875 2.625,1.953125 1.07813,1.25 1.64063,3.03125 0.57812,1.765625 0.57812,3.90625 v 2.203125 h -13.51562 q 0.10937,3.78125 1.59375,5.5625 1.5,1.765625 4.45312,1.765625 0.98438,0 1.82813,-0.09375 0.85937,-0.09375 1.64062,-0.28125 0.79688,-0.1875 1.53125,-0.46875 0.75,-0.28125 1.51563,-0.640625 v 3.171875 q -0.78125,0.359375 -1.53125,0.640625 -0.75,0.265625 -1.54688,0.4375 -0.78125,0.1875 -1.64062,0.265625 -0.84375,0.07813 -1.84375,0.07813 z m -0.875,-19.28125 q -2.23438,0 -3.53125,1.53125 -1.29688,1.515625 -1.51563,4.421875 h 9.60938 q 0,-1.328125 -0.26563,-2.421875 -0.25,-1.109375 -0.8125,-1.890625 -0.5625,-0.78125 -1.42187,-1.203125 -0.85938,-0.4375 -2.0625,-0.4375 z m 23.07812,-2.953125 q 0.57813,0 1.28125,0.0625 0.70313,0.04687 1.20313,0.140625 l -0.46875,3.28125 q -0.54688,-0.09375 -1.125,-0.15625 -0.57813,-0.07813 -1.07813,-0.07813 -1.23437,0 -2.25,0.5 -1.01562,0.5 -1.75,1.421875 -0.73437,0.921875 -1.14062,2.234375 -0.39063,1.296875 -0.39063,2.875 v 11.5625 h -3.54687 v -21.45312 h 2.89062 l 0.42188,3.9375 h 0.15625 q 0.48437,-0.84375 1.04687,-1.625 0.5625,-0.78125 1.25,-1.375 0.6875,-0.59375 1.54688,-0.953125 0.85937,-0.375 1.95312,-0.375 z m 15.16016,22.234375 q -2.14062,0 -3.92187,-0.71875 -1.78125,-0.734375 -3.0625,-2.109375 -1.28125,-1.390625 -1.98438,-3.4375 -0.70312,-2.0625 -0.70312,-4.6875 0,-2.65625 0.64062,-4.75 0.65625,-2.09375 1.82813,-3.546875 1.17187,-1.453125 2.79687,-2.21875 1.64063,-0.765625 3.60938,-0.765625 1.9375,0 3.46875,0.703125 1.54687,0.6875 2.625,1.953125 1.07812,1.25 1.64062,3.03125 0.57813,1.765625 0.57813,3.90625 v 2.203125 h -13.51563 q 0.10938,3.78125 1.59375,5.5625 1.5,1.765625 4.45313,1.765625 0.98437,0 1.82812,-0.09375 0.85938,-0.09375 1.64063,-0.28125 0.79687,-0.1875 1.53125,-0.46875 0.75,-0.28125 1.51562,-0.640625 v 3.171875 q -0.78125,0.359375 -1.53125,0.640625 -0.75,0.265625 -1.54687,0.4375 -0.78125,0.1875 -1.64063,0.265625 -0.84375,0.07813 -1.84375,0.07813 z m -0.875,-19.28125 q -2.23437,0 -3.53125,1.53125 -1.29687,1.515625 -1.51562,4.421875 h 9.60937 q 0,-1.328125 -0.26562,-2.421875 -0.25,-1.109375 -0.8125,-1.890625 -0.5625,-0.78125 -1.42188,-1.203125 -0.85937,-0.4375 -2.0625,-0.4375 z m 27.04688,16.015625 h -0.15625 q -0.42188,0.671875 -1,1.265625 -0.57813,0.59375 -1.32813,1.046875 -0.75,0.4375 -1.6875,0.6875 -0.9375,0.265625 -2.10937,0.265625 -1.82813,0 -3.32813,-0.703125 -1.5,-0.703125 -2.57812,-2.09375 -1.07813,-1.40625 -1.67188,-3.46875 -0.57812,-2.078125 -0.57812,-4.8125 0,-2.75 0.57812,-4.828125 0.59375,-2.078125 1.67188,-3.484375 1.07812,-1.40625 2.57812,-2.125 1.5,-0.71875 3.32813,-0.71875 1.14062,0 2.07812,0.265625 0.9375,0.25 1.6875,0.6875 0.76563,0.421875 1.34375,0.984375 0.59375,0.5625 1.01563,1.1875 h 0.23437 q -0.0625,-0.65625 -0.10937,-1.265625 -0.0469,-0.5 -0.0937,-1.03125 -0.0312,-0.546875 -0.0312,-0.859375 v -8.515625 h 3.5625 v 30.390625 h -2.875 z m -5.60938,0.3125 q 1.48438,0 2.51563,-0.4375 1.03125,-0.453125 1.65625,-1.375 0.64062,-0.921875 0.9375,-2.296875 0.3125,-1.375 0.34375,-3.21875 v -0.796875 q 0,-1.96875 -0.26563,-3.5 -0.26562,-1.53125 -0.90625,-2.578125 -0.625,-1.046875 -1.6875,-1.578125 -1.04687,-0.546875 -2.625,-0.546875 -2.64062,0 -3.89062,2.140625 -1.23438,2.125 -1.23438,6.109375 0,4.078125 1.23438,6.078125 1.25,2 3.92187,2 z m 26.92188,-26 -10.625,28.5625 h -3.5 l 10.64062,-28.5625 z m 7.92187,28.5625 h -3.625 v -28.5625 h 14.82813 v 3.203125 h -11.20313 v 10.078125 h 10.45313 v 3.203125 h -10.45313 z m 19.08594,0 h -3.54688 V 58.491518 h 3.54688 z m 20.67969,0 -0.51563,-2.875 h -0.20312 q -0.48438,0.84375 -1.15625,1.46875 -0.67188,0.609375 -1.48438,1.015625 -0.79687,0.390625 -1.70312,0.578125 -0.89063,0.203125 -1.82813,0.203125 -1.78125,0 -3.125,-0.453125 -1.34375,-0.453125 -2.25,-1.40625 -0.89062,-0.953125 -1.35937,-2.4375 -0.45313,-1.484375 -0.45313,-3.53125 V 67.429018 h 3.5625 v 13.8125 q 0,2.546875 1.03125,3.8125 1.03125,1.265625 3.20313,1.265625 1.57812,0 2.65625,-0.5 1.07812,-0.515625 1.71875,-1.5 0.65625,-0.984375 0.9375,-2.421875 0.29687,-1.453125 0.29687,-3.328125 V 67.429018 h 3.54688 v 21.453125 z m 22.50781,-5.875 q 0,1.5625 -0.57813,2.734375 -0.5625,1.171875 -1.625,1.96875 -1.0625,0.78125 -2.5625,1.171875 -1.5,0.390625 -3.375,0.390625 -2.14062,0 -3.67187,-0.34375 -1.51563,-0.34375 -2.65625,-1 v -3.25 q 0.59375,0.3125 1.32812,0.625 0.75,0.296875 1.5625,0.53125 0.82813,0.234375 1.70313,0.390625 0.875,0.140625 1.73437,0.140625 1.26563,0 2.15625,-0.21875 0.89063,-0.21875 1.4375,-0.609375 0.5625,-0.40625 0.8125,-0.984375 0.25,-0.578125 0.25,-1.28125 0,-0.609375 -0.20312,-1.09375 -0.1875,-0.484375 -0.70313,-0.953125 -0.51562,-0.484375 -1.42187,-0.96875 -0.89063,-0.5 -2.29688,-1.109375 -1.40625,-0.59375 -2.53125,-1.171875 -1.125,-0.59375 -1.90625,-1.3125 -0.78125,-0.734375 -1.20312,-1.671875 -0.40625,-0.953125 -0.40625,-2.265625 0,-1.359375 0.53125,-2.421875 0.53125,-1.078125 1.5,-1.796875 0.98437,-0.71875 2.34375,-1.09375 1.375,-0.375 3.0625,-0.375 1.89062,0 3.45312,0.421875 1.57813,0.40625 2.98438,1.0625 l -1.21875,2.875 q -1.28125,-0.5625 -2.625,-0.984375 -1.32813,-0.421875 -2.71875,-0.421875 -1.98438,0 -2.95313,0.65625 -0.95312,0.65625 -0.95312,1.859375 0,0.6875 0.21875,1.203125 0.23437,0.5 0.78125,0.953125 0.54687,0.453125 1.46875,0.90625 0.92187,0.453125 2.28125,1.03125 1.40625,0.578125 2.5,1.171875 1.10937,0.578125 1.89062,1.3125 0.78125,0.734375 1.1875,1.671875 0.42188,0.9375 0.42188,2.25 z m 18.60937,5.875 v -13.8125 q 0,-2.53125 -1.03125,-3.796875 -1.01562,-1.28125 -3.20312,-1.28125 -1.57813,0 -2.65625,0.515625 -1.07813,0.5 -1.73438,1.5 -0.65625,1 -0.9375,2.453125 -0.28125,1.4375 -0.28125,3.3125 v 11.109375 h -3.54687 V 58.491518 h 3.54687 v 9.015625 l -0.15625,2.8125 h 0.20313 q 0.48437,-0.828125 1.15625,-1.4375 0.67187,-0.625 1.46875,-1.03125 0.8125,-0.421875 1.70312,-0.609375 0.90625,-0.203125 1.84375,-0.203125 3.5625,0 5.375,1.875 1.8125,1.859375 1.8125,5.96875 v 14 z"
       fill-rule="nonzero"
       id="path61" />
    <path
       fill="#000000"
       d="m 239.34393,136.88214 -3.28125,-12.03125 q -0.0781,-0.35938 -0.20313,-0.79688 -0.10937,-0.4375 -0.23437,-0.92187 -0.10938,-0.48438 -0.23438,-0.98438 -0.125,-0.51562 -0.25,-1.01562 -0.26562,-1.125 -0.5625,-2.34375 h -0.10937 q -0.28125,1.23437 -0.53125,2.375 -0.21875,0.96875 -0.46875,2.01562 -0.23438,1.03125 -0.45313,1.75 l -3.35937,11.95313 h -4.125 l -5.48438,-21.45313 h 3.73438 l 2.5625,11.40625 q 0.1875,0.89063 0.375,1.92188 0.20312,1.01562 0.375,2.03125 0.1875,1 0.3125,1.89062 0.14062,0.875 0.21875,1.45313 h 0.125 q 0.0937,-0.51563 0.25,-1.35938 0.17187,-0.85937 0.375,-1.79687 0.20312,-0.95313 0.42187,-1.875 0.21875,-0.9375 0.40625,-1.57813 l 3.5,-12.09375 h 3.82813 l 3.35937,12.09375 q 0.17188,0.67188 0.39063,1.57813 0.23437,0.89062 0.45312,1.8125 0.21875,0.92187 0.39063,1.78125 0.17187,0.85937 0.25,1.4375 h 0.125 q 0.0469,-0.51563 0.17187,-1.35938 0.14063,-0.85937 0.3125,-1.875 0.17188,-1.01562 0.375,-2.07812 0.20313,-1.0625 0.42188,-1.98438 l 2.67187,-11.40625 h 3.64063 l -5.54688,21.45313 z m 17.10937,0 h -3.54687 v -21.45313 h 3.54687 z m -3.82812,-27.25 q 0,-1.17187 0.59375,-1.6875 0.59375,-0.53125 1.48437,-0.53125 0.42188,0 0.79688,0.125 0.39062,0.125 0.67187,0.40625 0.28125,0.26563 0.4375,0.6875 0.17188,0.42188 0.17188,1 0,1.14062 -0.60938,1.70312 -0.60937,0.54688 -1.46875,0.54688 -0.89062,0 -1.48437,-0.54688 -0.59375,-0.54687 -0.59375,-1.70312 z m 17.11719,24.73437 q 0.34375,0 0.78125,-0.0312 0.4375,-0.0469 0.84375,-0.10937 0.42187,-0.0625 0.76562,-0.14063 0.34375,-0.0781 0.51563,-0.14062 v 2.70312 q -0.25,0.10938 -0.64063,0.23438 -0.39062,0.125 -0.85937,0.20312 -0.46875,0.0938 -0.98438,0.14063 -0.5,0.0469 -1,0.0469 -1.20312,0 -2.25,-0.3125 -1.03125,-0.3125 -1.78125,-1.07812 -0.75,-0.76563 -1.1875,-2.0625 -0.42187,-1.29688 -0.42187,-3.26563 v -12.4375 h -3.03125 v -1.59375 l 3.03125,-1.51562 1.53125,-4.5 h 2.04687 v 4.92187 h 5.39063 v 2.6875 h -5.39063 v 12.4375 q 0,1.89063 0.60938,2.85938 0.625,0.95312 2.03125,0.95312 z m 20.46094,2.51563 v -13.8125 q 0,-2.53125 -1.03125,-3.79688 -1.01563,-1.28125 -3.20313,-1.28125 -1.57812,0 -2.65625,0.51563 -1.07812,0.5 -1.73437,1.5 -0.65625,1 -0.9375,2.45312 -0.28125,1.4375 -0.28125,3.3125 v 11.10938 h -3.54688 v -30.39062 h 3.54688 v 9.01562 l -0.15625,2.8125 h 0.20312 q 0.48438,-0.82813 1.15625,-1.4375 0.67188,-0.625 1.46875,-1.03125 0.8125,-0.42188 1.70313,-0.60938 0.90625,-0.20312 1.84375,-0.20312 3.5625,0 5.375,1.875 1.8125,1.85937 1.8125,5.96875 v 14 z m 29.35156,0 h -3.64063 v -25.35938 h -8.17187 v -3.20312 h 19.96875 v 3.20312 h -8.15625 z m 21.64062,0 -0.71875,-2.96875 h -0.15625 q -0.64062,0.875 -1.29687,1.51562 -0.64063,0.625 -1.40625,1.04688 -0.75,0.40625 -1.6875,0.59375 -0.9375,0.20312 -2.17188,0.20312 -1.34375,0 -2.48437,-0.39062 -1.125,-0.375 -1.95313,-1.15625 -0.82812,-0.79688 -1.29687,-2 -0.46875,-1.20313 -0.46875,-2.84375 0,-3.20313 2.25,-4.92188 2.25,-1.71875 6.85937,-1.875 l 3.59375,-0.14062 v -1.34375 q 0,-1.3125 -0.28125,-2.1875 -0.28125,-0.875 -0.82812,-1.40625 -0.53125,-0.54688 -1.32813,-0.78125 -0.78125,-0.23438 -1.79687,-0.23438 -1.625,0 -3.01563,0.46875 -1.39062,0.46875 -2.6875,1.14063 l -1.25,-2.6875 q 1.45313,-0.78125 3.21875,-1.32813 1.78125,-0.54687 3.73438,-0.54687 2,0 3.45312,0.40625 1.45313,0.40625 2.39063,1.28125 0.95312,0.85937 1.42187,2.20312 0.46875,1.34375 0.46875,3.26563 v 14.6875 z m -6.51562,-2.48438 q 1.1875,0 2.20312,-0.35937 1.01563,-0.375 1.75,-1.125 0.75,-0.76563 1.17188,-1.90625 0.42187,-1.14063 0.42187,-2.6875 v -1.92188 l -2.79687,0.125 q -1.75,0.0781 -2.95313,0.39063 -1.1875,0.3125 -1.90625,0.875 -0.70312,0.5625 -1.01562,1.35937 -0.3125,0.78125 -0.3125,1.78125 0,1.79688 0.9375,2.64063 0.95312,0.82812 2.5,0.82812 z m 23.87109,2.875 q -1.98437,0 -3.70312,-0.60937 -1.71875,-0.625 -2.98438,-1.95313 -1.26562,-1.34375 -2,-3.42187 -0.71875,-2.07813 -0.71875,-5.01563 0,-3.0625 0.73438,-5.20312 0.75,-2.14063 2.04687,-3.46875 1.3125,-1.34375 3.04688,-1.95313 1.73437,-0.60937 3.73437,-0.60937 1.51563,0 2.96875,0.34375 1.45313,0.32812 2.4375,0.8125 l -1.0625,3.01562 q -0.4375,-0.20312 -0.98437,-0.39062 -0.54688,-0.1875 -1.14063,-0.32813 -0.57812,-0.14062 -1.15625,-0.23437 -0.5625,-0.0937 -1.0625,-0.0937 -3.07812,0 -4.48437,1.96875 -1.40625,1.96875 -1.40625,6.10937 0,4.10938 1.42187,6.01563 1.42188,1.90625 4.3125,1.90625 1.57813,0 2.85938,-0.35938 1.28125,-0.35937 2.32812,-0.84375 v 3.15625 q -1.04687,0.5625 -2.25,0.85938 -1.20312,0.29687 -2.9375,0.29687 z m 16.79688,-2.90625 q 0.34375,0 0.78125,-0.0312 0.4375,-0.0469 0.84375,-0.10937 0.42187,-0.0625 0.76562,-0.14063 0.34375,-0.0781 0.51563,-0.14062 v 2.70312 q -0.25,0.10938 -0.64063,0.23438 -0.39062,0.125 -0.85937,0.20312 -0.46875,0.0938 -0.98438,0.14063 -0.5,0.0469 -1,0.0469 -1.20312,0 -2.25,-0.3125 -1.03125,-0.3125 -1.78125,-1.07812 -0.75,-0.76563 -1.1875,-2.0625 -0.42187,-1.29688 -0.42187,-3.26563 v -12.4375 h -3.03125 v -1.59375 l 3.03125,-1.51562 1.53125,-4.5 h 2.04687 v 4.92187 h 5.39063 v 2.6875 h -5.39063 v 12.4375 q 0,1.89063 0.60938,2.85938 0.625,0.95312 2.03125,0.95312 z m 10.61718,2.51563 h -3.54687 v -21.45313 h 3.54687 z m -3.82812,-27.25 q 0,-1.17187 0.59375,-1.6875 0.59375,-0.53125 1.48437,-0.53125 0.42188,0 0.79688,0.125 0.39062,0.125 0.67187,0.40625 0.28125,0.26563 0.4375,0.6875 0.17188,0.42188 0.17188,1 0,1.14062 -0.60938,1.70312 -0.60937,0.54688 -1.46875,0.54688 -0.89062,0 -1.48437,-0.54688 -0.59375,-0.54687 -0.59375,-1.70312 z m 14.17969,27.25 h -3.54688 v -30.39062 h 3.54688 z m 15.27343,0.39062 q -2.14062,0 -3.92187,-0.71875 -1.78125,-0.73437 -3.0625,-2.10937 -1.28125,-1.39063 -1.98438,-3.4375 -0.70312,-2.0625 -0.70312,-4.6875 0,-2.65625 0.64062,-4.75 0.65625,-2.09375 1.82813,-3.54688 1.17187,-1.45312 2.79687,-2.21875 1.64063,-0.76562 3.60938,-0.76562 1.9375,0 3.46875,0.70312 1.54687,0.6875 2.625,1.95313 1.07812,1.25 1.64062,3.03125 0.57813,1.76562 0.57813,3.90625 v 2.20312 h -13.51563 q 0.10938,3.78125 1.59375,5.5625 1.5,1.76563 4.45313,1.76563 0.98437,0 1.82812,-0.0937 0.85938,-0.0937 1.64063,-0.28125 0.79687,-0.1875 1.53125,-0.46875 0.75,-0.28125 1.51562,-0.64063 v 3.17188 q -0.78125,0.35937 -1.53125,0.64062 -0.75,0.26563 -1.54687,0.4375 -0.78125,0.1875 -1.64063,0.26563 -0.84375,0.0781 -1.84375,0.0781 z m -0.875,-19.28125 q -2.23437,0 -3.53125,1.53125 -1.29687,1.51563 -1.51562,4.42188 h 9.60937 q 0,-1.32813 -0.26562,-2.42188 -0.25,-1.10937 -0.8125,-1.89062 -0.5625,-0.78125 -1.42188,-1.20313 -0.85937,-0.4375 -2.0625,-0.4375 z m 41.79688,-1.3125 q 0,1.78125 -0.54688,3.42188 -0.53125,1.64062 -1.76562,2.90625 -1.21875,1.25 -3.25,2.01562 -2.01563,0.75 -4.98438,0.75 h -2.9375 v 11.10938 h -3.625 v -28.5625 h 7.0625 q 2.625,0 4.51563,0.5625 1.89062,0.5625 3.125,1.625 1.23437,1.0625 1.8125,2.625 0.59375,1.5625 0.59375,3.54687 z m -13.48438,6 h 2.53125 q 1.8125,0 3.17188,-0.3125 1.35937,-0.3125 2.23437,-1 0.89063,-0.70312 1.34375,-1.79687 0.45313,-1.10938 0.45313,-2.6875 0,-2.78125 -1.60938,-4.10938 -1.59375,-1.34375 -5,-1.34375 h -3.125 z m 31.01563,14.20313 -0.71875,-2.96875 h -0.15625 q -0.64063,0.875 -1.29688,1.51562 -0.64062,0.625 -1.40625,1.04688 -0.75,0.40625 -1.6875,0.59375 -0.9375,0.20312 -2.17187,0.20312 -1.34375,0 -2.48438,-0.39062 -1.125,-0.375 -1.95312,-1.15625 -0.82813,-0.79688 -1.29688,-2 -0.46875,-1.20313 -0.46875,-2.84375 0,-3.20313 2.25,-4.92188 2.25,-1.71875 6.85938,-1.875 l 3.59375,-0.14062 v -1.34375 q 0,-1.3125 -0.28125,-2.1875 -0.28125,-0.875 -0.82813,-1.40625 -0.53125,-0.54688 -1.32812,-0.78125 -0.78125,-0.23438 -1.79688,-0.23438 -1.625,0 -3.01562,0.46875 -1.39063,0.46875 -2.6875,1.14063 l -1.25,-2.6875 q 1.45312,-0.78125 3.21875,-1.32813 1.78125,-0.54687 3.73437,-0.54687 2,0 3.45313,0.40625 1.45312,0.40625 2.39062,1.28125 0.95313,0.85937 1.42188,2.20312 0.46875,1.34375 0.46875,3.26563 v 14.6875 z m -6.51563,-2.48438 q 1.1875,0 2.20313,-0.35937 1.01562,-0.375 1.75,-1.125 0.75,-0.76563 1.17187,-1.90625 0.42188,-1.14063 0.42188,-2.6875 v -1.92188 l -2.79688,0.125 q -1.75,0.0781 -2.95312,0.39063 -1.1875,0.3125 -1.90625,0.875 -0.70313,0.5625 -1.01563,1.35937 -0.3125,0.78125 -0.3125,1.78125 0,1.79688 0.9375,2.64063 0.95313,0.82812 2.5,0.82812 z m 19.58985,2.48438 -7.32813,-21.45313 h 3.67188 l 3.89062,11.9375 q 0.21875,0.64063 0.5,1.65625 0.29688,1.01563 0.59375,2.07813 0.29688,1.04687 0.53125,1.98437 0.25,0.9375 0.32813,1.4375 h 0.14062 q 0.0937,-0.5 0.32813,-1.4375 0.23437,-0.9375 0.51562,-1.98437 0.29688,-1.0625 0.59375,-2.07813 0.29688,-1.01562 0.51563,-1.65625 l 3.875,-11.9375 h 3.67187 l -7.3125,21.45313 z m 18.78515,0 h -3.54687 v -21.45313 h 3.54687 z m -3.82812,-27.25 q 0,-1.17187 0.59375,-1.6875 0.59375,-0.53125 1.48437,-0.53125 0.42188,0 0.79688,0.125 0.39062,0.125 0.67187,0.40625 0.28125,0.26563 0.4375,0.6875 0.17188,0.42188 0.17188,1 0,1.14062 -0.60938,1.70312 -0.60937,0.54688 -1.46875,0.54688 -0.89062,0 -1.48437,-0.54688 -0.59375,-0.54687 -0.59375,-1.70312 z m 24.02344,27.25 v -13.8125 q 0,-2.53125 -1.03125,-3.79688 -1.01563,-1.28125 -3.20313,-1.28125 -1.57812,0 -2.65625,0.51563 -1.07812,0.5 -1.73437,1.5 -0.65625,1 -0.9375,2.45312 -0.28125,1.4375 -0.28125,3.3125 v 11.10938 h -3.54688 v -21.45313 h 2.89063 l 0.5,2.89063 h 0.20312 q 0.48438,-0.82813 1.15625,-1.4375 0.67188,-0.625 1.46875,-1.03125 0.8125,-0.42188 1.70313,-0.60938 0.90625,-0.20312 1.84375,-0.20312 3.5625,0 5.375,1.875 1.8125,1.85937 1.8125,5.96875 v 14 z m 26.67969,-21.45313 v 2.21875 l -3.84375,0.51563 q 0.54687,0.6875 0.90625,1.75 0.375,1.0625 0.375,2.42187 0,1.48438 -0.45313,2.75 -0.45312,1.25 -1.39062,2.17188 -0.92188,0.90625 -2.29688,1.4375 -1.35937,0.51562 -3.17187,0.51562 -0.4375,0 -0.875,-0.0156 -0.42188,-0.0156 -0.6875,-0.0625 -0.34375,0.1875 -0.67188,0.4375 -0.3125,0.23437 -0.57812,0.54687 -0.26563,0.3125 -0.4375,0.70313 -0.15625,0.39062 -0.15625,0.85937 0,0.53125 0.23437,0.85938 0.23438,0.3125 0.625,0.5 0.40625,0.17187 0.95313,0.23437 0.54687,0.0469 1.15625,0.0469 h 3.4375 q 1.8125,0 3.0625,0.46875 1.25,0.45312 2.04687,1.23437 0.79688,0.78125 1.14063,1.85938 0.35937,1.0625 0.35937,2.25 0,1.71875 -0.64062,3.07812 -0.64063,1.375 -1.95313,2.3125 -1.29687,0.95313 -3.29687,1.45313 -2,0.51562 -4.71875,0.51562 -2.09375,0 -3.65625,-0.40625 -1.5625,-0.40625 -2.59375,-1.1875 -1.03125,-0.78125 -1.5625,-1.89062 -0.51563,-1.10938 -0.51563,-2.48438 0,-1.17187 0.375,-2.0625 0.39063,-0.89062 1.03125,-1.54687 0.65625,-0.64063 1.5,-1.04688 0.84375,-0.40625 1.76563,-0.625 -0.8125,-0.375 -1.34375,-1.17187 -0.53125,-0.79688 -0.53125,-1.84375 0,-1.1875 0.625,-2.04688 0.625,-0.875 1.96875,-1.70312 -0.82813,-0.34375 -1.53125,-0.95313 -0.6875,-0.625 -1.17188,-1.40625 -0.46875,-0.79687 -0.73437,-1.73437 -0.26563,-0.9375 -0.26563,-1.9375 0,-1.73438 0.48438,-3.09375 0.48437,-1.375 1.4375,-2.32813 0.96875,-0.96875 2.39062,-1.46875 1.42188,-0.51562 3.32813,-0.51562 0.71875,0 1.48437,0.10937 0.78125,0.10938 1.29688,0.28125 z m -15.84375,24.96875 q 0,0.71875 0.25,1.34375 0.26562,0.625 0.84375,1.07813 0.57812,0.45312 1.51562,0.71875 0.95313,0.26562 2.35938,0.26562 3.625,0 5.4375,-1.125 1.8125,-1.125 1.8125,-3.23437 0,-0.90625 -0.23438,-1.46875 -0.23437,-0.5625 -0.78125,-0.89063 -0.53125,-0.32812 -1.42187,-0.4375 -0.875,-0.125 -2.14063,-0.125 h -3.4375 q -0.6875,0 -1.4375,0.15625 -0.73437,0.15625 -1.34375,0.59375 -0.60937,0.4375 -1.01562,1.1875 -0.40625,0.75 -0.40625,1.9375 z m 1.79687,-18.0625 q 0,2.23438 1.04688,3.32813 1.0625,1.09375 3,1.09375 1.95312,0 2.95312,-1.07813 1.01563,-1.07812 1.01563,-3.40625 0,-2.40625 -1.03125,-3.53125 -1.01563,-1.14062 -2.96875,-1.14062 -1.9375,0 -2.98438,1.17187 -1.03125,1.17188 -1.03125,3.5625 z"
       fill-rule="nonzero"
       id="path63" />
    <path
       fill="#000000"
       fill-opacity="0"
       d="M 210.65643,477.97213 H 615.1289 v 83.68503 H 210.65643 Z"
       fill-rule="evenodd"
       id="path65" />
    <path
       fill="#000000"
       d="m 227.17205,522.4178 v 11.79687 h -3.625 v -28.5625 h 6.95312 q 5.1875,0 7.67188,2.01563 2.48437,2.01562 2.48437,6.09375 0,1.70312 -0.48437,2.96875 -0.46875,1.26562 -1.26563,2.1875 -0.79687,0.90625 -1.8125,1.51562 -1.01562,0.59375 -2.07812,0.98438 l 7.76562,12.79687 h -4.28125 l -6.84375,-11.79687 z m 0,-3.09375 h 3.20312 q 1.76563,0 2.98438,-0.32813 1.23437,-0.34375 2.03125,-1.01562 0.79687,-0.6875 1.15625,-1.6875 0.35937,-1 0.35937,-2.35938 0,-1.40625 -0.40625,-2.375 -0.39062,-0.98437 -1.20312,-1.60937 -0.8125,-0.625 -2.0625,-0.90625 -1.23438,-0.28125 -2.9375,-0.28125 h -3.125 z m 31.5625,14.89062 -0.71875,-2.96875 h -0.15625 q -0.64063,0.875 -1.29688,1.51563 -0.64062,0.625 -1.40625,1.04687 -0.75,0.40625 -1.6875,0.59375 -0.9375,0.20313 -2.17187,0.20313 -1.34375,0 -2.48438,-0.39063 -1.125,-0.375 -1.95312,-1.15625 -0.82813,-0.79687 -1.29688,-2 -0.46875,-1.20312 -0.46875,-2.84375 0,-3.20312 2.25,-4.92187 2.25,-1.71875 6.85938,-1.875 l 3.59375,-0.14063 v -1.34375 q 0,-1.3125 -0.28125,-2.1875 -0.28125,-0.875 -0.82813,-1.40625 -0.53125,-0.54687 -1.32812,-0.78125 -0.78125,-0.23437 -1.79688,-0.23437 -1.625,0 -3.01562,0.46875 -1.39063,0.46875 -2.6875,1.14062 l -1.25,-2.6875 q 1.45312,-0.78125 3.21875,-1.32812 1.78125,-0.54688 3.73437,-0.54688 2,0 3.45313,0.40625 1.45312,0.40625 2.39062,1.28125 0.95313,0.85938 1.42188,2.20313 0.46875,1.34375 0.46875,3.26562 v 14.6875 z m -6.51563,-2.48437 q 1.1875,0 2.20313,-0.35938 1.01562,-0.375 1.75,-1.125 0.75,-0.76562 1.17187,-1.90625 0.42188,-1.14062 0.42188,-2.6875 v -1.92187 l -2.79688,0.125 q -1.75,0.0781 -2.95312,0.39062 -1.1875,0.3125 -1.90625,0.875 -0.70313,0.5625 -1.01563,1.35938 -0.3125,0.78125 -0.3125,1.78125 0,1.79687 0.9375,2.64062 0.95313,0.82813 2.5,0.82813 z m 19.21485,2.48437 h -3.54688 v -21.45312 h 3.54688 z m -3.82813,-27.25 q 0,-1.17187 0.59375,-1.6875 0.59375,-0.53125 1.48438,-0.53125 0.42187,0 0.79687,0.125 0.39063,0.125 0.67188,0.40625 0.28125,0.26563 0.4375,0.6875 0.17187,0.42188 0.17187,1 0,1.14063 -0.60937,1.70313 -0.60938,0.54687 -1.46875,0.54687 -0.89063,0 -1.48438,-0.54687 -0.59375,-0.54688 -0.59375,-1.70313 z m 23.46094,21.375 q 0,1.5625 -0.57812,2.73438 -0.5625,1.17187 -1.625,1.96875 -1.0625,0.78125 -2.5625,1.17187 -1.5,0.39063 -3.375,0.39063 -2.14063,0 -3.67188,-0.34375 -1.51562,-0.34375 -2.65625,-1 v -3.25 q 0.59375,0.3125 1.32813,0.625 0.75,0.29687 1.5625,0.53125 0.82812,0.23437 1.70312,0.39062 0.875,0.14063 1.73438,0.14063 1.26562,0 2.15625,-0.21875 0.89062,-0.21875 1.4375,-0.60938 0.5625,-0.40625 0.8125,-0.98437 0.25,-0.57813 0.25,-1.28125 0,-0.60938 -0.20313,-1.09375 -0.1875,-0.48438 -0.70312,-0.95313 -0.51563,-0.48437 -1.42188,-0.96875 -0.89062,-0.5 -2.29687,-1.10937 -1.40625,-0.59375 -2.53125,-1.17188 -1.125,-0.59375 -1.90625,-1.3125 -0.78125,-0.73437 -1.20313,-1.67187 -0.40625,-0.95313 -0.40625,-2.26563 0,-1.35937 0.53125,-2.42187 0.53125,-1.07813 1.5,-1.79688 0.98438,-0.71875 2.34375,-1.09375 1.375,-0.375 3.0625,-0.375 1.89063,0 3.45313,0.42188 1.57812,0.40625 2.98437,1.0625 l -1.21875,2.875 q -1.28125,-0.5625 -2.625,-0.98438 -1.32812,-0.42187 -2.71875,-0.42187 -1.98437,0 -2.95312,0.65625 -0.95313,0.65625 -0.95313,1.85937 0,0.6875 0.21875,1.20313 0.23438,0.5 0.78125,0.95312 0.54688,0.45313 1.46875,0.90625 0.92188,0.45313 2.28125,1.03125 1.40625,0.57813 2.5,1.17188 1.10938,0.57812 1.89063,1.3125 0.78125,0.73437 1.1875,1.67187 0.42187,0.9375 0.42187,2.25 z m 13.6875,6.26563 q -2.14062,0 -3.92187,-0.71875 -1.78125,-0.73438 -3.0625,-2.10938 -1.28125,-1.39062 -1.98438,-3.4375 -0.70312,-2.0625 -0.70312,-4.6875 0,-2.65625 0.64062,-4.75 0.65625,-2.09375 1.82813,-3.54687 1.17187,-1.45313 2.79687,-2.21875 1.64063,-0.76563 3.60938,-0.76563 1.9375,0 3.46875,0.70313 1.54687,0.6875 2.625,1.95312 1.07812,1.25 1.64062,3.03125 0.57813,1.76563 0.57813,3.90625 v 2.20313 h -13.51563 q 0.10938,3.78125 1.59375,5.5625 1.5,1.76562 4.45313,1.76562 0.98437,0 1.82812,-0.0937 0.85938,-0.0937 1.64063,-0.28125 0.79687,-0.1875 1.53125,-0.46875 0.75,-0.28125 1.51562,-0.64062 v 3.17187 q -0.78125,0.35938 -1.53125,0.64063 -0.75,0.26562 -1.54687,0.4375 -0.78125,0.1875 -1.64063,0.26562 -0.84375,0.0781 -1.84375,0.0781 z m -0.875,-19.28125 q -2.23437,0 -3.53125,1.53125 -1.29687,1.51562 -1.51562,4.42187 h 9.60937 q 0,-1.32812 -0.26562,-2.42187 -0.25,-1.10938 -0.8125,-1.89063 -0.5625,-0.78125 -1.42188,-1.20312 -0.85937,-0.4375 -2.0625,-0.4375 z m 27.04688,16.01562 h -0.15625 q -0.42188,0.67188 -1,1.26563 -0.57813,0.59375 -1.32813,1.04687 -0.75,0.4375 -1.6875,0.6875 -0.9375,0.26563 -2.10937,0.26563 -1.82813,0 -3.32813,-0.70313 -1.5,-0.70312 -2.57812,-2.09375 -1.07813,-1.40625 -1.67188,-3.46875 -0.57812,-2.07812 -0.57812,-4.8125 0,-2.75 0.57812,-4.82812 0.59375,-2.07813 1.67188,-3.48438 1.07812,-1.40625 2.57812,-2.125 1.5,-0.71875 3.32813,-0.71875 1.14062,0 2.07812,0.26563 0.9375,0.25 1.6875,0.6875 0.76563,0.42187 1.34375,0.98437 0.59375,0.5625 1.01563,1.1875 h 0.23437 q -0.0625,-0.65625 -0.10937,-1.26562 -0.0469,-0.5 -0.0937,-1.03125 -0.0312,-0.54688 -0.0312,-0.85938 v -8.51562 h 3.5625 v 30.39062 h -2.875 z m -5.60938,0.3125 q 1.48438,0 2.51563,-0.4375 1.03125,-0.45312 1.65625,-1.375 0.64062,-0.92187 0.9375,-2.29687 0.3125,-1.375 0.34375,-3.21875 v -0.79688 q 0,-1.96875 -0.26563,-3.5 -0.26562,-1.53125 -0.90625,-2.57812 -0.625,-1.04688 -1.6875,-1.57813 -1.04687,-0.54687 -2.625,-0.54687 -2.64062,0 -3.89062,2.14062 -1.23438,2.125 -1.23438,6.10938 0,4.07812 1.23438,6.07812 1.25,2 3.92187,2 z m 37.3125,-26 -10.625,28.5625 h -3.5 l 10.64063,-28.5625 z m 16.28125,20.46875 v -0.71875 q 0,-1.10937 0.14063,-2 0.15625,-0.90625 0.53125,-1.6875 0.39062,-0.78125 1.03125,-1.53125 0.64062,-0.75 1.625,-1.57812 0.9375,-0.79688 1.59375,-1.45313 0.67187,-0.65625 1.09375,-1.32812 0.42187,-0.67188 0.625,-1.4375 0.20312,-0.78125 0.20312,-1.8125 0,-0.9375 -0.29687,-1.70313 -0.29688,-0.78125 -0.85938,-1.32812 -0.54687,-0.5625 -1.375,-0.85938 -0.82812,-0.3125 -1.92187,-0.3125 -1.625,0 -3.09375,0.51563 -1.45313,0.5 -2.82813,1.17187 l -1.23437,-2.84375 q 1.59375,-0.8125 3.42187,-1.39062 1.84375,-0.57813 3.73438,-0.57813 1.8125,0 3.26562,0.5 1.45313,0.5 2.46875,1.4375 1.01563,0.9375 1.5625,2.29688 0.54688,1.35937 0.54688,3.04687 0,1.3125 -0.26563,2.34375 -0.25,1.01563 -0.78125,1.90625 -0.53125,0.875 -1.3125,1.70313 -0.78125,0.8125 -1.82812,1.73437 -1.01563,0.875 -1.67188,1.53125 -0.64062,0.65625 -1.01562,1.26563 -0.35938,0.60937 -0.5,1.26562 -0.14063,0.64063 -0.14063,1.5 v 0.34375 z m -0.9375,5.92188 q 0,-0.73438 0.1875,-1.25 0.20313,-0.53125 0.53125,-0.84375 0.34375,-0.32813 0.78125,-0.46875 0.45313,-0.15625 0.98438,-0.15625 0.51562,0 0.96875,0.15625 0.45312,0.14062 0.78125,0.46875 0.34375,0.3125 0.53125,0.84375 0.20312,0.51562 0.20312,1.25 0,0.71875 -0.20312,1.25 -0.1875,0.51562 -0.53125,0.84375 -0.32813,0.32812 -0.78125,0.48437 -0.45313,0.15625 -0.96875,0.15625 -0.53125,0 -0.98438,-0.15625 -0.4375,-0.15625 -0.78125,-0.48437 -0.32812,-0.32813 -0.53125,-0.84375 -0.1875,-0.53125 -0.1875,-1.25 z"
       fill-rule="nonzero"
       id="path67" />
  </g>
</svg>
