<?xml version="1.0" encoding="UTF-8" standalone="no"?>
<svg
   version="1.1"
   viewBox="0.0 0.0 600.0 600.0"
   fill="none"
   stroke="none"
   stroke-linecap="square"
   stroke-miterlimit="10"
   id="svg83"
   sodipodi:docname="sw_smoothness_leg.svg"
   inkscape:version="1.2 (56b05e47e7, 2022-06-09, custom)"
   inkscape:export-filename="../9f01358e/sw_leg_smoothness_content.png"
   inkscape:export-xdpi="100"
   inkscape:export-ydpi="100"
   xmlns:inkscape="http://www.inkscape.org/namespaces/inkscape"
   xmlns:sodipodi="http://sodipodi.sourceforge.net/DTD/sodipodi-0.dtd"
   xmlns="http://www.w3.org/2000/svg"
   xmlns:svg="http://www.w3.org/2000/svg">
  <defs
     id="defs87" />
  <sodipodi:namedview
     id="namedview85"
     pagecolor="#ffffff"
     bordercolor="#666666"
     borderopacity="1.0"
     inkscape:showpageshadow="2"
     inkscape:pageopacity="1"
     inkscape:pagecheckerboard="0"
     inkscape:deskcolor="#d1d1d1"
     showgrid="false"
     inkscape:zoom="0.70833333"
     inkscape:cx="-191.29412"
     inkscape:cy="479.29412"
     inkscape:window-width="2514"
     inkscape:window-height="1016"
     inkscape:window-x="46"
     inkscape:window-y="27"
     inkscape:window-maximized="1"
     inkscape:current-layer="svg83" />
  <path
     fill="#2166ac"
     d="M 25.291311,97.97264 H 242.77163 v 23.93701 H 25.291311 Z"
     fill-rule="evenodd"
     id="path23" />
  <path
     stroke="#595959"
     stroke-width="1"
     stroke-linejoin="round"
     stroke-linecap="butt"
     d="M 25.291311,97.97264 H 242.77163 v 23.93701 H 25.291311 Z"
     fill-rule="evenodd"
     id="path25" />
  <path
     fill="#92c5de"
     d="M 25.291311,160.65002 H 242.77163 v 23.93701 H 25.291311 Z"
     fill-rule="evenodd"
     id="path27" />
  <path
     stroke="#595959"
     stroke-width="1"
     stroke-linejoin="round"
     stroke-linecap="butt"
     d="M 25.291311,160.65002 H 242.77163 v 23.93701 H 25.291311 Z"
     fill-rule="evenodd"
     id="path29" />
  <path
     fill="#f7f7f7"
     d="M 25.291311,223.32741 H 242.77163 v 23.937 H 25.291311 Z"
     fill-rule="evenodd"
     id="path31" />
  <path
     stroke="#595959"
     stroke-width="1"
     stroke-linejoin="round"
     stroke-linecap="butt"
     d="M 25.291311,223.32741 H 242.77163 v 23.937 H 25.291311 Z"
     fill-rule="evenodd"
     id="path33" />
  <path
     fill="#b2182b"
     d="M 25.291311,350.70758 H 242.77163 v 23.93701 H 25.291311 Z"
     fill-rule="evenodd"
     id="path35" />
  <path
     stroke="#595959"
     stroke-width="1"
     stroke-linejoin="round"
     stroke-linecap="butt"
     d="M 25.291311,350.70758 H 242.77163 v 23.93701 H 25.291311 Z"
     fill-rule="evenodd"
     id="path37" />
  <path
     fill="#67001f"
     d="M 25.291311,413.38498 H 242.77163 v 23.93701 H 25.291311 Z"
     fill-rule="evenodd"
     id="path39" />
  <path
     stroke="#595959"
     stroke-width="1"
     stroke-linejoin="round"
     stroke-linecap="butt"
     d="M 25.291311,413.38498 H 242.77163 v 23.93701 H 25.291311 Z"
     fill-rule="evenodd"
     id="path41" />
  <path
     fill="#434343"
     d="M 25.291311,480.13083 H 242.77163 v 23.93701 H 25.291311 Z"
     fill-rule="evenodd"
     id="path43" />
  <path
     stroke="#595959"
     stroke-width="1"
     stroke-linejoin="round"
     stroke-linecap="butt"
     d="M 25.291311,480.13083 H 242.77163 v 23.93701 H 25.291311 Z"
     fill-rule="evenodd"
     id="path45" />
  <path
     fill="#000000"
     fill-opacity="0"
     d="M 283.03677,78.608925 H 595.63519 V 143.30183 H 283.03677 Z"
     fill-rule="evenodd"
     id="path47" />
  <path
     fill="#000000"
     d="m 300.7399,121.79663 q -1.57813,0 -2.875,-0.51563 -1.29688,-0.53125 -2.23438,-1.54687 -0.9375,-1.03125 -1.45312,-2.53125 -0.51563,-1.5 -0.51563,-3.4375 0,-1.9375 0.46875,-3.46875 0.46875,-1.54688 1.32813,-2.60938 0.85937,-1.0625 2.04687,-1.625 1.20313,-0.5625 2.65625,-0.5625 1.40625,0 2.53125,0.51563 1.14063,0.5 1.92188,1.4375 0.79687,0.92187 1.21875,2.21875 0.42187,1.29687 0.42187,2.85937 v 1.625 h -9.90625 q 0.0625,2.76563 1.15625,4.07813 1.10938,1.29687 3.26563,1.29687 0.73437,0 1.35937,-0.0781 0.625,-0.0781 1.20313,-0.20313 0.57812,-0.14062 1.10937,-0.34375 0.54688,-0.21875 1.10938,-0.46875 v 2.3125 q -0.5625,0.28125 -1.125,0.48438 -0.54688,0.20312 -1.125,0.32812 -0.57813,0.125 -1.20313,0.17188 -0.625,0.0625 -1.35937,0.0625 z m -0.64063,-14.125 q -1.625,0 -2.57812,1.125 -0.95313,1.10937 -1.10938,3.23437 h 7.03125 q 0,-0.96875 -0.1875,-1.78125 -0.1875,-0.8125 -0.60937,-1.375 -0.40625,-0.57812 -1.03125,-0.89062 -0.625,-0.3125 -1.51563,-0.3125 z m 13.47638,5.78125 -5.0625,-7.65625 h 2.96875 l 3.57813,5.85937 3.57812,-5.85937 h 2.96875 l -5.07812,7.65625 5.34375,8.0625 h -2.96875 l -3.84375,-6.25 -3.85938,6.25 h -2.96875 z m 17.32032,8.34375 q -1.4375,0 -2.70313,-0.4375 -1.25,-0.45313 -2.1875,-1.4375 -0.9375,-0.98438 -1.46875,-2.5 -0.51562,-1.53125 -0.51562,-3.6875 0,-2.25 0.53125,-3.8125 0.54687,-1.5625 1.5,-2.54688 0.95312,-0.98437 2.21875,-1.42187 1.28125,-0.45313 2.75,-0.45313 1.10937,0 2.17187,0.25 1.07813,0.25 1.79688,0.59375 l -0.78125,2.21875 q -0.32813,-0.15625 -0.73438,-0.28125 -0.39062,-0.14062 -0.82812,-0.25 -0.42188,-0.10937 -0.84375,-0.17187 -0.40625,-0.0625 -0.78125,-0.0625 -2.25,0 -3.28125,1.4375 -1.03125,1.4375 -1.03125,4.48437 0,3.01563 1.03125,4.42188 1.04687,1.39062 3.15625,1.39062 1.17187,0 2.10937,-0.26562 0.9375,-0.26563 1.70313,-0.625 v 2.3125 q -0.76563,0.42187 -1.65625,0.625 -0.875,0.21875 -2.15625,0.21875 z m 13.77883,0 q -1.57812,0 -2.875,-0.51563 -1.29687,-0.53125 -2.23437,-1.54687 -0.9375,-1.03125 -1.45313,-2.53125 -0.51562,-1.5 -0.51562,-3.4375 0,-1.9375 0.46875,-3.46875 0.46875,-1.54688 1.32812,-2.60938 0.85938,-1.0625 2.04688,-1.625 1.20312,-0.5625 2.65625,-0.5625 1.40625,0 2.53125,0.51563 1.14062,0.5 1.92187,1.4375 0.79688,0.92187 1.21875,2.21875 0.42188,1.29687 0.42188,2.85937 v 1.625 h -9.90625 q 0.0625,2.76563 1.15625,4.07813 1.10937,1.29687 3.26562,1.29687 0.73438,0 1.35938,-0.0781 0.625,-0.0781 1.20312,-0.20313 0.57813,-0.14062 1.10938,-0.34375 0.54687,-0.21875 1.10937,-0.46875 v 2.3125 q -0.5625,0.28125 -1.125,0.48438 -0.54687,0.20312 -1.125,0.32812 -0.57812,0.125 -1.20312,0.17188 -0.625,0.0625 -1.35938,0.0625 z m -0.64062,-14.125 q -1.625,0 -2.57813,1.125 -0.95312,1.10937 -1.10937,3.23437 h 7.03125 q 0,-0.96875 -0.1875,-1.78125 -0.1875,-0.8125 -0.60938,-1.375 -0.40625,-0.57812 -1.03125,-0.89062 -0.625,-0.3125 -1.51562,-0.3125 z m 12.72638,13.84375 h -2.60938 V 99.23413 h 2.60938 z m 7.58981,0 H 361.741 V 99.23413 h 2.60937 z m 11.19916,0.28125 q -1.57813,0 -2.875,-0.51563 -1.29688,-0.53125 -2.23438,-1.54687 -0.9375,-1.03125 -1.45312,-2.53125 -0.51563,-1.5 -0.51563,-3.4375 0,-1.9375 0.46875,-3.46875 0.46875,-1.54688 1.32813,-2.60938 0.85937,-1.0625 2.04687,-1.625 1.20313,-0.5625 2.65625,-0.5625 1.40625,0 2.53125,0.51563 1.14063,0.5 1.92188,1.4375 0.79687,0.92187 1.21875,2.21875 0.42187,1.29687 0.42187,2.85937 v 1.625 h -9.90625 q 0.0625,2.76563 1.15625,4.07813 1.10938,1.29687 3.26563,1.29687 0.73437,0 1.35937,-0.0781 0.625,-0.0781 1.20313,-0.20313 0.57812,-0.14062 1.10937,-0.34375 0.54688,-0.21875 1.10938,-0.46875 v 2.3125 q -0.5625,0.28125 -1.125,0.48438 -0.54688,0.20312 -1.125,0.32812 -0.57813,0.125 -1.20313,0.17188 -0.625,0.0625 -1.35937,0.0625 z m -0.64063,-14.125 q -1.625,0 -2.57812,1.125 -0.95313,1.10937 -1.10938,3.23437 h 7.03125 q 0,-0.96875 -0.1875,-1.78125 -0.1875,-0.8125 -0.60937,-1.375 -0.40625,-0.57812 -1.03125,-0.89062 -0.625,-0.3125 -1.51563,-0.3125 z m 19.94513,13.84375 v -10.125 q 0,-1.85938 -0.75,-2.78125 -0.75,-0.9375 -2.35937,-0.9375 -1.15625,0 -1.95313,0.375 -0.78125,0.35937 -1.26562,1.09375 -0.46875,0.73437 -0.6875,1.79687 -0.20313,1.0625 -0.20313,2.4375 v 8.14063 h -2.60937 v -15.71875 h 2.125 l 0.375,2.10937 h 0.14062 q 0.35938,-0.60937 0.84375,-1.0625 0.5,-0.45312 1.07813,-0.75 0.59375,-0.29687 1.25,-0.4375 0.67187,-0.15625 1.35937,-0.15625 2.60938,0 3.9375,1.375 1.32813,1.35938 1.32813,4.375 v 10.26563 z m 12.20789,-1.84375 q 0.25,0 0.5625,-0.0312 0.32813,-0.0312 0.625,-0.0625 0.3125,-0.0469 0.5625,-0.10938 0.25,-0.0625 0.375,-0.0937 v 1.96875 q -0.1875,0.0937 -0.46875,0.17188 -0.28125,0.0781 -0.625,0.14062 -0.34375,0.0781 -0.71875,0.10938 -0.375,0.0312 -0.73437,0.0312 -0.89063,0 -1.65625,-0.23438 -0.75,-0.21875 -1.29688,-0.76562 -0.54687,-0.5625 -0.875,-1.51563 -0.3125,-0.95312 -0.3125,-2.40625 v -9.125 h -2.21875 v -1.15625 l 2.21875,-1.10937 1.125,-3.29688 h 1.5 v 3.60938 h 3.95313 v 1.95312 h -3.95313 v 9.125 q 0,1.39063 0.45313,2.09375 0.45312,0.70313 1.48437,0.70313 z"
     fill-rule="nonzero"
     id="path49" />
  <path
     fill="#000000"
     fill-opacity="0"
     d="m 283.03677,141.2863 h 312.59842 v 64.69292 H 283.03677 Z"
     fill-rule="evenodd"
     id="path51" />
  <path
     fill="#000000"
     d="m 306.64615,168.47401 v 1.60937 l -2.82813,0.39063 q 0.40625,0.5 0.67188,1.28125 0.28125,0.78125 0.28125,1.76562 0,1.09375 -0.34375,2.01563 -0.32813,0.92187 -1.01563,1.59375 -0.67187,0.67187 -1.6875,1.0625 -1,0.375 -2.32812,0.375 -0.3125,0 -0.625,0 -0.3125,-0.0156 -0.51563,-0.0625 -0.25,0.14062 -0.48437,0.32812 -0.23438,0.17188 -0.4375,0.40625 -0.1875,0.23438 -0.3125,0.51563 -0.10938,0.28125 -0.10938,0.625 0,0.39062 0.17188,0.625 0.17187,0.23437 0.45312,0.375 0.29688,0.125 0.70313,0.17187 0.40625,0.0312 0.84375,0.0312 h 2.51562 q 1.32813,0 2.25,0.34375 0.92188,0.32813 1.5,0.90625 0.57813,0.57813 0.82813,1.35938 0.26562,0.76562 0.26562,1.64062 0,1.26563 -0.46875,2.26563 -0.46875,1 -1.42187,1.6875 -0.95313,0.70312 -2.42188,1.07812 -1.46875,0.375 -3.46875,0.375 -1.53125,0 -2.67187,-0.3125 -1.14063,-0.29687 -1.90625,-0.875 -0.76563,-0.5625 -1.14063,-1.375 -0.375,-0.79687 -0.375,-1.82812 0,-0.85938 0.28125,-1.51563 0.28125,-0.64062 0.75,-1.10937 0.46875,-0.46875 1.09375,-0.76563 0.625,-0.3125 1.29688,-0.46875 -0.60938,-0.26562 -1,-0.85937 -0.375,-0.59375 -0.375,-1.34375 0,-0.875 0.45312,-1.51563 0.46875,-0.64062 1.45313,-1.23437 -0.625,-0.26563 -1.14063,-0.70313 -0.5,-0.45312 -0.85937,-1.03125 -0.34375,-0.59375 -0.53125,-1.28125 -0.1875,-0.6875 -0.1875,-1.40625 0,-1.28125 0.35937,-2.28125 0.35938,-1 1.04688,-1.70312 0.70312,-0.70313 1.75,-1.07813 1.04687,-0.375 2.4375,-0.375 0.53125,0 1.09375,0.0781 0.5625,0.0781 0.95312,0.21875 z m -11.60938,18.29687 q 0,0.53125 0.17188,0.98438 0.1875,0.46875 0.60937,0.79687 0.42188,0.32813 1.10938,0.51563 0.70312,0.1875 1.73437,0.1875 2.67188,0 3.98438,-0.82813 1.32812,-0.8125 1.32812,-2.35937 0,-0.65625 -0.17187,-1.07813 -0.17188,-0.40625 -0.5625,-0.64062 -0.39063,-0.23438 -1.04688,-0.3125 -0.64062,-0.0937 -1.5625,-0.0937 h -2.51562 q -0.5,0 -1.04688,0.10937 -0.54687,0.10938 -1,0.42188 -0.45312,0.3125 -0.75,0.85937 -0.28125,0.5625 -0.28125,1.4375 z m 1.3125,-13.25 q 0,1.65625 0.76563,2.45313 0.78125,0.79687 2.20312,0.79687 1.42188,0 2.15625,-0.78125 0.75,-0.79687 0.75,-2.51562 0,-1.75 -0.76562,-2.57813 -0.75,-0.84375 -2.17188,-0.84375 -1.42187,0 -2.1875,0.85938 -0.75,0.85937 -0.75,2.60937 z m 26.19394,2.78125 q 0,1.96875 -0.48437,3.5 -0.48438,1.51563 -1.375,2.5625 -0.89063,1.03125 -2.17188,1.57813 -1.26562,0.53125 -2.85937,0.53125 -1.46875,0 -2.71875,-0.53125 -1.25,-0.54688 -2.15625,-1.57813 -0.90625,-1.04687 -1.42188,-2.5625 -0.5,-1.53125 -0.5,-3.5 0,-1.95312 0.46875,-3.45312 0.48438,-1.51563 1.375,-2.54688 0.89063,-1.04687 2.17188,-1.57812 1.28125,-0.54688 2.85937,-0.54688 1.48438,0 2.71875,0.54688 1.25,0.53125 2.15625,1.57812 0.92188,1.03125 1.42188,2.54688 0.51562,1.5 0.51562,3.45312 z m -11,0 q 0,3 0.96875,4.51563 0.98438,1.5 3.20313,1.5 2.20312,0 3.15625,-1.5 0.96875,-1.51563 0.96875,-4.51563 0,-3 -0.98438,-4.46875 -0.96875,-1.48437 -3.17187,-1.48437 -2.20313,0 -3.17188,1.48437 -0.96875,1.46875 -0.96875,4.46875 z m 27.92667,0 q 0,1.96875 -0.48437,3.5 -0.48438,1.51563 -1.375,2.5625 -0.89063,1.03125 -2.17188,1.57813 -1.26562,0.53125 -2.85937,0.53125 -1.46875,0 -2.71875,-0.53125 -1.25,-0.54688 -2.15625,-1.57813 -0.90625,-1.04687 -1.42188,-2.5625 -0.5,-1.53125 -0.5,-3.5 0,-1.95312 0.46875,-3.45312 0.48438,-1.51563 1.375,-2.54688 0.89063,-1.04687 2.17188,-1.57812 1.28125,-0.54688 2.85937,-0.54688 1.48438,0 2.71875,0.54688 1.25,0.53125 2.15625,1.57812 0.92188,1.03125 1.42188,2.54688 0.51562,1.5 0.51562,3.45312 z m -11,0 q 0,3 0.96875,4.51563 0.98438,1.5 3.20313,1.5 2.20312,0 3.15625,-1.5 0.96875,-1.51563 0.96875,-4.51563 0,-3 -0.98438,-4.46875 -0.96875,-1.48437 -3.17187,-1.48437 -2.20313,0 -3.17188,1.48437 -0.96875,1.46875 -0.96875,4.46875 z m 24.81732,5.78125 h -0.10937 q -0.32813,0.48438 -0.75,0.92188 -0.42188,0.4375 -0.96875,0.78125 -0.54688,0.32812 -1.23438,0.5 -0.6875,0.1875 -1.54687,0.1875 -1.32813,0 -2.4375,-0.51563 -1.10938,-0.51562 -1.89063,-1.53125 -0.78125,-1.03125 -1.21875,-2.54687 -0.42187,-1.51563 -0.42187,-3.51563 0,-2.03125 0.42187,-3.54687 0.4375,-1.53125 1.21875,-2.5625 0.78125,-1.03125 1.89063,-1.54688 1.10937,-0.53125 2.4375,-0.53125 0.84375,0 1.53125,0.1875 0.6875,0.1875 1.23437,0.51563 0.54688,0.3125 0.96875,0.73437 0.4375,0.40625 0.76563,0.85938 h 0.17187 q -0.0469,-0.48438 -0.0937,-0.9375 -0.0312,-0.35938 -0.0625,-0.75 -0.0156,-0.40625 -0.0156,-0.625 v -6.25 h 2.59375 v 22.28125 h -2.09375 z m -4.10937,0.23438 q 1.07812,0 1.82812,-0.32813 0.76563,-0.32812 1.21875,-1 0.46875,-0.67187 0.6875,-1.6875 0.23438,-1.01562 0.26563,-2.35937 v -0.57813 q 0,-1.45312 -0.20313,-2.57812 -0.1875,-1.125 -0.65625,-1.89063 -0.46875,-0.76562 -1.25,-1.15625 -0.76562,-0.39062 -1.92187,-0.39062 -1.9375,0 -2.84375,1.5625 -0.90625,1.5625 -0.90625,4.48437 0,2.98438 0.90625,4.45313 0.90625,1.46875 2.875,1.46875 z"
     fill-rule="nonzero"
     id="path53" />
  <path
     fill="#000000"
     fill-opacity="0"
     d="m 283.03677,203.96368 h 312.59842 v 64.6929 H 283.03677 Z"
     fill-rule="evenodd"
     id="path55" />
  <path
     fill="#000000"
     d="m 297.13052,246.87013 h -2.60938 v -15.71875 h 2.60938 z m -2.79688,-19.98438 q 0,-0.85937 0.4375,-1.23437 0.4375,-0.39063 1.07813,-0.39063 0.3125,0 0.59375,0.0937 0.28125,0.0937 0.48437,0.29688 0.20313,0.20312 0.32813,0.51562 0.125,0.29688 0.125,0.71875 0,0.84375 -0.45313,1.25 -0.45312,0.40625 -1.07812,0.40625 -0.64063,0 -1.07813,-0.39062 -0.4375,-0.40625 -0.4375,-1.26563 z m 17.60544,19.98438 v -10.125 q 0,-1.85938 -0.75,-2.78125 -0.75,-0.9375 -2.35937,-0.9375 -1.15625,0 -1.95313,0.375 -0.78125,0.35937 -1.26562,1.09375 -0.46875,0.73437 -0.6875,1.79687 -0.20313,1.0625 -0.20313,2.4375 v 8.14063 h -2.60937 v -15.71875 h 2.125 l 0.375,2.10937 h 0.14062 q 0.35938,-0.60937 0.84375,-1.0625 0.5,-0.45312 1.07813,-0.75 0.59375,-0.29687 1.25,-0.4375 0.67187,-0.15625 1.35937,-0.15625 2.60938,0 3.9375,1.375 1.32813,1.35938 1.32813,4.375 v 10.26563 z m 12.20786,-1.84375 q 0.25,0 0.5625,-0.0312 0.32812,-0.0312 0.625,-0.0625 0.3125,-0.0469 0.5625,-0.10938 0.25,-0.0625 0.375,-0.0937 v 1.96875 q -0.1875,0.0937 -0.46875,0.17188 -0.28125,0.0781 -0.625,0.14062 -0.34375,0.0781 -0.71875,0.10938 -0.375,0.0312 -0.73438,0.0312 -0.89062,0 -1.65625,-0.23438 -0.75,-0.21875 -1.29687,-0.76562 -0.54688,-0.5625 -0.875,-1.51563 -0.3125,-0.95312 -0.3125,-2.40625 v -9.125 h -2.21875 v -1.15625 l 2.21875,-1.10937 1.125,-3.29688 h 1.5 v 3.60938 h 3.95312 v 1.95312 h -3.95312 v 9.125 q 0,1.39063 0.45312,2.09375 0.45313,0.70313 1.48438,0.70313 z m 11.39148,2.125 q -1.57813,0 -2.875,-0.51563 -1.29688,-0.53125 -2.23438,-1.54687 -0.9375,-1.03125 -1.45312,-2.53125 -0.51563,-1.5 -0.51563,-3.4375 0,-1.9375 0.46875,-3.46875 0.46875,-1.54688 1.32813,-2.60938 0.85937,-1.0625 2.04687,-1.625 1.20313,-0.5625 2.65625,-0.5625 1.40625,0 2.53125,0.51563 1.14063,0.5 1.92188,1.4375 0.79687,0.92187 1.21875,2.21875 0.42187,1.29687 0.42187,2.85937 v 1.625 h -9.90625 q 0.0625,2.76563 1.15625,4.07813 1.10938,1.29687 3.26563,1.29687 0.73437,0 1.35937,-0.0781 0.625,-0.0781 1.20313,-0.20313 0.57812,-0.14062 1.10937,-0.34375 0.54688,-0.21875 1.10938,-0.46875 v 2.3125 q -0.5625,0.28125 -1.125,0.48438 -0.54688,0.20312 -1.125,0.32812 -0.57813,0.125 -1.20313,0.17188 -0.625,0.0625 -1.35937,0.0625 z m -0.64063,-14.125 q -1.625,0 -2.57812,1.125 -0.95313,1.10937 -1.10938,3.23437 h 7.03125 q 0,-0.96875 -0.1875,-1.78125 -0.1875,-0.8125 -0.60937,-1.375 -0.40625,-0.57812 -1.03125,-0.89062 -0.625,-0.3125 -1.51563,-0.3125 z m 16.92951,-2.17188 q 0.40625,0 0.92187,0.0469 0.51563,0.0312 0.89063,0.10937 l -0.34375,2.39063 q -0.39063,-0.0625 -0.82813,-0.10938 -0.42187,-0.0625 -0.78125,-0.0625 -0.90625,0 -1.65625,0.375 -0.73437,0.35938 -1.28125,1.04688 -0.53125,0.67187 -0.82812,1.625 -0.29688,0.95312 -0.29688,2.10937 v 8.48438 H 345.0148 V 231.1514 h 2.125 l 0.3125,2.875 h 0.125 q 0.35937,-0.625 0.76562,-1.1875 0.40625,-0.57813 0.90625,-1.01563 0.51563,-0.4375 1.14063,-0.70312 0.625,-0.26563 1.4375,-0.26563 z m 23.73098,16.01563 v -10.125 q 0,-1.85938 -0.71875,-2.78125 -0.71875,-0.9375 -2.21875,-0.9375 -1.04687,0 -1.78125,0.34375 -0.73437,0.32812 -1.20312,0.98437 -0.45313,0.64063 -0.67188,1.60938 -0.21875,0.96875 -0.21875,2.23437 v 8.67188 h -2.60937 v -10.125 q 0,-1.85938 -0.71875,-2.78125 -0.70313,-0.9375 -2.20313,-0.9375 -1.10937,0 -1.85937,0.375 -0.73438,0.35937 -1.1875,1.09375 -0.45313,0.73437 -0.65625,1.79687 -0.1875,1.0625 -0.1875,2.4375 v 8.14063 h -2.60938 v -15.71875 h 2.125 l 0.375,2.10937 h 0.14063 q 0.34375,-0.60937 0.8125,-1.0625 0.48437,-0.45312 1.04687,-0.75 0.5625,-0.29687 1.20313,-0.4375 0.64062,-0.15625 1.29687,-0.15625 1.71875,0 2.84375,0.64063 1.14063,0.625 1.6875,1.96875 h 0.125 q 0.35938,-0.67188 0.875,-1.15625 0.53125,-0.48438 1.15625,-0.79688 0.625,-0.32812 1.3125,-0.48437 0.6875,-0.17188 1.40625,-0.17188 2.5,0 3.76563,1.375 1.26562,1.35938 1.26562,4.375 v 10.26563 z m 13.6529,0.28125 q -1.57813,0 -2.875,-0.51563 -1.29688,-0.53125 -2.23438,-1.54687 -0.9375,-1.03125 -1.45312,-2.53125 -0.51563,-1.5 -0.51563,-3.4375 0,-1.9375 0.46875,-3.46875 0.46875,-1.54688 1.32813,-2.60938 0.85937,-1.0625 2.04687,-1.625 1.20313,-0.5625 2.65625,-0.5625 1.40625,0 2.53125,0.51563 1.14063,0.5 1.92188,1.4375 0.79687,0.92187 1.21875,2.21875 0.42187,1.29687 0.42187,2.85937 v 1.625 h -9.90625 q 0.0625,2.76563 1.15625,4.07813 1.10938,1.29687 3.26563,1.29687 0.73437,0 1.35937,-0.0781 0.625,-0.0781 1.20313,-0.20313 0.57812,-0.14062 1.10937,-0.34375 0.54688,-0.21875 1.10938,-0.46875 v 2.3125 q -0.5625,0.28125 -1.125,0.48438 -0.54688,0.20312 -1.125,0.32812 -0.57813,0.125 -1.20313,0.17188 -0.625,0.0625 -1.35937,0.0625 z m -0.64063,-14.125 q -1.625,0 -2.57812,1.125 -0.95313,1.10937 -1.10938,3.23437 h 7.03125 q 0,-0.96875 -0.1875,-1.78125 -0.1875,-0.8125 -0.60937,-1.375 -0.40625,-0.57812 -1.03125,-0.89062 -0.625,-0.3125 -1.51563,-0.3125 z m 19.83576,11.73437 h -0.10938 q -0.32812,0.48438 -0.75,0.92188 -0.42187,0.4375 -0.96875,0.78125 -0.54687,0.32812 -1.23437,0.5 -0.6875,0.1875 -1.54688,0.1875 -1.32812,0 -2.4375,-0.51563 -1.10937,-0.51562 -1.89062,-1.53125 -0.78125,-1.03125 -1.21875,-2.54687 -0.42188,-1.51563 -0.42188,-3.51563 0,-2.03125 0.42188,-3.54687 0.4375,-1.53125 1.21875,-2.5625 0.78125,-1.03125 1.89062,-1.54688 1.10938,-0.53125 2.4375,-0.53125 0.84375,0 1.53125,0.1875 0.6875,0.1875 1.23438,0.51563 0.54687,0.3125 0.96875,0.73437 0.4375,0.40625 0.76562,0.85938 h 0.17188 q -0.0469,-0.48438 -0.0937,-0.9375 -0.0312,-0.35938 -0.0625,-0.75 -0.0156,-0.40625 -0.0156,-0.625 v -6.25 h 2.59375 v 22.28125 h -2.09375 z m -4.10938,0.23438 q 1.07813,0 1.82813,-0.32813 0.76562,-0.32812 1.21875,-1 0.46875,-0.67187 0.6875,-1.6875 0.23437,-1.01562 0.26562,-2.35937 V 239.042 q 0,-1.45312 -0.20312,-2.57812 -0.1875,-1.125 -0.65625,-1.89063 -0.46875,-0.76562 -1.25,-1.15625 -0.76563,-0.39062 -1.92188,-0.39062 -1.9375,0 -2.84375,1.5625 -0.90625,1.5625 -0.90625,4.48437 0,2.98438 0.90625,4.45313 0.90625,1.46875 2.875,1.46875 z m 14.18445,1.875 H 415.872 v -15.71875 h 2.60938 z m -2.79688,-19.98438 q 0,-0.85937 0.4375,-1.23437 0.4375,-0.39063 1.07813,-0.39063 0.3125,0 0.59375,0.0937 0.28125,0.0937 0.48437,0.29688 0.20313,0.20312 0.32813,0.51562 0.125,0.29688 0.125,0.71875 0,0.84375 -0.45313,1.25 -0.45312,0.40625 -1.07812,0.40625 -0.64063,0 -1.07813,-0.39062 -0.4375,-0.40625 -0.4375,-1.26563 z m 16.65232,19.98438 -0.53125,-2.17188 h -0.10938 q -0.48437,0.64063 -0.95312,1.10938 -0.46875,0.46875 -1.03125,0.76562 -0.5625,0.29688 -1.25,0.4375 -0.6875,0.14063 -1.57813,0.14063 -1,0 -1.82812,-0.28125 -0.82813,-0.26563 -1.4375,-0.84375 -0.60938,-0.59375 -0.95313,-1.46875 -0.34375,-0.875 -0.34375,-2.07813 0,-2.35937 1.65625,-3.60937 1.65625,-1.26563 5.03125,-1.375 l 2.64063,-0.10938 v -0.98437 q 0,-0.95313 -0.21875,-1.59375 -0.20313,-0.65625 -0.59375,-1.04688 -0.39063,-0.39062 -0.96875,-0.5625 -0.57813,-0.17187 -1.32813,-0.17187 -1.1875,0 -2.21875,0.34375 -1.01562,0.34375 -1.96875,0.82812 l -0.90625,-1.96875 q 1.04688,-0.5625 2.34375,-0.96875 1.3125,-0.40625 2.75,-0.40625 1.45313,0 2.51563,0.29688 1.07812,0.29687 1.76562,0.9375 0.70313,0.625 1.04688,1.625 0.34375,0.98437 0.34375,2.39062 v 10.76563 z m -4.78125,-1.8125 q 0.875,0 1.60937,-0.26563 0.75,-0.28125 1.29688,-0.82812 0.54687,-0.5625 0.84375,-1.39063 0.3125,-0.84375 0.3125,-1.96875 v -1.42187 l -2.04688,0.0937 q -1.29687,0.0625 -2.17187,0.29687 -0.85938,0.21875 -1.39063,0.625 -0.51562,0.40625 -0.75,1 -0.23437,0.57813 -0.23437,1.29688 0,1.32812 0.6875,1.95312 0.70312,0.60938 1.84375,0.60938 z m 16.23813,-0.0312 q 0.25,0 0.5625,-0.0312 0.32812,-0.0312 0.625,-0.0625 0.3125,-0.0469 0.5625,-0.10938 0.25,-0.0625 0.375,-0.0937 v 1.96875 q -0.1875,0.0937 -0.46875,0.17188 -0.28125,0.0781 -0.625,0.14062 -0.34375,0.0781 -0.71875,0.10938 -0.375,0.0312 -0.73438,0.0312 -0.89062,0 -1.65625,-0.23438 -0.75,-0.21875 -1.29687,-0.76562 -0.54688,-0.5625 -0.875,-1.51563 -0.3125,-0.95312 -0.3125,-2.40625 v -9.125 h -2.21875 v -1.15625 l 2.21875,-1.10937 1.125,-3.29688 h 1.5 v 3.60938 h 3.95312 v 1.95312 h -3.95312 v 9.125 q 0,1.39063 0.45312,2.09375 0.45313,0.70313 1.48438,0.70313 z m 11.39145,2.125 q -1.57813,0 -2.875,-0.51563 -1.29688,-0.53125 -2.23438,-1.54687 -0.9375,-1.03125 -1.45312,-2.53125 -0.51563,-1.5 -0.51563,-3.4375 0,-1.9375 0.46875,-3.46875 0.46875,-1.54688 1.32813,-2.60938 0.85937,-1.0625 2.04687,-1.625 1.20313,-0.5625 2.65625,-0.5625 1.40625,0 2.53125,0.51563 1.14063,0.5 1.92188,1.4375 0.79687,0.92187 1.21875,2.21875 0.42187,1.29687 0.42187,2.85937 v 1.625 h -9.90625 q 0.0625,2.76563 1.15625,4.07813 1.10938,1.29687 3.26563,1.29687 0.73437,0 1.35937,-0.0781 0.625,-0.0781 1.20313,-0.20313 0.57812,-0.14062 1.10937,-0.34375 0.54688,-0.21875 1.10938,-0.46875 v 2.3125 q -0.5625,0.28125 -1.125,0.48438 -0.54688,0.20312 -1.125,0.32812 -0.57813,0.125 -1.20313,0.17188 -0.625,0.0625 -1.35937,0.0625 z m -0.64063,-14.125 q -1.625,0 -2.57812,1.125 -0.95313,1.10937 -1.10938,3.23437 h 7.03125 q 0,-0.96875 -0.1875,-1.78125 -0.1875,-0.8125 -0.60937,-1.375 -0.40625,-0.57812 -1.03125,-0.89062 -0.625,-0.3125 -1.51563,-0.3125 z"
     fill-rule="nonzero"
     id="path57" />
  <path
     fill="#000000"
     fill-opacity="0"
     d="m 283.03677,266.64105 h 312.59842 v 64.69293 H 283.03677 Z"
     fill-rule="evenodd"
     id="path59" />
  <path
     fill="#000000"
     fill-opacity="0"
     d="m 283.03677,331.34387 h 312.59842 v 64.6929 H 283.03677 Z"
     fill-rule="evenodd"
     id="path61" />
  <path
     fill="#000000"
     d="m 304.34927,374.25034 v -10.125 q 0,-1.85938 -0.75,-2.78125 -0.75,-0.9375 -2.35938,-0.9375 -1.15625,0 -1.95312,0.375 -0.78125,0.35937 -1.26563,1.09375 -0.46875,0.73437 -0.6875,1.79687 -0.20312,1.0625 -0.20312,2.4375 v 8.14063 h -2.60938 v -22.28125 h 2.60938 v 6.60937 l -0.10938,2.0625 h 0.14063 q 0.35937,-0.60937 0.84375,-1.0625 0.5,-0.45312 1.07812,-0.75 0.59375,-0.29687 1.25,-0.4375 0.67188,-0.15625 1.35938,-0.15625 2.60937,0 3.9375,1.375 1.32812,1.35938 1.32812,4.375 v 10.26563 z m 20.27039,-7.89063 q 0,1.96875 -0.48438,3.5 -0.48437,1.51563 -1.375,2.5625 -0.89062,1.03125 -2.17187,1.57813 -1.26563,0.53125 -2.85938,0.53125 -1.46875,0 -2.71875,-0.53125 -1.25,-0.54688 -2.15625,-1.57813 -0.90625,-1.04687 -1.42187,-2.5625 -0.5,-1.53125 -0.5,-3.5 0,-1.95312 0.46875,-3.45312 0.48437,-1.51563 1.375,-2.54688 0.89062,-1.04687 2.17187,-1.57812 1.28125,-0.54688 2.85938,-0.54688 1.48437,0 2.71875,0.54688 1.25,0.53125 2.15625,1.57812 0.92187,1.03125 1.42187,2.54688 0.51563,1.5 0.51563,3.45312 z m -11,0 q 0,3 0.96875,4.51563 0.98437,1.5 3.20312,1.5 2.20313,0 3.15625,-1.5 0.96875,-1.51563 0.96875,-4.51563 0,-3 -0.98437,-4.46875 -0.96875,-1.48437 -3.17188,-1.48437 -2.20312,0 -3.17187,1.48437 -0.96875,1.46875 -0.96875,4.46875 z m 21.91104,-8.125 q 0.40625,0 0.92187,0.0469 0.51563,0.0312 0.89063,0.10937 l -0.34375,2.39063 q -0.39063,-0.0625 -0.82813,-0.10938 -0.42187,-0.0625 -0.78125,-0.0625 -0.90625,0 -1.65625,0.375 -0.73437,0.35938 -1.28125,1.04688 -0.53125,0.67187 -0.82812,1.625 -0.29688,0.95312 -0.29688,2.10937 v 8.48438 h -2.60937 v -15.71875 h 2.125 l 0.3125,2.875 h 0.125 q 0.35937,-0.625 0.76562,-1.1875 0.40625,-0.57813 0.90625,-1.01563 0.51563,-0.4375 1.14063,-0.70312 0.625,-0.26563 1.4375,-0.26563 z m 11.69976,0 q 0.40625,0 0.92188,0.0469 0.51562,0.0312 0.89062,0.10937 l -0.34375,2.39063 q -0.39062,-0.0625 -0.82812,-0.10938 -0.42188,-0.0625 -0.78125,-0.0625 -0.90625,0 -1.65625,0.375 -0.73438,0.35938 -1.28125,1.04688 -0.53125,0.67187 -0.82813,1.625 -0.29687,0.95312 -0.29687,2.10937 v 8.48438 h -2.60938 v -15.71875 h 2.125 l 0.3125,2.875 h 0.125 q 0.35938,-0.625 0.76563,-1.1875 0.40625,-0.57813 0.90625,-1.01563 0.51562,-0.4375 1.14062,-0.70312 0.625,-0.26563 1.4375,-0.26563 z m 7.49662,16.01563 h -2.60938 v -15.71875 h 2.60938 z m -2.79688,-19.98438 q 0,-0.85937 0.4375,-1.23437 0.4375,-0.39063 1.07813,-0.39063 0.3125,0 0.59375,0.0937 0.28125,0.0937 0.48437,0.29688 0.20313,0.20312 0.32813,0.51562 0.125,0.29688 0.125,0.71875 0,0.84375 -0.45313,1.25 -0.45312,0.40625 -1.07812,0.40625 -0.64063,0 -1.07813,-0.39062 -0.4375,-0.40625 -0.4375,-1.26563 z m 14.88669,3.96875 q 1.34375,0 2.4375,0.51563 1.10938,0.51562 1.89063,1.54687 0.78125,1.01563 1.20312,2.54688 0.4375,1.51562 0.4375,3.51562 0,2.01563 -0.4375,3.54688 -0.42187,1.51562 -1.20312,2.54687 -0.78125,1.03125 -1.89063,1.5625 -1.09375,0.51563 -2.4375,0.51563 -0.84375,0 -1.53125,-0.1875 -0.6875,-0.17188 -1.25,-0.48438 -0.54687,-0.3125 -0.96875,-0.71875 -0.42187,-0.42187 -0.75,-0.875 h -0.17187 l -0.53125,1.98438 h -1.90625 v -22.28125 h 2.60937 v 5.39062 q 0,0.5 -0.0156,1.0625 -0.0156,0.5625 -0.0312,1.04688 -0.0312,0.57812 -0.0625,1.125 h 0.10937 q 0.32813,-0.5 0.75,-0.92188 0.42188,-0.4375 0.96875,-0.75 0.54688,-0.32812 1.23438,-0.5 0.6875,-0.1875 1.54687,-0.1875 z m -0.5,2.17188 q -1.14062,0 -1.90625,0.35937 -0.76562,0.35938 -1.23437,1.10938 -0.46875,0.75 -0.67188,1.875 -0.1875,1.10937 -0.1875,2.60937 0,1.45313 0.1875,2.57813 0.20313,1.10937 0.67188,1.89062 0.46875,0.76563 1.23437,1.15625 0.78125,0.39063 1.9375,0.39063 1.9375,0 2.84375,-1.5625 0.90625,-1.5625 0.90625,-4.48438 0,-2.96875 -0.90625,-4.4375 -0.90625,-1.48437 -2.875,-1.48437 z m 13.18445,13.84375 h -2.60938 v -22.28125 h 2.60938 z m 11.19916,0.28125 q -1.57813,0 -2.875,-0.51563 -1.29688,-0.53125 -2.23438,-1.54687 -0.9375,-1.03125 -1.45312,-2.53125 -0.51563,-1.5 -0.51563,-3.4375 0,-1.9375 0.46875,-3.46875 0.46875,-1.54688 1.32813,-2.60938 0.85937,-1.0625 2.04687,-1.625 1.20313,-0.5625 2.65625,-0.5625 1.40625,0 2.53125,0.51563 1.14063,0.5 1.92188,1.4375 0.79687,0.92187 1.21875,2.21875 0.42187,1.29687 0.42187,2.85937 v 1.625 h -9.90625 q 0.0625,2.76563 1.15625,4.07813 1.10938,1.29687 3.26563,1.29687 0.73437,0 1.35937,-0.0781 0.625,-0.0781 1.20313,-0.20313 0.57812,-0.14062 1.10937,-0.34375 0.54688,-0.21875 1.10938,-0.46875 v 2.3125 q -0.5625,0.28125 -1.125,0.48438 -0.54688,0.20312 -1.125,0.32812 -0.57813,0.125 -1.20313,0.17188 -0.625,0.0625 -1.35937,0.0625 z m -0.64063,-14.125 q -1.625,0 -2.57812,1.125 -0.95313,1.10937 -1.10938,3.23437 h 7.03125 q 0,-0.96875 -0.1875,-1.78125 -0.1875,-0.8125 -0.60937,-1.375 -0.40625,-0.57812 -1.03125,-0.89062 -0.625,-0.3125 -1.51563,-0.3125 z m 18.27326,-7.09375 -7.79688,20.9375 h -2.5625 l 7.8125,-20.9375 z m 5.67514,20.9375 -5.375,-15.71875 h 2.6875 l 2.85937,8.75 q 0.15625,0.46875 0.35938,1.21875 0.21875,0.73437 0.4375,1.51562 0.21875,0.76563 0.39062,1.45313 0.1875,0.6875 0.23438,1.04687 h 0.10937 q 0.0625,-0.35937 0.23438,-1.04687 0.17187,-0.6875 0.39062,-1.45313 0.21875,-0.78125 0.42188,-1.51562 0.21875,-0.75 0.375,-1.21875 l 2.85937,-8.75 h 2.6875 l -5.375,15.71875 z m 17.37643,0.28125 q -1.57813,0 -2.875,-0.51563 -1.29688,-0.53125 -2.23438,-1.54687 -0.9375,-1.03125 -1.45312,-2.53125 -0.51563,-1.5 -0.51563,-3.4375 0,-1.9375 0.46875,-3.46875 0.46875,-1.54688 1.32813,-2.60938 0.85937,-1.0625 2.04687,-1.625 1.20313,-0.5625 2.65625,-0.5625 1.40625,0 2.53125,0.51563 1.14063,0.5 1.92188,1.4375 0.79687,0.92187 1.21875,2.21875 0.42187,1.29687 0.42187,2.85937 v 1.625 h -9.90625 q 0.0625,2.76563 1.15625,4.07813 1.10938,1.29687 3.26563,1.29687 0.73437,0 1.35937,-0.0781 0.625,-0.0781 1.20313,-0.20313 0.57812,-0.14062 1.10937,-0.34375 0.54688,-0.21875 1.10938,-0.46875 v 2.3125 q -0.5625,0.28125 -1.125,0.48438 -0.54688,0.20312 -1.125,0.32812 -0.57813,0.125 -1.20313,0.17188 -0.625,0.0625 -1.35937,0.0625 z m -0.64063,-14.125 q -1.625,0 -2.57812,1.125 -0.95313,1.10937 -1.10938,3.23437 h 7.03125 q 0,-0.96875 -0.1875,-1.78125 -0.1875,-0.8125 -0.60937,-1.375 -0.40625,-0.57812 -1.03125,-0.89062 -0.625,-0.3125 -1.51563,-0.3125 z m 16.92951,-2.17188 q 0.40625,0 0.92187,0.0469 0.51563,0.0312 0.89063,0.10937 l -0.34375,2.39063 q -0.39063,-0.0625 -0.82813,-0.10938 -0.42187,-0.0625 -0.78125,-0.0625 -0.90625,0 -1.65625,0.375 -0.73437,0.35938 -1.28125,1.04688 -0.53125,0.67187 -0.82812,1.625 -0.29688,0.95312 -0.29688,2.10937 v 8.48438 h -2.60937 v -15.71875 h 2.125 l 0.3125,2.875 h 0.125 q 0.35937,-0.625 0.76562,-1.1875 0.40625,-0.57813 0.90625,-1.01563 0.51563,-0.4375 1.14063,-0.70312 0.625,-0.26563 1.4375,-0.26563 z m 2.54349,0.29688 h 2.70312 l 3.07813,8.76562 q 0.20312,0.57813 0.40625,1.21875 0.21875,0.625 0.39062,1.25 0.1875,0.625 0.3125,1.21875 0.125,0.59375 0.1875,1.09375 h 0.0781 q 0.0781,-0.35937 0.23437,-0.96875 0.15625,-0.625 0.34375,-1.3125 0.20313,-0.70312 0.40625,-1.375 0.20313,-0.67187 0.375,-1.14062 l 2.84375,-8.75 h 2.6875 l -6.21875,17.76562 q -0.39062,1.15625 -0.85937,2.07813 -0.46875,0.9375 -1.09375,1.57812 -0.60938,0.64063 -1.4375,0.98438 -0.82813,0.35937 -1.96875,0.35937 -0.75,0 -1.29688,-0.0781 -0.54687,-0.0781 -0.92187,-0.17188 v -2.07812 q 0.29687,0.0781 0.75,0.125 0.46875,0.0469 0.96875,0.0469 0.6875,0 1.1875,-0.17187 0.5,-0.15625 0.875,-0.46875 0.375,-0.3125 0.625,-0.78125 0.26562,-0.45313 0.48437,-1.03125 l 0.8125,-2.29688 z m 26.30346,20.35937 h -12.17187 v -2 h 12.17187 z m 12.26087,-4.64062 v -10.125 q 0,-1.85938 -0.75,-2.78125 -0.75,-0.9375 -2.35938,-0.9375 -1.15625,0 -1.95312,0.375 -0.78125,0.35937 -1.26563,1.09375 -0.46875,0.73437 -0.6875,1.79687 -0.20312,1.0625 -0.20312,2.4375 v 8.14063 h -2.60938 v -22.28125 h 2.60938 v 6.60937 l -0.10938,2.0625 h 0.14063 q 0.35937,-0.60937 0.84375,-1.0625 0.5,-0.45312 1.07812,-0.75 0.59375,-0.29687 1.25,-0.4375 0.67188,-0.15625 1.35938,-0.15625 2.60937,0 3.9375,1.375 1.32812,1.35938 1.32812,4.375 v 10.26563 z m 20.27038,-7.89063 q 0,1.96875 -0.48437,3.5 -0.48438,1.51563 -1.375,2.5625 -0.89063,1.03125 -2.17188,1.57813 -1.26562,0.53125 -2.85937,0.53125 -1.46875,0 -2.71875,-0.53125 -1.25,-0.54688 -2.15625,-1.57813 -0.90625,-1.04687 -1.42188,-2.5625 -0.5,-1.53125 -0.5,-3.5 0,-1.95312 0.46875,-3.45312 0.48438,-1.51563 1.375,-2.54688 0.89063,-1.04687 2.17188,-1.57812 1.28125,-0.54688 2.85937,-0.54688 1.48438,0 2.71875,0.54688 1.25,0.53125 2.15625,1.57812 0.92188,1.03125 1.42188,2.54688 0.51562,1.5 0.51562,3.45312 z m -11,0 q 0,3 0.96875,4.51563 0.98438,1.5 3.20313,1.5 2.20312,0 3.15625,-1.5 0.96875,-1.51563 0.96875,-4.51563 0,-3 -0.98438,-4.46875 -0.96875,-1.48437 -3.17187,-1.48437 -2.20313,0 -3.17188,1.48437 -0.96875,1.46875 -0.96875,4.46875 z m 21.91104,-8.125 q 0.40625,0 0.92188,0.0469 0.51562,0.0312 0.89062,0.10937 l -0.34375,2.39063 q -0.39062,-0.0625 -0.82812,-0.10938 -0.42188,-0.0625 -0.78125,-0.0625 -0.90625,0 -1.65625,0.375 -0.73438,0.35938 -1.28125,1.04688 -0.53125,0.67187 -0.82813,1.625 -0.29687,0.95312 -0.29687,2.10937 v 8.48438 h -2.60938 v -15.71875 h 2.125 l 0.3125,2.875 h 0.125 q 0.35938,-0.625 0.76563,-1.1875 0.40625,-0.57813 0.90625,-1.01563 0.51562,-0.4375 1.14062,-0.70312 0.625,-0.26563 1.4375,-0.26563 z m 11.69977,0 q 0.40625,0 0.92188,0.0469 0.51562,0.0312 0.89062,0.10937 l -0.34375,2.39063 q -0.39062,-0.0625 -0.82812,-0.10938 -0.42188,-0.0625 -0.78125,-0.0625 -0.90625,0 -1.65625,0.375 -0.73438,0.35938 -1.28125,1.04688 -0.53125,0.67187 -0.82813,1.625 -0.29687,0.95312 -0.29687,2.10937 v 8.48438 h -2.60938 v -15.71875 h 2.125 l 0.3125,2.875 h 0.125 q 0.35938,-0.625 0.76563,-1.1875 0.40625,-0.57813 0.90625,-1.01563 0.51562,-0.4375 1.14062,-0.70312 0.625,-0.26563 1.4375,-0.26563 z m 7.49665,16.01563 h -2.60938 v -15.71875 h 2.60938 z m -2.79688,-19.98438 q 0,-0.85937 0.4375,-1.23437 0.4375,-0.39063 1.07813,-0.39063 0.3125,0 0.59375,0.0937 0.28125,0.0937 0.48437,0.29688 0.20313,0.20312 0.32813,0.51562 0.125,0.29688 0.125,0.71875 0,0.84375 -0.45313,1.25 -0.45312,0.40625 -1.07812,0.40625 -0.64063,0 -1.07813,-0.39062 -0.4375,-0.40625 -0.4375,-1.26563 z m 14.88666,3.96875 q 1.34375,0 2.4375,0.51563 1.10937,0.51562 1.89062,1.54687 0.78125,1.01563 1.20313,2.54688 0.4375,1.51562 0.4375,3.51562 0,2.01563 -0.4375,3.54688 -0.42188,1.51562 -1.20313,2.54687 -0.78125,1.03125 -1.89062,1.5625 -1.09375,0.51563 -2.4375,0.51563 -0.84375,0 -1.53125,-0.1875 -0.6875,-0.17188 -1.25,-0.48438 -0.54688,-0.3125 -0.96875,-0.71875 -0.42188,-0.42187 -0.75,-0.875 h -0.17188 l -0.53125,1.98438 h -1.90625 v -22.28125 h 2.60938 v 5.39062 q 0,0.5 -0.0156,1.0625 -0.0156,0.5625 -0.0312,1.04688 -0.0312,0.57812 -0.0625,1.125 h 0.10938 q 0.32812,-0.5 0.75,-0.92188 0.42187,-0.4375 0.96875,-0.75 0.54687,-0.32812 1.23437,-0.5 0.6875,-0.1875 1.54688,-0.1875 z m -0.5,2.17188 q -1.14063,0 -1.90625,0.35937 -0.76563,0.35938 -1.23438,1.10938 -0.46875,0.75 -0.67187,1.875 -0.1875,1.10937 -0.1875,2.60937 0,1.45313 0.1875,2.57813 0.20312,1.10937 0.67187,1.89062 0.46875,0.76563 1.23438,1.15625 0.78125,0.39063 1.9375,0.39063 1.9375,0 2.84375,-1.5625 0.90625,-1.5625 0.90625,-4.48438 0,-2.96875 -0.90625,-4.4375 -0.90625,-1.48437 -2.875,-1.48437 z m 13.18445,13.84375 h -2.60938 v -22.28125 h 2.60938 z m 11.19915,0.28125 q -1.57812,0 -2.875,-0.51563 -1.29687,-0.53125 -2.23437,-1.54687 -0.9375,-1.03125 -1.45313,-2.53125 -0.51562,-1.5 -0.51562,-3.4375 0,-1.9375 0.46875,-3.46875 0.46875,-1.54688 1.32812,-2.60938 0.85938,-1.0625 2.04688,-1.625 1.20312,-0.5625 2.65625,-0.5625 1.40625,0 2.53125,0.51563 1.14062,0.5 1.92187,1.4375 0.79688,0.92187 1.21875,2.21875 0.42188,1.29687 0.42188,2.85937 v 1.625 H 570.742 q 0.0625,2.76563 1.15625,4.07813 1.10937,1.29687 3.26562,1.29687 0.73438,0 1.35938,-0.0781 0.625,-0.0781 1.20312,-0.20313 0.57813,-0.14062 1.10938,-0.34375 0.54687,-0.21875 1.10937,-0.46875 v 2.3125 q -0.5625,0.28125 -1.125,0.48438 -0.54687,0.20312 -1.125,0.32812 -0.57812,0.125 -1.20312,0.17188 -0.625,0.0625 -1.35938,0.0625 z m -0.64062,-14.125 q -1.625,0 -2.57813,1.125 -0.95312,1.10937 -1.10937,3.23437 h 7.03125 q 0,-0.96875 -0.1875,-1.78125 -0.1875,-0.8125 -0.60938,-1.375 -0.40625,-0.57812 -1.03125,-0.89062 -0.625,-0.3125 -1.51562,-0.3125 z"
     fill-rule="nonzero"
     id="path63" />
  <path
     fill="#000000"
     fill-opacity="0"
     d="m 283.03677,391.98547 h 312.59842 v 64.6929 H 283.03677 Z"
     fill-rule="evenodd"
     id="path65" />
  <path
     fill="#000000"
     d="m 297.13052,434.89194 h -2.60938 v -15.71875 h 2.60938 z m -2.79688,-19.98438 q 0,-0.85937 0.4375,-1.23437 0.4375,-0.39063 1.07813,-0.39063 0.3125,0 0.59375,0.0937 0.28125,0.0937 0.48437,0.29688 0.20313,0.20312 0.32813,0.51562 0.125,0.29688 0.125,0.71875 0,0.84375 -0.45313,1.25 -0.45312,0.40625 -1.07812,0.40625 -0.64063,0 -1.07813,-0.39062 -0.4375,-0.40625 -0.4375,-1.26563 z m 26.62107,19.98438 v -10.125 q 0,-1.85938 -0.71875,-2.78125 -0.71875,-0.9375 -2.21875,-0.9375 -1.04688,0 -1.78125,0.34375 -0.73438,0.32812 -1.20313,0.98437 -0.45312,0.64063 -0.67187,1.60938 -0.21875,0.96875 -0.21875,2.23437 v 8.67188 h -2.60938 v -10.125 q 0,-1.85938 -0.71875,-2.78125 -0.70312,-0.9375 -2.20312,-0.9375 -1.10938,0 -1.85938,0.375 -0.73437,0.35937 -1.1875,1.09375 -0.45312,0.73437 -0.65625,1.79687 -0.1875,1.0625 -0.1875,2.4375 v 8.14063 h -2.60937 v -15.71875 h 2.125 l 0.375,2.10937 h 0.14062 q 0.34375,-0.60937 0.8125,-1.0625 0.48438,-0.45312 1.04688,-0.75 0.5625,-0.29687 1.20312,-0.4375 0.64063,-0.15625 1.29688,-0.15625 1.71875,0 2.84375,0.64063 1.14062,0.625 1.6875,1.96875 h 0.125 q 0.35937,-0.67188 0.875,-1.15625 0.53125,-0.48438 1.15625,-0.79688 0.625,-0.32812 1.3125,-0.48437 0.6875,-0.17188 1.40625,-0.17188 2.5,0 3.76562,1.375 1.26563,1.35938 1.26563,4.375 v 10.26563 z m 14.54352,0.28125 q -0.84375,0 -1.53125,-0.1875 -0.6875,-0.17188 -1.25,-0.48438 -0.54688,-0.3125 -0.96875,-0.71875 -0.42188,-0.42187 -0.75,-0.875 h -0.17188 q 0.0469,0.48438 0.0937,0.92188 0.0312,0.375 0.0469,0.76562 0.0312,0.39063 0.0312,0.625 v 6.71875 h -2.60938 v -22.76562 h 2.125 l 0.375,2.10937 h 0.10938 q 0.32812,-0.5 0.75,-0.9375 0.42187,-0.4375 0.96875,-0.75 0.54687,-0.32812 1.23437,-0.51562 0.6875,-0.20313 1.54688,-0.20313 1.34375,0 2.4375,0.51563 1.10937,0.51562 1.89062,1.54687 0.78125,1.01563 1.20313,2.54688 0.4375,1.51562 0.4375,3.51562 0,2.01563 -0.4375,3.54688 -0.42188,1.51562 -1.20313,2.54687 -0.78125,1.03125 -1.89062,1.5625 -1.09375,0.51563 -2.4375,0.51563 z m -0.5,-14.125 q -1.09375,0 -1.84375,0.32812 -0.75,0.32813 -1.21875,1 -0.45313,0.67188 -0.6875,1.67188 -0.21875,1 -0.25,2.35937 v 0.59375 q 0,1.45313 0.1875,2.57813 0.20312,1.10937 0.67187,1.89062 0.46875,0.76563 1.23438,1.15625 0.78125,0.39063 1.9375,0.39063 1.9375,0 2.84375,-1.5625 0.90625,-1.5625 0.90625,-4.48438 0,-2.96875 -0.90625,-4.4375 -0.90625,-1.48437 -2.875,-1.48437 z m 19.45007,13.84375 -0.53125,-2.17188 h -0.10938 q -0.48437,0.64063 -0.95312,1.10938 -0.46875,0.46875 -1.03125,0.76562 -0.5625,0.29688 -1.25,0.4375 -0.6875,0.14063 -1.57813,0.14063 -1,0 -1.82812,-0.28125 -0.82813,-0.26563 -1.4375,-0.84375 -0.60938,-0.59375 -0.95313,-1.46875 -0.34375,-0.875 -0.34375,-2.07813 0,-2.35937 1.65625,-3.60937 1.65625,-1.26563 5.03125,-1.375 l 2.64063,-0.10938 v -0.98437 q 0,-0.95313 -0.21875,-1.59375 -0.20313,-0.65625 -0.59375,-1.04688 -0.39063,-0.39062 -0.96875,-0.5625 -0.57813,-0.17187 -1.32813,-0.17187 -1.1875,0 -2.21875,0.34375 -1.01562,0.34375 -1.96875,0.82812 l -0.90625,-1.96875 q 1.04688,-0.5625 2.34375,-0.96875 1.3125,-0.40625 2.75,-0.40625 1.45313,0 2.51563,0.29688 1.07812,0.29687 1.76562,0.9375 0.70313,0.625 1.04688,1.625 0.34375,0.98437 0.34375,2.39062 v 10.76563 z m -4.78125,-1.8125 q 0.875,0 1.60937,-0.26563 0.75,-0.28125 1.29688,-0.82812 0.54687,-0.5625 0.84375,-1.39063 0.3125,-0.84375 0.3125,-1.96875 v -1.42187 l -2.04688,0.0937 q -1.29687,0.0625 -2.17187,0.29687 -0.85938,0.21875 -1.39063,0.625 -0.51562,0.40625 -0.75,1 -0.23437,0.57813 -0.23437,1.29688 0,1.32812 0.6875,1.95312 0.70312,0.60938 1.84375,0.60938 z m 20.89438,-2.5 q 0,1.14062 -0.42188,2 -0.42187,0.85937 -1.20312,1.45312 -0.76563,0.57813 -1.875,0.85938 -1.10938,0.28125 -2.48438,0.28125 -1.54687,0 -2.67187,-0.25 -1.10938,-0.25 -1.96875,-0.73438 v -2.375 q 0.45312,0.23438 1,0.45313 0.54687,0.21875 1.14062,0.39062 0.60938,0.17188 1.23438,0.28125 0.64062,0.10938 1.26562,0.10938 0.9375,0 1.57813,-0.15625 0.65625,-0.15625 1.0625,-0.45313 0.42187,-0.29687 0.59375,-0.71875 0.1875,-0.42187 0.1875,-0.9375 0,-0.4375 -0.14063,-0.79687 -0.14062,-0.35938 -0.51562,-0.70313 -0.375,-0.35937 -1.04688,-0.71875 -0.65625,-0.35937 -1.6875,-0.79687 -1.03125,-0.45313 -1.85937,-0.875 -0.8125,-0.4375 -1.39063,-0.96875 -0.5625,-0.53125 -0.875,-1.21875 -0.3125,-0.70313 -0.3125,-1.65625 0,-1 0.39063,-1.78125 0.40625,-0.78125 1.10937,-1.3125 0.71875,-0.53125 1.71875,-0.79688 1.01563,-0.28125 2.23438,-0.28125 1.39062,0 2.54687,0.3125 1.15625,0.29688 2.1875,0.78125 l -0.90625,2.10938 q -0.9375,-0.42188 -1.92187,-0.71875 -0.96875,-0.3125 -1.98438,-0.3125 -1.46875,0 -2.17187,0.48437 -0.6875,0.46875 -0.6875,1.35938 0,0.5 0.15625,0.875 0.17187,0.375 0.5625,0.70312 0.40625,0.32813 1.07812,0.67188 0.67188,0.32812 1.67188,0.75 1.03125,0.42187 1.84375,0.85937 0.8125,0.42188 1.375,0.96875 0.57812,0.53125 0.875,1.21875 0.3125,0.6875 0.3125,1.64063 z m 13.23202,0 q 0,1.14062 -0.42187,2 -0.42188,0.85937 -1.20313,1.45312 -0.76562,0.57813 -1.875,0.85938 -1.10937,0.28125 -2.48437,0.28125 -1.54688,0 -2.67188,-0.25 -1.10937,-0.25 -1.96875,-0.73438 v -2.375 q 0.45313,0.23438 1,0.45313 0.54688,0.21875 1.14063,0.39062 0.60937,0.17188 1.23437,0.28125 0.64063,0.10938 1.26563,0.10938 0.9375,0 1.57812,-0.15625 0.65625,-0.15625 1.0625,-0.45313 0.42188,-0.29687 0.59375,-0.71875 0.1875,-0.42187 0.1875,-0.9375 0,-0.4375 -0.14062,-0.79687 -0.14063,-0.35938 -0.51563,-0.70313 -0.375,-0.35937 -1.04687,-0.71875 -0.65625,-0.35937 -1.6875,-0.79687 -1.03125,-0.45313 -1.85938,-0.875 -0.8125,-0.4375 -1.39062,-0.96875 -0.5625,-0.53125 -0.875,-1.21875 -0.3125,-0.70313 -0.3125,-1.65625 0,-1 0.39062,-1.78125 0.40625,-0.78125 1.10938,-1.3125 0.71875,-0.53125 1.71875,-0.79688 1.01562,-0.28125 2.23437,-0.28125 1.39063,0 2.54688,0.3125 1.15625,0.29688 2.1875,0.78125 l -0.90625,2.10938 q -0.9375,-0.42188 -1.92188,-0.71875 -0.96875,-0.3125 -1.98437,-0.3125 -1.46875,0 -2.17188,0.48437 -0.6875,0.46875 -0.6875,1.35938 0,0.5 0.15625,0.875 0.17188,0.375 0.5625,0.70312 0.40625,0.32813 1.07813,0.67188 0.67187,0.32812 1.67187,0.75 1.03125,0.42187 1.84375,0.85937 0.8125,0.42188 1.375,0.96875 0.57813,0.53125 0.875,1.21875 0.3125,0.6875 0.3125,1.64063 z m 12.68515,4.3125 -0.53125,-2.17188 h -0.10937 q -0.48438,0.64063 -0.95313,1.10938 -0.46875,0.46875 -1.03125,0.76562 -0.5625,0.29688 -1.25,0.4375 -0.6875,0.14063 -1.57812,0.14063 -1,0 -1.82813,-0.28125 -0.82812,-0.26563 -1.4375,-0.84375 -0.60937,-0.59375 -0.95312,-1.46875 -0.34375,-0.875 -0.34375,-2.07813 0,-2.35937 1.65625,-3.60937 1.65625,-1.26563 5.03125,-1.375 l 2.64062,-0.10938 v -0.98437 q 0,-0.95313 -0.21875,-1.59375 -0.20312,-0.65625 -0.59375,-1.04688 -0.39062,-0.39062 -0.96875,-0.5625 -0.57812,-0.17187 -1.32812,-0.17187 -1.1875,0 -2.21875,0.34375 -1.01563,0.34375 -1.96875,0.82812 l -0.90625,-1.96875 q 1.04687,-0.5625 2.34375,-0.96875 1.3125,-0.40625 2.75,-0.40625 1.45312,0 2.51562,0.29688 1.07813,0.29687 1.76563,0.9375 0.70312,0.625 1.04687,1.625 0.34375,0.98437 0.34375,2.39062 v 10.76563 z m -4.78125,-1.8125 q 0.875,0 1.60938,-0.26563 0.75,-0.28125 1.29687,-0.82812 0.54688,-0.5625 0.84375,-1.39063 0.3125,-0.84375 0.3125,-1.96875 v -1.42187 l -2.04687,0.0937 q -1.29688,0.0625 -2.17188,0.29687 -0.85937,0.21875 -1.39062,0.625 -0.51563,0.40625 -0.75,1 -0.23438,0.57813 -0.23438,1.29688 0,1.32812 0.6875,1.95312 0.70313,0.60938 1.84375,0.60938 z m 18.58188,-14.20313 q 1.34375,0 2.4375,0.51563 1.10938,0.51562 1.89063,1.54687 0.78125,1.01563 1.20312,2.54688 0.4375,1.51562 0.4375,3.51562 0,2.01563 -0.4375,3.54688 -0.42187,1.51562 -1.20312,2.54687 -0.78125,1.03125 -1.89063,1.5625 -1.09375,0.51563 -2.4375,0.51563 -0.84375,0 -1.53125,-0.1875 -0.6875,-0.17188 -1.25,-0.48438 -0.54687,-0.3125 -0.96875,-0.71875 -0.42187,-0.42187 -0.75,-0.875 h -0.17187 l -0.53125,1.98438 h -1.90625 v -22.28125 h 2.60937 v 5.39062 q 0,0.5 -0.0156,1.0625 -0.0156,0.5625 -0.0312,1.04688 -0.0312,0.57812 -0.0625,1.125 h 0.10937 q 0.32813,-0.5 0.75,-0.92188 0.42188,-0.4375 0.96875,-0.75 0.54688,-0.32812 1.23438,-0.5 0.6875,-0.1875 1.54687,-0.1875 z m -0.5,2.17188 q -1.14062,0 -1.90625,0.35937 -0.76562,0.35938 -1.23437,1.10938 -0.46875,0.75 -0.67188,1.875 -0.1875,1.10937 -0.1875,2.60937 0,1.45313 0.1875,2.57813 0.20313,1.10937 0.67188,1.89062 0.46875,0.76563 1.23437,1.15625 0.78125,0.39063 1.9375,0.39063 1.9375,0 2.84375,-1.5625 0.90625,-1.5625 0.90625,-4.48438 0,-2.96875 -0.90625,-4.4375 -0.90625,-1.48437 -2.875,-1.48437 z m 13.18445,13.84375 h -2.60938 v -22.28125 h 2.60938 z m 11.19916,0.28125 q -1.57813,0 -2.875,-0.51563 -1.29688,-0.53125 -2.23438,-1.54687 -0.9375,-1.03125 -1.45312,-2.53125 -0.51563,-1.5 -0.51563,-3.4375 0,-1.9375 0.46875,-3.46875 0.46875,-1.54688 1.32813,-2.60938 0.85937,-1.0625 2.04687,-1.625 1.20313,-0.5625 2.65625,-0.5625 1.40625,0 2.53125,0.51563 1.14063,0.5 1.92188,1.4375 0.79687,0.92187 1.21875,2.21875 0.42187,1.29687 0.42187,2.85937 v 1.625 h -9.90625 q 0.0625,2.76563 1.15625,4.07813 1.10938,1.29687 3.26563,1.29687 0.73437,0 1.35937,-0.0781 0.625,-0.0781 1.20313,-0.20313 0.57812,-0.14062 1.10937,-0.34375 0.54688,-0.21875 1.10938,-0.46875 v 2.3125 q -0.5625,0.28125 -1.125,0.48438 -0.54688,0.20312 -1.125,0.32812 -0.57813,0.125 -1.20313,0.17188 -0.625,0.0625 -1.35937,0.0625 z m -0.64063,-14.125 q -1.625,0 -2.57812,1.125 -0.95313,1.10937 -1.10938,3.23437 h 7.03125 q 0,-0.96875 -0.1875,-1.78125 -0.1875,-0.8125 -0.60937,-1.375 -0.40625,-0.57812 -1.03125,-0.89062 -0.625,-0.3125 -1.51563,-0.3125 z"
     fill-rule="nonzero"
     id="path67" />
  <path
     fill="#000000"
     fill-opacity="0"
     d="m 283.03677,456.69553 h 312.59842 v 64.6929 H 283.03677 Z"
     fill-rule="evenodd"
     id="path69" />
  <path
     fill="#000000"
     d="m 296.06802,493.6801 v -0.53125 q 0,-0.82813 0.0937,-1.48438 0.10937,-0.65625 0.39062,-1.21875 0.28125,-0.57812 0.75,-1.125 0.48438,-0.5625 1.1875,-1.15625 0.6875,-0.59375 1.17188,-1.0625 0.5,-0.48437 0.79687,-0.98437 0.3125,-0.5 0.45313,-1.0625 0.15625,-0.5625 0.15625,-1.3125 0,-0.6875 -0.21875,-1.25 -0.20313,-0.57813 -0.60938,-0.98438 -0.40625,-0.40625 -1.01562,-0.625 -0.60938,-0.23437 -1.42188,-0.23437 -1.1875,0 -2.26562,0.375 -1.0625,0.375 -2.0625,0.85937 l -0.90625,-2.07812 q 1.15625,-0.59375 2.5,-1.01563 1.34375,-0.42187 2.73437,-0.42187 1.34375,0 2.40625,0.375 1.0625,0.35937 1.79688,1.04687 0.75,0.6875 1.15625,1.6875 0.40625,0.98438 0.40625,2.23438 0,0.95312 -0.20313,1.70312 -0.1875,0.75 -0.57812,1.40625 -0.375,0.64063 -0.95313,1.25 -0.57812,0.59375 -1.34375,1.26563 -0.75,0.64062 -1.21875,1.125 -0.46875,0.48437 -0.75,0.9375 -0.26562,0.4375 -0.375,0.92187 -0.0937,0.46875 -0.0937,1.09375 v 0.26563 z m -0.6875,4.32812 q 0,-0.54687 0.14062,-0.92187 0.14063,-0.375 0.375,-0.60938 0.25,-0.23437 0.57813,-0.34375 0.32812,-0.10937 0.71875,-0.10937 0.375,0 0.70312,0.10937 0.34375,0.10938 0.57813,0.34375 0.25,0.23438 0.39062,0.60938 0.14063,0.375 0.14063,0.92187 0,0.53125 -0.14063,0.92188 -0.14062,0.375 -0.39062,0.625 -0.23438,0.23437 -0.57813,0.34375 -0.32812,0.125 -0.70312,0.125 -0.39063,0 -0.71875,-0.125 -0.32813,-0.10938 -0.57813,-0.34375 -0.23437,-0.25 -0.375,-0.625 -0.14062,-0.39063 -0.14062,-0.92188 z m 27.40268,-19.34375 -7.79688,20.9375 h -2.5625 l 7.8125,-20.9375 z m 16.6842,20.9375 h -7.59375 v -1.45312 l 2.46875,-0.59375 v -16.84375 l -2.46875,-0.57813 v -1.46875 h 7.59375 v 1.46875 l -2.46875,0.57813 v 16.84375 l 2.46875,0.59375 z m 13.48523,0 v -10.125 q 0,-1.85937 -0.75,-2.78125 -0.75,-0.9375 -2.35937,-0.9375 -1.15625,0 -1.95313,0.375 -0.78125,0.35938 -1.26562,1.09375 -0.46875,0.73438 -0.6875,1.79688 -0.20313,1.0625 -0.20313,2.4375 v 8.14062 h -2.60937 v -15.71875 h 2.125 l 0.375,2.10938 h 0.14062 q 0.35938,-0.60938 0.84375,-1.0625 0.5,-0.45313 1.07813,-0.75 0.59375,-0.29688 1.25,-0.4375 0.67187,-0.15625 1.35937,-0.15625 2.60938,0 3.9375,1.375 1.32813,1.35937 1.32813,4.375 v 10.26562 z m 10.33286,0 -5.375,-15.71875 h 2.6875 l 2.85937,8.75 q 0.15625,0.46875 0.35938,1.21875 0.21875,0.73438 0.4375,1.51563 0.21875,0.76562 0.39062,1.45312 0.1875,0.6875 0.23438,1.04688 h 0.10937 q 0.0625,-0.35938 0.23438,-1.04688 0.17187,-0.6875 0.39062,-1.45312 0.21875,-0.78125 0.42188,-1.51563 0.21875,-0.75 0.375,-1.21875 l 2.85937,-8.75 h 2.6875 l -5.375,15.71875 z m 20.03268,0 -0.53125,-2.17187 h -0.10937 q -0.48438,0.64062 -0.95313,1.10937 -0.46875,0.46875 -1.03125,0.76563 -0.5625,0.29687 -1.25,0.4375 -0.6875,0.14062 -1.57812,0.14062 -1,0 -1.82813,-0.28125 -0.82812,-0.26562 -1.4375,-0.84375 -0.60937,-0.59375 -0.95312,-1.46875 -0.34375,-0.875 -0.34375,-2.07812 0,-2.35938 1.65625,-3.60938 1.65625,-1.26562 5.03125,-1.375 l 2.64062,-0.10937 v -0.98438 q 0,-0.95312 -0.21875,-1.59375 -0.20312,-0.65625 -0.59375,-1.04687 -0.39062,-0.39063 -0.96875,-0.5625 -0.57812,-0.17188 -1.32812,-0.17188 -1.1875,0 -2.21875,0.34375 -1.01563,0.34375 -1.96875,0.82813 l -0.90625,-1.96875 q 1.04687,-0.5625 2.34375,-0.96875 1.3125,-0.40625 2.75,-0.40625 1.45312,0 2.51562,0.29687 1.07813,0.29688 1.76563,0.9375 0.70312,0.625 1.04687,1.625 0.34375,0.98438 0.34375,2.39063 v 10.76562 z m -4.78125,-1.8125 q 0.875,0 1.60938,-0.26562 0.75,-0.28125 1.29687,-0.82813 0.54688,-0.5625 0.84375,-1.39062 0.3125,-0.84375 0.3125,-1.96875 v -1.42188 l -2.04687,0.0937 q -1.29688,0.0625 -2.17188,0.29688 -0.85937,0.21875 -1.39062,0.625 -0.51563,0.40625 -0.75,1 -0.23438,0.57812 -0.23438,1.29687 0,1.32813 0.6875,1.95313 0.70313,0.60937 1.84375,0.60937 z m 14.08188,1.8125 h -2.60937 v -22.28125 h 2.60937 z m 7.58978,0 h -2.60937 v -15.71875 h 2.60937 z m -2.79687,-19.98437 q 0,-0.85938 0.4375,-1.23438 0.4375,-0.39062 1.07812,-0.39062 0.3125,0 0.59375,0.0937 0.28125,0.0937 0.48438,0.29687 0.20312,0.20313 0.32812,0.51563 0.125,0.29687 0.125,0.71875 0,0.84375 -0.45312,1.25 -0.45313,0.40625 -1.07813,0.40625 -0.64062,0 -1.07812,-0.39063 -0.4375,-0.40625 -0.4375,-1.26562 z m 17.49606,17.875 h -0.10937 q -0.32813,0.48437 -0.75,0.92187 -0.42188,0.4375 -0.96875,0.78125 -0.54688,0.32813 -1.23438,0.5 -0.6875,0.1875 -1.54687,0.1875 -1.32813,0 -2.4375,-0.51562 -1.10938,-0.51563 -1.89063,-1.53125 -0.78125,-1.03125 -1.21875,-2.54688 -0.42187,-1.51562 -0.42187,-3.51562 0,-2.03125 0.42187,-3.54688 0.4375,-1.53125 1.21875,-2.5625 0.78125,-1.03125 1.89063,-1.54687 1.10937,-0.53125 2.4375,-0.53125 0.84375,0 1.53125,0.1875 0.6875,0.1875 1.23437,0.51562 0.54688,0.3125 0.96875,0.73438 0.4375,0.40625 0.76563,0.85937 h 0.17187 q -0.0469,-0.48437 -0.0937,-0.9375 -0.0312,-0.35937 -0.0625,-0.75 -0.0156,-0.40625 -0.0156,-0.625 v -6.25 h 2.59375 v 22.28125 h -2.09375 z m -4.10937,0.23437 q 1.07812,0 1.82812,-0.32812 0.76563,-0.32813 1.21875,-1 0.46875,-0.67188 0.6875,-1.6875 0.23438,-1.01563 0.26563,-2.35938 v -0.57812 q 0,-1.45313 -0.20313,-2.57813 -0.1875,-1.125 -0.65625,-1.89062 -0.46875,-0.76563 -1.25,-1.15625 -0.76562,-0.39063 -1.92187,-0.39063 -1.9375,0 -2.84375,1.5625 -0.90625,1.5625 -0.90625,4.48438 0,2.98437 0.90625,4.45312 0.90625,1.46875 2.875,1.46875 z"
     fill-rule="nonzero"
     id="path71" />
  <path
     fill="#f4a582"
     d="M 25.291311,288.0302 H 242.77163 v 23.93701 H 25.291311 Z"
     fill-rule="evenodd"
     id="path73" />
  <path
     stroke="#595959"
     stroke-width="1"
     stroke-linejoin="round"
     stroke-linecap="butt"
     d="M 25.291311,288.0302 H 242.77163 v 23.93701 H 25.291311 Z"
     fill-rule="evenodd"
     id="path75" />
  <path
     fill="#000000"
     fill-opacity="0"
     d="m 283.03772,268.667 h 312.59845 v 64.6929 H 283.03772 Z"
     fill-rule="evenodd"
     id="path77" />
  <path
     fill="#000000"
     d="m 301.63147,295.55783 q 1.34375,0 2.4375,0.51563 1.10937,0.51562 1.89062,1.54687 0.78125,1.01563 1.20313,2.54688 0.4375,1.51562 0.4375,3.51562 0,2.01563 -0.4375,3.54688 -0.42188,1.51562 -1.20313,2.54687 -0.78125,1.03125 -1.89062,1.5625 -1.09375,0.51563 -2.4375,0.51563 -0.84375,0 -1.53125,-0.1875 -0.6875,-0.17188 -1.25,-0.48438 -0.54688,-0.3125 -0.96875,-0.71875 -0.42188,-0.42187 -0.75,-0.875 h -0.17188 l -0.53125,1.98438 h -1.90625 v -22.28125 h 2.60938 v 5.39062 q 0,0.5 -0.0156,1.0625 -0.0156,0.5625 -0.0312,1.04688 -0.0312,0.57812 -0.0625,1.125 h 0.10938 q 0.32812,-0.5 0.75,-0.92188 0.42187,-0.4375 0.96875,-0.75 0.54687,-0.32812 1.23437,-0.5 0.6875,-0.1875 1.54688,-0.1875 z m -0.5,2.17188 q -1.14063,0 -1.90625,0.35937 -0.76563,0.35938 -1.23438,1.10938 -0.46875,0.75 -0.67187,1.875 -0.1875,1.10937 -0.1875,2.60937 0,1.45313 0.1875,2.57813 0.20312,1.10937 0.67187,1.89062 0.46875,0.76563 1.23438,1.15625 0.78125,0.39063 1.9375,0.39063 1.9375,0 2.84375,-1.5625 0.90625,-1.5625 0.90625,-4.48438 0,-2.96875 -0.90625,-4.4375 -0.90625,-1.48437 -2.875,-1.48437 z m 19.45007,13.84375 -0.53125,-2.17188 h -0.10937 q -0.48438,0.64063 -0.95313,1.10938 -0.46875,0.46875 -1.03125,0.76562 -0.5625,0.29688 -1.25,0.4375 -0.6875,0.14063 -1.57812,0.14063 -1,0 -1.82813,-0.28125 -0.82812,-0.26563 -1.4375,-0.84375 -0.60937,-0.59375 -0.95312,-1.46875 -0.34375,-0.875 -0.34375,-2.07813 0,-2.35937 1.65625,-3.60937 1.65625,-1.26563 5.03125,-1.375 l 2.64062,-0.10938 v -0.98437 q 0,-0.95313 -0.21875,-1.59375 -0.20312,-0.65625 -0.59375,-1.04688 -0.39062,-0.39062 -0.96875,-0.5625 -0.57812,-0.17187 -1.32812,-0.17187 -1.1875,0 -2.21875,0.34375 -1.01563,0.34375 -1.96875,0.82812 l -0.90625,-1.96875 q 1.04687,-0.5625 2.34375,-0.96875 1.3125,-0.40625 2.75,-0.40625 1.45312,0 2.51562,0.29688 1.07813,0.29687 1.76563,0.9375 0.70312,0.625 1.04687,1.625 0.34375,0.98437 0.34375,2.39062 v 10.76563 z m -4.78125,-1.8125 q 0.875,0 1.60938,-0.26563 0.75,-0.28125 1.29687,-0.82812 0.54688,-0.5625 0.84375,-1.39063 0.3125,-0.84375 0.3125,-1.96875 v -1.42187 l -2.04687,0.0937 q -1.29688,0.0625 -2.17188,0.29687 -0.85937,0.21875 -1.39062,0.625 -0.51563,0.40625 -0.75,1 -0.23438,0.57813 -0.23438,1.29688 0,1.32812 0.6875,1.95312 0.70313,0.60938 1.84375,0.60938 z m 21.19126,-0.29688 h -0.10938 q -0.32812,0.48438 -0.75,0.92188 -0.42187,0.4375 -0.96875,0.78125 -0.54687,0.32812 -1.23437,0.5 -0.6875,0.1875 -1.54688,0.1875 -1.32812,0 -2.4375,-0.51563 -1.10937,-0.51562 -1.89062,-1.53125 -0.78125,-1.03125 -1.21875,-2.54687 -0.42188,-1.51563 -0.42188,-3.51563 0,-2.03125 0.42188,-3.54687 0.4375,-1.53125 1.21875,-2.5625 0.78125,-1.03125 1.89062,-1.54688 1.10938,-0.53125 2.4375,-0.53125 0.84375,0 1.53125,0.1875 0.6875,0.1875 1.23438,0.51563 0.54687,0.3125 0.96875,0.73437 0.4375,0.40625 0.76562,0.85938 h 0.17188 q -0.0469,-0.48438 -0.0937,-0.9375 -0.0312,-0.35938 -0.0625,-0.75 -0.0156,-0.40625 -0.0156,-0.625 v -6.25 h 2.59375 v 22.28125 h -2.09375 z m -4.10938,0.23438 q 1.07813,0 1.82813,-0.32813 0.76562,-0.32812 1.21875,-1 0.46875,-0.67187 0.6875,-1.6875 0.23437,-1.01562 0.26562,-2.35937 v -0.57813 q 0,-1.45312 -0.20312,-2.57812 -0.1875,-1.125 -0.65625,-1.89063 -0.46875,-0.76562 -1.25,-1.15625 -0.76563,-0.39062 -1.92188,-0.39062 -1.9375,0 -2.84375,1.5625 -0.90625,1.5625 -0.90625,4.48437 0,2.98438 0.90625,4.45313 0.90625,1.46875 2.875,1.46875 z m 19.73132,-19.0625 -7.79687,20.9375 h -2.5625 l 7.8125,-20.9375 z m 5.67515,20.9375 -5.375,-15.71875 h 2.6875 l 2.85937,8.75 q 0.15625,0.46875 0.35938,1.21875 0.21875,0.73437 0.4375,1.51562 0.21875,0.76563 0.39062,1.45313 0.1875,0.6875 0.23438,1.04687 h 0.10937 q 0.0625,-0.35937 0.23438,-1.04687 0.17187,-0.6875 0.39062,-1.45313 0.21875,-0.78125 0.42188,-1.51562 0.21875,-0.75 0.375,-1.21875 l 2.85937,-8.75 h 2.6875 l -5.375,15.71875 z m 17.37643,0.28125 q -1.57813,0 -2.875,-0.51563 -1.29688,-0.53125 -2.23438,-1.54687 -0.9375,-1.03125 -1.45312,-2.53125 -0.51563,-1.5 -0.51563,-3.4375 0,-1.9375 0.46875,-3.46875 0.46875,-1.54688 1.32813,-2.60938 0.85937,-1.0625 2.04687,-1.625 1.20313,-0.5625 2.65625,-0.5625 1.40625,0 2.53125,0.51563 1.14063,0.5 1.92188,1.4375 0.79687,0.92187 1.21875,2.21875 0.42187,1.29687 0.42187,2.85937 v 1.625 h -9.90625 q 0.0625,2.76563 1.15625,4.07813 1.10938,1.29687 3.26563,1.29687 0.73437,0 1.35937,-0.0781 0.625,-0.0781 1.20313,-0.20313 0.57812,-0.14062 1.10937,-0.34375 0.54688,-0.21875 1.10938,-0.46875 v 2.3125 q -0.5625,0.28125 -1.125,0.48438 -0.54688,0.20312 -1.125,0.32812 -0.57813,0.125 -1.20313,0.17188 -0.625,0.0625 -1.35937,0.0625 z m -0.64063,-14.125 q -1.625,0 -2.57812,1.125 -0.95313,1.10937 -1.10938,3.23437 h 7.03125 q 0,-0.96875 -0.1875,-1.78125 -0.1875,-0.8125 -0.60937,-1.375 -0.40625,-0.57812 -1.03125,-0.89062 -0.625,-0.3125 -1.51563,-0.3125 z m 16.92951,-2.17188 q 0.40625,0 0.92187,0.0469 0.51563,0.0312 0.89063,0.10937 l -0.34375,2.39063 q -0.39063,-0.0625 -0.82813,-0.10938 -0.42187,-0.0625 -0.78125,-0.0625 -0.90625,0 -1.65625,0.375 -0.73437,0.35938 -1.28125,1.04688 -0.53125,0.67187 -0.82812,1.625 -0.29688,0.95312 -0.29688,2.10937 v 8.48438 h -2.60937 v -15.71875 h 2.125 l 0.3125,2.875 h 0.125 q 0.35937,-0.625 0.76562,-1.1875 0.40625,-0.57813 0.90625,-1.01563 0.51563,-0.4375 1.14063,-0.70312 0.625,-0.26563 1.4375,-0.26563 z m 2.54349,0.29688 h 2.70312 l 3.07813,8.76562 q 0.20312,0.57813 0.40625,1.21875 0.21875,0.625 0.39062,1.25 0.1875,0.625 0.3125,1.21875 0.125,0.59375 0.1875,1.09375 h 0.0781 q 0.0781,-0.35937 0.23437,-0.96875 0.15625,-0.625 0.34375,-1.3125 0.20313,-0.70312 0.40625,-1.375 0.20313,-0.67187 0.375,-1.14062 l 2.84375,-8.75 h 2.6875 l -6.21875,17.76562 q -0.39062,1.15625 -0.85937,2.07813 -0.46875,0.9375 -1.09375,1.57812 -0.60938,0.64063 -1.4375,0.98438 -0.82813,0.35937 -1.96875,0.35937 -0.75,0 -1.29688,-0.0781 -0.54687,-0.0781 -0.92187,-0.17188 v -2.07812 q 0.29687,0.0781 0.75,0.125 0.46875,0.0469 0.96875,0.0469 0.6875,0 1.1875,-0.17187 0.5,-0.15625 0.875,-0.46875 0.375,-0.3125 0.625,-0.78125 0.26562,-0.45313 0.48437,-1.03125 l 0.8125,-2.29688 z m 26.30346,20.35937 h -12.17187 v -2 h 12.17187 z m 9.54212,-20.65625 q 1.34375,0 2.4375,0.51563 1.10937,0.51562 1.89062,1.54687 0.78125,1.01563 1.20313,2.54688 0.4375,1.51562 0.4375,3.51562 0,2.01563 -0.4375,3.54688 -0.42188,1.51562 -1.20313,2.54687 -0.78125,1.03125 -1.89062,1.5625 -1.09375,0.51563 -2.4375,0.51563 -0.84375,0 -1.53125,-0.1875 -0.6875,-0.17188 -1.25,-0.48438 -0.54688,-0.3125 -0.96875,-0.71875 -0.42188,-0.42187 -0.75,-0.875 h -0.17188 l -0.53125,1.98438 h -1.90625 v -22.28125 h 2.60938 v 5.39062 q 0,0.5 -0.0156,1.0625 -0.0156,0.5625 -0.0312,1.04688 -0.0312,0.57812 -0.0625,1.125 h 0.10938 q 0.32812,-0.5 0.75,-0.92188 0.42187,-0.4375 0.96875,-0.75 0.54687,-0.32812 1.23437,-0.5 0.6875,-0.1875 1.54688,-0.1875 z m -0.5,2.17188 q -1.14063,0 -1.90625,0.35937 -0.76563,0.35938 -1.23438,1.10938 -0.46875,0.75 -0.67187,1.875 -0.1875,1.10937 -0.1875,2.60937 0,1.45313 0.1875,2.57813 0.20312,1.10937 0.67187,1.89062 0.46875,0.76563 1.23438,1.15625 0.78125,0.39063 1.9375,0.39063 1.9375,0 2.84375,-1.5625 0.90625,-1.5625 0.90625,-4.48438 0,-2.96875 -0.90625,-4.4375 -0.90625,-1.48437 -2.875,-1.48437 z m 19.45007,13.84375 -0.53125,-2.17188 h -0.10938 q -0.48437,0.64063 -0.95312,1.10938 -0.46875,0.46875 -1.03125,0.76562 -0.5625,0.29688 -1.25,0.4375 -0.6875,0.14063 -1.57813,0.14063 -1,0 -1.82812,-0.28125 -0.82813,-0.26563 -1.4375,-0.84375 -0.60938,-0.59375 -0.95313,-1.46875 -0.34375,-0.875 -0.34375,-2.07813 0,-2.35937 1.65625,-3.60937 1.65625,-1.26563 5.03125,-1.375 l 2.64063,-0.10938 v -0.98437 q 0,-0.95313 -0.21875,-1.59375 -0.20313,-0.65625 -0.59375,-1.04688 -0.39063,-0.39062 -0.96875,-0.5625 -0.57813,-0.17187 -1.32813,-0.17187 -1.1875,0 -2.21875,0.34375 -1.01562,0.34375 -1.96875,0.82812 l -0.90625,-1.96875 q 1.04688,-0.5625 2.34375,-0.96875 1.3125,-0.40625 2.75,-0.40625 1.45313,0 2.51563,0.29688 1.07812,0.29687 1.76562,0.9375 0.70313,0.625 1.04688,1.625 0.34375,0.98437 0.34375,2.39062 v 10.76563 z m -4.78125,-1.8125 q 0.875,0 1.60937,-0.26563 0.75,-0.28125 1.29688,-0.82812 0.54687,-0.5625 0.84375,-1.39063 0.3125,-0.84375 0.3125,-1.96875 v -1.42187 l -2.04688,0.0937 q -1.29687,0.0625 -2.17187,0.29687 -0.85938,0.21875 -1.39063,0.625 -0.51562,0.40625 -0.75,1 -0.23437,0.57813 -0.23437,1.29688 0,1.32812 0.6875,1.95312 0.70312,0.60938 1.84375,0.60938 z m 21.19125,-0.29688 h -0.10937 q -0.32813,0.48438 -0.75,0.92188 -0.42188,0.4375 -0.96875,0.78125 -0.54688,0.32812 -1.23438,0.5 -0.6875,0.1875 -1.54687,0.1875 -1.32813,0 -2.4375,-0.51563 -1.10938,-0.51562 -1.89063,-1.53125 -0.78125,-1.03125 -1.21875,-2.54687 -0.42187,-1.51563 -0.42187,-3.51563 0,-2.03125 0.42187,-3.54687 0.4375,-1.53125 1.21875,-2.5625 0.78125,-1.03125 1.89063,-1.54688 1.10937,-0.53125 2.4375,-0.53125 0.84375,0 1.53125,0.1875 0.6875,0.1875 1.23437,0.51563 0.54688,0.3125 0.96875,0.73437 0.4375,0.40625 0.76563,0.85938 h 0.17187 q -0.0469,-0.48438 -0.0937,-0.9375 -0.0312,-0.35938 -0.0625,-0.75 -0.0156,-0.40625 -0.0156,-0.625 v -6.25 h 2.59375 v 22.28125 h -2.09375 z m -4.10937,0.23438 q 1.07812,0 1.82812,-0.32813 0.76563,-0.32812 1.21875,-1 0.46875,-0.67187 0.6875,-1.6875 0.23438,-1.01562 0.26563,-2.35937 v -0.57813 q 0,-1.45312 -0.20313,-2.57812 -0.1875,-1.125 -0.65625,-1.89063 -0.46875,-0.76562 -1.25,-1.15625 -0.76562,-0.39062 -1.92187,-0.39062 -1.9375,0 -2.84375,1.5625 -0.90625,1.5625 -0.90625,4.48437 0,2.98438 0.90625,4.45313 0.90625,1.46875 2.875,1.46875 z"
     fill-rule="nonzero"
     id="path79" />
</svg>
